<svg xmlns="http://www.w3.org/2000/svg" viewBox="0 0 105.48 99.86"><defs><style>.cls-1{fill:#ec2872;}.cls-2{fill:#480973;}.cls-3{fill:#eb8602;}.cls-4{fill:#b235db;}.cls-5{fill:#ffe226;}.cls-6{fill:#7229ab;}.cls-7{fill:#ffe8ad;}</style></defs><title>Asset 3</title><g id="Layer_2" data-name="Layer 2"><g id="layer_1-2" data-name="layer 1"><circle class="cls-1" cx="49.93" cy="49.93" r="49.93"/><path class="cls-2" d="M6.26,54.74h0a4.11,4.11,0,0,0,.31.29,6.84,6.84,0,0,0,7.51,1.28c-.35,17.75,3.7,27.64,20.42,32l.53.13c1,.24,2,.46,3,.67a84.56,84.56,0,0,0,15.13,1.77c5.09.06,10.25.24,15.2-1.12a13.29,13.29,0,0,0,6.5-4c4.15-5,5.15-11.89,4.64-18.18A14.94,14.94,0,0,0,68.38,54.17,10.45,10.45,0,0,0,71.46,52c3.07,5.45,9.78,8,15.81,8,10.08-.36,15.84-12.08,13.8-21.12A17.87,17.87,0,0,0,88.92,25.49c-2.73-.75-6-1.33-8.54.21.88-2.81.18-6.23-.72-8.91C76.93,8.92,68,2.61,59.62,5.42A10.3,10.3,0,0,0,53.2,12a12.6,12.6,0,0,0-4.86-2.11c-3.75-.81-8.43,1.18-9.18,5.25A6,6,0,0,0,39.29,18c-6-1.34-12.54-1.84-18.22.95a13.4,13.4,0,0,0-7.88,11.22,10,10,0,0,0,.89,4.62,50.24,50.24,0,0,0-.16,6.49l0,.05L12,42.21l0,0A5.62,5.62,0,0,0,10,42c-5,.62-7.32,7.43-4.71,11.45A6,6,0,0,0,6.26,54.74Z"/><path class="cls-3" d="M20.13,43.54a.19.19,0,0,0,0,.08,20,20,0,0,1-.29,5.83c-1.47,4.39-8,3.49-10-.31-2.32-3.65-.32-10,4.23-10.55A6,6,0,0,1,20.13,43.54ZM12,45.62A2.65,2.65,0,0,1,14.13,42a2.57,2.57,0,0,1,1.23.19,2.3,2.3,0,0,0-1.93,2.08,2.92,2.92,0,0,0,2.1,3,.21.21,0,0,0,.15-.39,2.65,2.65,0,0,1-1.6-2.55,1.74,1.74,0,0,1,2.15-1.59h.07A2.61,2.61,0,0,1,17.23,45c0,.26.37.32.42.06a3.32,3.32,0,0,0-3.56-3.72A3.1,3.1,0,0,0,11.6,45.8.22.22,0,0,0,12,45.62Z"/><path class="cls-4" d="M18.55,34c0,1-.05,2-.14,3,1.21-.58,2.43-1.14,3.66-1.67L23,35c-.13-2.67-.27-5.69,1.17-8,7-2.63,14.8-2.53,22-.85a10.63,10.63,0,0,1-1.67-4.55.21.21,0,0,1,.42-.07,10.52,10.52,0,0,0,.66,2.2,2.3,2.3,0,0,0,.18.43A11.42,11.42,0,0,0,47.6,26.9,11.62,11.62,0,0,0,54,30.66a183.43,183.43,0,0,1,25.5,3.1.2.2,0,0,1,.15.12.08.08,0,0,1,0,.07v0a10.25,10.25,0,0,1-.39,5.24l0,0a.19.19,0,0,1-.22.14l-.86-.14a12.74,12.74,0,0,1-.29,4.43,9.06,9.06,0,0,1-2.06,3.94c3,5.29,9.64,7.81,15.48,7.8,4.84-.2,8.61-3.13,10.94-7.09A19.15,19.15,0,0,0,104.47,35,17.38,17.38,0,0,0,89.73,21.34a14.73,14.73,0,0,0-1.48-.11h-.13a7.53,7.53,0,0,0-2.8.47,4.42,4.42,0,0,0-1.19.68,6.45,6.45,0,0,1-1.7,2.39l-.05,0h0c-.21.08-.42-.22-.21-.36a6.12,6.12,0,0,0,1.51-2.19.43.43,0,0,0,0-.05c1.14-2.81.39-6.44-.56-9.21C80.45,5.45,71.85-.63,63.81,2a9.83,9.83,0,0,0-3.57,2.18A9.41,9.41,0,0,0,57.6,8.4a.18.18,0,0,1,0,.17,7.48,7.48,0,0,0-.24,2.63.22.22,0,0,1-.43,0,8.18,8.18,0,0,1,0-2,5.94,5.94,0,0,1,.14-.71,13.43,13.43,0,0,0-4.85-2,8.39,8.39,0,0,0-4.95.61,6,6,0,0,0-3.54,4.18,5.14,5.14,0,0,0,1.49,4.88.22.22,0,0,1,0,.3.23.23,0,0,1-.31,0,4.74,4.74,0,0,1-1.49-2.07c-1.05-.2-2.09-.39-3.14-.55a36.83,36.83,0,0,0-6-.43c-6,.05-12.71,2.59-15.43,8.29-.08.16-.15.33-.22.5a10.7,10.7,0,0,0-.17,8.38s0,.05,0,.09C18.56,31.81,18.56,32.91,18.55,34Z"/><path class="cls-4" d="M18.51,52.07c0,.27,0,.54,0,.79-.07,13.55,2.35,22.32,11.43,27.5a36,36,0,0,0,8.79,3.39h0c1.08.27,2.21.52,3.41.76a92.09,92.09,0,0,0,22.6,1.68c3.71-.18,7.6-.54,10.83-2.49.26-.16.49-.33.73-.5,4.86-3.53,6.52-10.09,6.73-15.86.61-7.84-3.37-15.08-11.34-16.89a10.15,10.15,0,0,1-4.94.67A9.36,9.36,0,0,1,65.7,51a10.72,10.72,0,0,1-6.15-2.27c-1.31-.07-2.62-.21-3.93-.32s-2.59-.21-3.89-.3a10.49,10.49,0,0,1-7.06,2.27l-.44,0a10.87,10.87,0,0,1-2.61-.13,13.54,13.54,0,0,0-7,10.61.14.14,0,0,1,0,.06.13.13,0,0,1,0,.09.11.11,0,0,1-.09,0,8.46,8.46,0,0,1-9.64-4.12C23.22,53.48,23.33,49.63,23,46c-.15-2.31-.21-4.64-.16-7l-.73.26c-1,.33-1.95.67-2.92,1a6,6,0,0,1,1.45,3.44s0,0,0,0a11,11,0,0,1-.41,6l-.06.09a4.3,4.3,0,0,1-1.63,2.1Zm33.91,9.42a3.54,3.54,0,0,1-2.3,1c-2.38.37-8.08-.86-8.21-3.81.09-1.18,1.25-2.39,2.44-1.8a17.89,17.89,0,0,0,2.84,1.27c1.51.59,3.15.2,4.66.86A1.64,1.64,0,0,1,52.42,61.49Z"/><path class="cls-5" d="M23.22,38.9c0,2.35.14,4.71.3,7.06.4,3.55.38,7.33,1.87,10.6a8.09,8.09,0,0,0,8.82,4A12.59,12.59,0,0,1,41,50a9.43,9.43,0,0,1-1.18-.35c-6.11-2-7.87-7.37-7.84-13.25C29,37.1,26.09,37.94,23.22,38.9Z"/><path class="cls-5" d="M24.5,27.44a15.74,15.74,0,0,0-1.06,7.33c3.19-1.37,6.41-2.64,9.7-3.79h0a160.15,160.15,0,0,1,18.59-.41,11.53,11.53,0,0,1-5.21-4,52.25,52.25,0,0,0-5.42-.87A38.24,38.24,0,0,0,24.5,27.44Z"/><path class="cls-1" d="M33.55,35.52c3.74,0,7.49.08,11.25.18,2.61.1,5.22.2,7.82.35,1.12.06,2.24.12,3.36.2s2.46.18,3.69.27q4.84.38,9.68,1c2.83.35,5.65.76,8.46,1.25h0a.21.21,0,0,1,.23,0h0l.8.14a31.71,31.71,0,0,0,.35-4.77c-2.31-.4-4.61-.77-6.93-1.1Q67,32.28,61.62,31.82c-1-.09-2.07-.18-3.1-.25l-3.27-.21a169.89,169.89,0,0,0-21.76.17A22.16,22.16,0,0,1,33.55,35.52Z"/><path class="cls-1" d="M34.22,36.09a21.75,21.75,0,0,0,.16,2.79A15.61,15.61,0,0,0,35,41.71a11.91,11.91,0,0,0,1.63,3.41,10.5,10.5,0,0,0,14.87,2.45,9.77,9.77,0,0,0,1.67-1.67A10.73,10.73,0,0,0,55,42.32a14.47,14.47,0,0,0,.52-2.62,17,17,0,0,0,.05-2.85q-5.37-.32-10.74-.5C41.36,36.21,37.52,36.15,34.22,36.09Z"/><path class="cls-5" d="M42.39,58.72c0,1,1,1.63,1.77,2.06,2.17,1.1,5,1.66,7.27.7a1,1,0,0,0,.14-1.94,3.61,3.61,0,0,0-1.4-.34,12.39,12.39,0,0,1-6-1.89C43.25,56.85,42.46,57.9,42.39,58.72Z"/><path class="cls-5" d="M52.28,47.59a35.67,35.67,0,0,1,6.61.54,10.55,10.55,0,0,1-3.37-5.77A10.52,10.52,0,0,1,52.28,47.59Z"/><path class="cls-1" d="M57.41,39.65a15,15,0,0,0,.49,3,10.92,10.92,0,0,0,1.4,3.21,10.73,10.73,0,0,0,7.56,4.62,9.57,9.57,0,0,0,9.8-5.27,10.61,10.61,0,0,0,1.09-4.11,12.54,12.54,0,0,0,0-1.93C71,38.11,64.16,37.42,57.35,37A26.64,26.64,0,0,0,57.41,39.65Z"/><path class="cls-6" d="M44.94,22.69c.27.47.55.94.83,1.4.59,1,1.19,1.89,1.83,2.81A11.62,11.62,0,0,0,54,30.66a183.43,183.43,0,0,1,25.5,3.1.2.2,0,0,1,.15.12.08.08,0,0,1,0,.07v0a10.25,10.25,0,0,1-.39,5.24l0,0a.19.19,0,0,1-.22.14l-.86-.14a12.74,12.74,0,0,1-.29,4.43,9.06,9.06,0,0,1-2.06,3.94c3,5.29,9.64,7.81,15.48,7.8,4.84-.2,8.61-3.13,10.94-7.09a15.59,15.59,0,0,1-10.44,3,13.28,13.28,0,0,1-9.85-5.67c-2.63-3.93-2.73-9.21-1-13.62a25.27,25.27,0,0,1,8.81-10.74.35.35,0,0,1,.1-.08,10.76,10.76,0,0,0-1.69,0h0a20.21,20.21,0,0,0-2.8.47l-1,.21a14.71,14.71,0,0,1-2,2.89,16.46,16.46,0,0,1-4.85,3.9,8.38,8.38,0,0,1-9.38-.36A19.09,19.09,0,0,1,60,17.58c-1.11-4.45-1.68-9.13.2-13.43.12-.26.23-.5.36-.75a9.34,9.34,0,0,0-3.35,4.74c-.11.35-.22.71-.31,1.06a20,20,0,0,0-.16,10c.7,2.55,1,5-1.14,7.07-3.6,3.39-7.71.61-10-2.64C45.36,23.34,45.15,23,44.94,22.69Z"/><path class="cls-6" d="M40.32,13.88a6.07,6.07,0,0,0,3,2.61,16.7,16.7,0,0,0,5,1.11,11.39,11.39,0,0,1-2.3-7.74A5,5,0,0,1,46.39,8a5.19,5.19,0,0,1,.89-.93,6,6,0,0,0-3.54,4.18,5.14,5.14,0,0,0,1.49,4.88.22.22,0,0,1,0,.3.23.23,0,0,1-.31,0,4.74,4.74,0,0,1-1.49-2.07C42.41,14.23,41.37,14,40.32,13.88Z"/><path class="cls-6" d="M18.51,52.07c0,.27,0,.54,0,.79-.07,13.55,2.35,22.32,11.43,27.5a36,36,0,0,0,8.79,3.39h0c1.08.27,2.21.52,3.41.76a92.09,92.09,0,0,0,22.6,1.68c3.71-.18,7.6-.54,10.83-2.49.26-.16.49-.33.73-.5a90.29,90.29,0,0,1-26.21-.41c-6.8-1.12-13.66-3.1-19.1-7.32A21.67,21.67,0,0,1,22.47,59.6c-.21-3.09-.44-6.09-.43-9.23,0-1-.5-10.9,0-11.07-1,.33-1.95.67-2.92,1a6,6,0,0,1,1.45,3.44s0,0,0,0a11,11,0,0,1-.41,6l-.06.09a4.3,4.3,0,0,1-1.63,2.1Z"/><path class="cls-6" d="M18.55,34c0,1-.05,2-.14,3,1.21-.58,2.43-1.14,3.66-1.67,0-2.7,0-5.39,0-8.09,0-.1-2.39-2.14-2.65-2.6a6.51,6.51,0,0,1-.78-2.44,10.7,10.7,0,0,0-.17,8.38s0,.05,0,.09C18.56,31.81,18.56,32.91,18.55,34Z"/><path class="cls-6" d="M49.7,64.29a6.24,6.24,0,0,1-3.24.34,6.28,6.28,0,0,1-3.76-1.52,3,3,0,0,1-.57-3.76c-.32.45,3.9,2.28,4.29,2.39a12.54,12.54,0,0,0,5,.15C51.66,62.89,50.56,63.9,49.7,64.29Z"/><path class="cls-7" d="M57.41,39.65a15,15,0,0,0,.49,3c1.21-.82,3.08-.35,4.38.51,1.47,1,2.76,2.41,4.52,2.73a7.72,7.72,0,0,0,3.82-.65c1.52-.56,3-1.13,4.67-.69a8.11,8.11,0,0,1,1.37.66,10.61,10.61,0,0,0,1.09-4.11,3.15,3.15,0,0,0-1.16-.48,7.73,7.73,0,0,0-3.94.73,32.13,32.13,0,0,1-3.76,1.52A5.21,5.21,0,0,1,65,42.61c-1.81-1-2.66-3.48-4.67-4A2.84,2.84,0,0,0,57.41,39.65Z"/><path class="cls-7" d="M34.38,38.88A15.61,15.61,0,0,0,35,41.71a4.08,4.08,0,0,1,2.07.4,7.85,7.85,0,0,0,2.7.91c2.13.09,3.83-2.14,6-2.07s3.43,2.21,5.41,2.73A3.73,3.73,0,0,0,55,42.32a14.47,14.47,0,0,0,.52-2.62.72.72,0,0,0-.7-.15c-.37.13-.57.52-.83.81a2.5,2.5,0,0,1-2.89.24,14,14,0,0,1-2.44-1.92,3.73,3.73,0,0,0-2.82-1.08c-1.53.22-2.47,1.89-3.95,2.33a4.33,4.33,0,0,1-2.74-.29,17.6,17.6,0,0,0-2.63-1A3.31,3.31,0,0,0,34.38,38.88Z"/><path class="cls-7" d="M59.67,36.52q4.84.38,9.68,1a0,0,0,0,0,0,0l.16-.23c.54-.81,2.3-2.67,2.75-4.2Q67,32.28,61.62,31.82c-.24.75-.51,1.49-.8,2.23S60,35.68,59.67,36.52Z"/><path class="cls-7" d="M52.62,36.05c1.12.06,2.24.12,3.36.2a2.91,2.91,0,0,0,.17-.3c.75-1.44,1.68-2.88,2.37-4.38l-3.27-.21Q53.95,33.72,52.62,36.05Z"/><path class="cls-5" d="M13.75,38.46A6.27,6.27,0,0,0,10,40.85a7.85,7.85,0,0,0-1.45,5.63,1.39,1.39,0,0,0,1,1c.72.13,1.37-.54,1.6-1.24s.2-1.47.42-2.17a3.25,3.25,0,0,1,4-2,3.25,3.25,0,0,1,1.9,4.05,14.31,14.31,0,0,1-1.42,2.24,2.4,2.4,0,0,0-.23,2.51,1.92,1.92,0,0,0,2.42.47,3.93,3.93,0,0,0,1.68-2A9.93,9.93,0,0,0,19,40.67,4.94,4.94,0,0,0,13.75,38.46Z"/><path class="cls-2" d="M14,38c-5,.62-7.33,7.43-4.72,11.45a6,6,0,0,0,.94,1.28l0,0c.18-.22.51.07.33.27a.18.18,0,0,1,0,.07,6.84,6.84,0,0,0,7.51,1.28v-.25a.23.23,0,0,1,.21-.22.21.21,0,0,1,.21.2A4.3,4.3,0,0,0,20.13,50,.2.2,0,0,1,20,50a.21.21,0,0,1-.17-.25c0-.09,0-.2,0-.3-1.47,4.39-8,3.49-10-.31-2.32-3.65-.32-10,4.23-10.55a6,6,0,0,1,6,4.95.22.22,0,0,1,.42,0c0,.08,0,.15,0,.23a6,6,0,0,0-1.45-3.44,1.15,1.15,0,0,0-.17.06.22.22,0,0,1-.16-.41h0a6.45,6.45,0,0,0-2.32-1.57l-.35.17a.21.21,0,0,1-.21-.36A5.59,5.59,0,0,0,14,38Z"/><path class="cls-2" d="M10.26,50.74h0a4.11,4.11,0,0,0,.31.29.18.18,0,0,0,0-.07c.18-.2-.15-.49-.33-.27Z"/><path class="cls-2" d="M14.09,41.38A3.1,3.1,0,0,0,11.6,45.8a.22.22,0,0,0,.39-.18A2.65,2.65,0,0,1,14.13,42a2.57,2.57,0,0,1,1.23.19,2,2,0,0,1,1,.15.22.22,0,0,1-.09.41A2.61,2.61,0,0,1,17.23,45c0,.26.37.32.42.06A3.32,3.32,0,0,0,14.09,41.38Z"/><path class="cls-2" d="M13.43,44.3a2.92,2.92,0,0,0,2.1,3,.21.21,0,0,0,.15-.39,2.65,2.65,0,0,1-1.6-2.55,1.74,1.74,0,0,1,2.15-1.59h.07a2.83,2.83,0,0,0-.94-.56A2.3,2.3,0,0,0,13.43,44.3Z"/><path class="cls-2" d="M16.39,42.37a2,2,0,0,0-1-.15,2.83,2.83,0,0,1,.94.56h0A.22.22,0,0,0,16.39,42.37Z"/><path class="cls-2" d="M16,38.23a.21.21,0,0,0,.21.36l.35-.17A5.27,5.27,0,0,0,16,38.23Z"/><path class="cls-2" d="M16,38.21s0,0,0,0a5.27,5.27,0,0,1,.56.19L18,37.75a.19.19,0,0,1-.15-.14.2.2,0,0,1,0-.19s0-.09.05-.14Z"/><path class="cls-2" d="M18,37.75l-1.44.67A6.45,6.45,0,0,1,18.83,40c1.35-.53,2.72-1,4.1-1.51a87.12,87.12,0,0,1,10.15-2.92A22.31,22.31,0,0,1,33,31.64c-3.1,1.09-6.36,2.36-9.59,3.71a.2.2,0,0,1-.19.08c-1.69.71-3.37,1.45-5,2.21v0A.22.22,0,0,1,18,37.75Z"/><path class="cls-2" d="M17.19,26.12a10,10,0,0,0,.89,4.62v0c0-.25.41-.24.42,0,0,0,0-.06,0-.09a10.88,10.88,0,0,1,.39-8.88c2.72-5.7,9.4-8.24,15.43-8.29a43.58,43.58,0,0,1,9.15,1A2.7,2.7,0,0,1,43.3,14h0c-6-1.34-12.54-1.84-18.22,1A13.4,13.4,0,0,0,17.19,26.12Z"/><path class="cls-2" d="M17.84,37.42a.2.2,0,0,0,0,.19.19.19,0,0,0,.15.14l.26-.11.07-.13a.28.28,0,0,0,0-.08.22.22,0,0,1-.39-.07l-.07,0S17.85,37.41,17.84,37.42Z"/><path class="cls-2" d="M17.84,37.42s0,0,0,0a.15.15,0,0,1,.07,0s0,0,.07,0h0l.34-.05a2.29,2.29,0,0,0,0-.25l-.12.05a.19.19,0,0,1,.09.11l-.46.07h0S17.86,37.38,17.84,37.42Z"/><path class="cls-2" d="M17.87,37.39l.07,0A.15.15,0,0,0,17.87,37.39Z"/><path class="cls-2" d="M18.08,30.74a50.24,50.24,0,0,0-.16,6.49s0,0,0-.07a.26.26,0,0,1,.35-.07l.12-.05c.09-1,.12-2,.14-3s0-2.2-.05-3.3a.21.21,0,0,1-.12.2.23.23,0,0,1-.29-.11A.13.13,0,0,1,18.08,30.74Z"/><path class="cls-2" d="M17.89,37.28h0v0Z"/><path class="cls-2" d="M17.92,37.23v0c.12-.07.25-.12.37-.18a.26.26,0,0,0-.35.07S17.92,37.2,17.92,37.23Z"/><path class="cls-2" d="M17.92,37.27l.46-.07a.19.19,0,0,0-.09-.11C18.17,37.15,18,37.2,17.92,37.27Z"/><path class="cls-2" d="M17.94,37.36l.08,0h0Z"/><path class="cls-2" d="M18.11,37.37l0,0,0,0a.06.06,0,0,0-.05,0Zm-.17,0,.08,0h0l.34-.05a2.29,2.29,0,0,0,0-.25c1.52-.73,3.06-1.43,4.6-2.09,0,.1,0,.19,0,.29a.21.21,0,0,0,.2.19c-1.69.71-3.37,1.45-5,2.21l.07-.13a.28.28,0,0,0,0-.08A.22.22,0,0,1,17.94,37.36Z"/><path class="cls-2" d="M17.94,37.36l.07,0S18,37.34,17.94,37.36Z"/><path class="cls-2" d="M18,37.75a.22.22,0,0,0,.25-.09v0Z"/><path class="cls-2" d="M18.08,52.32c-.34,17.75,3.7,27.64,20.42,32l0-.34a.21.21,0,0,1,.27-.23c-16.65-4.28-20.42-14-20.21-31.68v0A4.94,4.94,0,0,1,18.08,52.32Z"/><path class="cls-2" d="M18.06,37.35l.05,0A.06.06,0,0,0,18.06,37.35Z"/><path class="cls-2" d="M18.08,52.07v.25a4.94,4.94,0,0,0,.42-.27.21.21,0,0,0-.21-.2A.23.23,0,0,0,18.08,52.07Z"/><path class="cls-2" d="M18.08,30.7v0a.13.13,0,0,0,0,.06.23.23,0,0,0,.29.11.21.21,0,0,0,.12-.2C18.49,30.46,18.09,30.45,18.08,30.7Z"/><path class="cls-2" d="M18.11,37.37l0,0Z"/><path class="cls-2" d="M18.81,40a.22.22,0,0,0,.16.41,1.15,1.15,0,0,1,.17-.06,3.52,3.52,0,0,0-.31-.35Z"/><path class="cls-2" d="M18.83,40a3.52,3.52,0,0,1,.31.35c1.21-.46,2.43-.89,3.65-1.3v-.35a.2.2,0,0,1,.14-.2h0C21.55,39,20.18,39.46,18.83,40Z"/><path class="cls-2" d="M19.78,49.75A.21.21,0,0,0,20,50a.2.2,0,0,0,.18,0,6,6,0,0,0,.32-1.18.22.22,0,0,0-.43-.05,4.85,4.85,0,0,1-.19.73C19.81,49.55,19.79,49.66,19.78,49.75Z"/><path class="cls-2" d="M19.83,49.45a4.85,4.85,0,0,0,.19-.73.22.22,0,0,1,.43.05A6,6,0,0,1,20.13,50l.06-.09a11,11,0,0,0,.41-6,.22.22,0,0,1-.43,0c0-.1,0-.2,0-.3a.19.19,0,0,0,0,.08A20,20,0,0,1,19.83,49.45Z"/><path class="cls-2" d="M20.13,43.54c0,.1,0,.2,0,.3a.22.22,0,0,0,.43,0s0,0,0,0,0-.15,0-.23A.22.22,0,0,0,20.13,43.54Z"/><path class="cls-2" d="M22.79,39c-.05,2.32,0,4.65.16,7,.38,3.63.27,7.48,1.89,10.85A8.46,8.46,0,0,0,34.48,61a.11.11,0,0,0,.09,0,.22.22,0,0,1-.36-.16v-.17a8.09,8.09,0,0,1-8.82-4c-1.49-3.27-1.47-7.05-1.87-10.6-.16-2.35-.26-4.71-.3-7.06Z"/><path class="cls-2" d="M22.79,38.69V39l.43-.14v-.21a.22.22,0,0,0-.29-.2A.2.2,0,0,0,22.79,38.69Z"/><path class="cls-2" d="M22.93,38.48h0a.22.22,0,0,1,.29.2v.21c2.87-1,5.77-1.8,8.71-2.48v-.31a.22.22,0,0,1,.43,0c0,.07,0,.15,0,.22l1-.22h.4c0-.07,0-.15,0-.23a.22.22,0,0,1,.21-.21.22.22,0,0,1,.22.22v.22c3.3.06,7.14.12,10.56.26q5.37.18,10.74.5s0-.08,0-.11a.22.22,0,0,1,.43,0c0,.06,0,.12,0,.18l1,.06a.21.21,0,0,1,.42,0c6.81.45,13.61,1.14,20.35,2.2a1.49,1.49,0,0,0,0-.21.2.2,0,0,1,.13-.22,243.43,243.43,0,0,0-33-3c-3.76-.1-7.51-.18-11.25-.18,0,.09,0,.18,0,.28a.22.22,0,0,1-.43,0c0-.08,0-.17,0-.25A87.12,87.12,0,0,0,22.93,38.48Z"/><path class="cls-2" d="M24.18,26.93c-1.44,2.33-1.3,5.35-1.17,8l.43-.18a15.74,15.74,0,0,1,1.06-7.33l-.11,0,.16-.15-.05.12a38.24,38.24,0,0,1,16.63-1.71,52.25,52.25,0,0,1,5.42.87c-.13-.17-.25-.34-.37-.52C39,24.4,31.16,24.3,24.18,26.93Z"/><path class="cls-2" d="M23,35c0,.1,0,.19,0,.29a.21.21,0,0,0,.2.19l.19-.08a.18.18,0,0,0,0-.13c0-.15,0-.3,0-.45Z"/><path class="cls-2" d="M23.23,35.43a.2.2,0,0,0,.19-.08Z"/><path class="cls-2" d="M23.46,35.22a.18.18,0,0,1,0,.13C26.65,34,29.91,32.73,33,31.64c0-.13,0-.25,0-.38a.21.21,0,0,1,.14-.18l0-.1c-3.29,1.15-6.51,2.42-9.7,3.79C23.45,34.92,23.46,35.07,23.46,35.22Z"/><path class="cls-2" d="M24.39,27.47l.11,0,.05-.12Z"/><path class="cls-2" d="M31.93,36.42c0,5.88,1.73,11.23,7.84,13.25A9.43,9.43,0,0,0,41,50c.17-.1.36-.19.54-.28s.44.26.2.38l-.07,0a10.87,10.87,0,0,0,2.61.13,10.39,10.39,0,0,1-3.14-.82,11.44,11.44,0,0,1-5.6-3.24c-2.53-2.64-2.87-6.42-3.11-9.92A3.69,3.69,0,0,0,31.93,36.42Z"/><path class="cls-2" d="M31.93,36.11v.31a3.69,3.69,0,0,1,.45-.11c0-.07,0-.15,0-.22A.22.22,0,0,0,31.93,36.11Z"/><path class="cls-2" d="M33.38,36.09l-1,.22c.24,3.5.58,7.28,3.11,9.92a11.44,11.44,0,0,0,5.6,3.24,11.88,11.88,0,0,1-6.92-8.64,21,21,0,0,1-.39-4.74Z"/><path class="cls-2" d="M33,31.64a22.31,22.31,0,0,0,.07,3.92l.18,0h.29a22.16,22.16,0,0,0-.06-4l-.22,0A2,2,0,0,0,33,31.64Z"/><path class="cls-2" d="M33,31.26c0,.13,0,.25,0,.38a2,2,0,0,1,.26-.09l.22,0,0-.28a.22.22,0,0,0-.29-.17A.21.21,0,0,0,33,31.26Z"/><path class="cls-2" d="M33.08,35.56c0,.08,0,.17,0,.25a.22.22,0,0,0,.43,0c0-.1,0-.19,0-.28h-.29Z"/><path class="cls-2" d="M33.14,31l0,.1a.22.22,0,0,1,.29.17l0,.28A185.31,185.31,0,0,1,79.2,34.15V34a.22.22,0,0,1,.4-.1.2.2,0,0,0-.15-.12A183.43,183.43,0,0,0,54,30.66c.18,0,.34.07.52.09a.22.22,0,0,1-.06.43,10.64,10.64,0,0,1-2.65-.62A160.15,160.15,0,0,0,33.17,31Z"/><path class="cls-2" d="M33.78,36.09a21,21,0,0,0,.39,4.74,11.88,11.88,0,0,0,6.92,8.64,11.37,11.37,0,0,0,4.19.29.21.21,0,0,1,.06.42,8.34,8.34,0,0,1-1.11.11l.44,0a10.49,10.49,0,0,0,7.06-2.27h-.14a.22.22,0,0,1-.08-.42l0-.06a10.5,10.5,0,0,1-14.87-2.45,15.49,15.49,0,0,1-2.37-9Z"/><path class="cls-2" d="M33.79,35.86c0,.08,0,.16,0,.23h.44v-.22a.22.22,0,0,0-.22-.22A.22.22,0,0,0,33.79,35.86Z"/><path class="cls-2" d="M34.21,60.76a.22.22,0,0,0,.36.16.13.13,0,0,0,0-.09.21.21,0,0,0-.26-.27l-.15,0Z"/><path class="cls-2" d="M34.21,60.59l.15,0a.21.21,0,0,1,.26.27.14.14,0,0,0,0-.06,13.54,13.54,0,0,1,7-10.61L41,50A12.59,12.59,0,0,0,34.21,60.59Z"/><path class="cls-2" d="M38.72,83.75a.21.21,0,0,0-.27.23l0,.34.53.13a5.7,5.7,0,0,1-.16-.55.23.23,0,0,0-.11-.14Z"/><path class="cls-2" d="M38.76,83.76a.23.23,0,0,1,.11.14,5.7,5.7,0,0,0,.16.55c1,.24,2,.46,3,.67a84.56,84.56,0,0,0,15.13,1.77c5.09.06,10.25.24,15.2-1.12a13.29,13.29,0,0,0,6.5-4c4.15-5,5.15-11.89,4.64-18.18A14.94,14.94,0,0,0,72.38,50.17c-.22.11-.43.2-.66.29,8,1.81,12,9,11.34,16.89-.22,6.05-2,13-7.46,16.36-3.23,2-7.12,2.31-10.83,2.49a92.09,92.09,0,0,1-22.6-1.68C41,84.28,39.84,84,38.76,83.76Z"/><path class="cls-2" d="M41.49,49.74c-.18.09-.37.18-.54.28l.67.14.07,0C41.93,50,41.73,49.62,41.49,49.74Z"/><path class="cls-2" d="M43.16,11.18A6,6,0,0,0,43.29,14h0l.35.07c.27.07.17.49-.08.43l-.11,0A4.74,4.74,0,0,0,45,16.5a.23.23,0,0,0,.31,0,.22.22,0,0,0,0-.3,5.14,5.14,0,0,1-1.49-4.88c.75-3.67,5-5.47,8.49-4.79a13.43,13.43,0,0,1,4.85,2A3.74,3.74,0,0,1,57.2,8a12.6,12.6,0,0,0-4.86-2.11C48.59,5.12,43.91,7.11,43.16,11.18Z"/><path class="cls-2" d="M43.65,14,43.3,14a2.7,2.7,0,0,0,.16.48l.11,0C43.82,14.51,43.92,14.09,43.65,14Z"/><path class="cls-2" d="M45.28,49.76a11.37,11.37,0,0,1-4.19-.29,10.39,10.39,0,0,0,3.14.82,8.34,8.34,0,0,0,1.11-.11A.21.21,0,0,0,45.28,49.76Z"/><path class="cls-2" d="M47.19,58.18c1.51.59,3.15.2,4.66.86a1.64,1.64,0,0,1,.57,2.45,3.54,3.54,0,0,1-2.3,1c-2.38.37-8.08-.86-8.21-3.81.09-1.18,1.25-2.39,2.44-1.8A17.89,17.89,0,0,0,47.19,58.18Zm4.24,3.3a1,1,0,0,0,.14-1.94,3.61,3.61,0,0,0-1.4-.34,12.39,12.39,0,0,1-6-1.89c-.94-.46-1.73.59-1.8,1.41s1,1.63,1.77,2.06C46.33,61.88,49.12,62.44,51.43,61.48Z"/><path class="cls-2" d="M44.93,21.46a.21.21,0,0,0-.42.07,10.63,10.63,0,0,0,1.67,4.55l.65.14a.21.21,0,0,1-.1.41,1,1,0,0,1-.18,0,11.53,11.53,0,0,0,5.21,4l2.19.1A11.74,11.74,0,0,1,44.93,21.46Z"/><path class="cls-2" d="M46.83,26.22l-.65-.14c.12.18.24.35.37.52a1,1,0,0,0,.18,0A.21.21,0,0,0,46.83,26.22Z"/><path class="cls-2" d="M51.51,47.63a.22.22,0,0,0,.08.42h.14c.19-.15.38-.31.55-.47l-.69,0Z"/><path class="cls-2" d="M51.46,47.57l0,.06.08,0,.69,0a10.52,10.52,0,0,0,3.24-5.23,8.39,8.39,0,0,1-.16-1.12.22.22,0,0,1,.41-.1A15.23,15.23,0,0,0,56,36.88l-.44,0a13.31,13.31,0,0,1-2.39,9A9.77,9.77,0,0,1,51.46,47.57Z"/><path class="cls-2" d="M52.28,47.59c-.17.16-.36.32-.55.47,1.3.09,2.59.18,3.89.3s2.62.25,3.93.32c-.22-.17-.44-.35-.66-.55A35.67,35.67,0,0,0,52.28,47.59Z"/><path class="cls-2" d="M54,30.66l-2.19-.1a10.64,10.64,0,0,0,2.65.62.22.22,0,0,0,.06-.43C54.29,30.73,54.13,30.69,54,30.66Z"/><path class="cls-2" d="M55.77,41.14a.22.22,0,0,0-.41.1,8.39,8.39,0,0,0,.16,1.12c.06-.22.11-.45.15-.67S55.75,41.32,55.77,41.14Z"/><path class="cls-2" d="M55.94,36.7a.22.22,0,0,0-.43,0s0,.08,0,.11l.44,0C56,36.82,56,36.76,55.94,36.7Z"/><path class="cls-2" d="M55.67,41.69c0,.22-.09.45-.15.67a10.55,10.55,0,0,0,3.37,5.77l.83.14a.21.21,0,0,1,0,.42h-.12A10.72,10.72,0,0,0,65.7,51a10.72,10.72,0,0,1-3.11-1.22h0a11.05,11.05,0,0,1-6.77-8.53s0,0,0,0C55.75,41.32,55.71,41.5,55.67,41.69Z"/><path class="cls-2" d="M55.77,41.14s0,0,0,0a11.05,11.05,0,0,0,6.77,8.53,11.23,11.23,0,0,1-5.43-8,21,21,0,0,1-.2-4.75h0l-1-.06A15.23,15.23,0,0,1,55.77,41.14Z"/><path class="cls-2" d="M57.08,8.49a8.44,8.44,0,0,0-.19,2.75.22.22,0,0,0,.43,0,7.48,7.48,0,0,1,.24-2.63.19.19,0,0,1-.28,0A1.37,1.37,0,0,1,57.08,8.49Z"/><path class="cls-2" d="M56.93,37a21,21,0,0,0,.2,4.75,11.23,11.23,0,0,0,5.43,8h0a10.75,10.75,0,0,0,3.69.8.22.22,0,0,1,0,.43H65.7a9.36,9.36,0,0,0,1.08.18,10.15,10.15,0,0,0,4.94-.67l-.15,0a.21.21,0,0,1,.09-.42c.24,0,.49.1.72.17A10.45,10.45,0,0,0,75.46,48l-.18-.34c-.14-.24.27-.44.38-.19a2,2,0,0,0,.12.19,9.06,9.06,0,0,0,2.06-3.94,12.74,12.74,0,0,0,.29-4.43l-.43-.07c.71,6.52-4.18,12-10.84,11.31a10.73,10.73,0,0,1-7.56-4.62c-1.68-2.58-2-5.8-1.95-8.89l-.42,0Z"/><path class="cls-2" d="M56.93,36.94l.42,0a.21.21,0,0,0-.42,0Z"/><path class="cls-2" d="M57.08,8.49a1.37,1.37,0,0,0,.2.13.19.19,0,0,0,.28,0,.47.47,0,0,1,0-.17.17.17,0,0,0-.08-.14L57.2,8A3.74,3.74,0,0,0,57.08,8.49Z"/><path class="cls-2" d="M57.2,8l.32.22a.17.17,0,0,1,.08.14A9.88,9.88,0,0,1,63.81,2c8-2.6,16.64,3.48,19.31,11,.95,2.77,1.7,6.4.56,9.21l.06-.06a4.55,4.55,0,0,1,.64-.44c.88-2.81.18-6.23-.72-8.91C80.93,4.92,72-1.39,63.62,1.42A10.3,10.3,0,0,0,57.2,8Z"/><path class="cls-2" d="M57.6,8.4a.47.47,0,0,0,0,.17A.18.18,0,0,0,57.6,8.4Z"/><path class="cls-2" d="M59.72,48.27l-.83-.14c.22.2.44.38.66.55h.12A.21.21,0,0,0,59.72,48.27Z"/><path class="cls-2" d="M62.59,49.73A10.72,10.72,0,0,0,65.7,51h.57a.22.22,0,0,0,0-.43A10.75,10.75,0,0,1,62.59,49.73Z"/><path class="cls-2" d="M71.66,50a.21.21,0,0,0-.09.42l.15,0c.23-.09.44-.18.66-.29C72.15,50.1,71.9,50.05,71.66,50Z"/><path class="cls-2" d="M75.66,47.42c-.11-.25-.52-.05-.38.19l.18.34a2.58,2.58,0,0,0,.32-.34A2,2,0,0,1,75.66,47.42Z"/><path class="cls-2" d="M75.78,47.61a2.58,2.58,0,0,1-.32.34c3.07,5.45,9.78,8,15.82,8,10.07-.36,15.83-12.08,13.79-21.12A17.87,17.87,0,0,0,92.92,21.49c-2.73-.75-6-1.33-8.54.21a6.82,6.82,0,0,1-.25.68,6.46,6.46,0,0,1,4.12-1.15A17.32,17.32,0,0,1,104.47,35c1.88,8.68-3.51,20-13.21,20.42C85.42,55.42,78.73,52.9,75.78,47.61Z"/><path class="cls-2" d="M77.81,38.74a.2.2,0,0,0-.13.22,1.49,1.49,0,0,1,0,.21l.43.07c0-.11,0-.21,0-.33a.22.22,0,0,0-.06-.13h0l-.23,0Z"/><path class="cls-2" d="M77.82,38.74l.23,0A.21.21,0,0,0,77.82,38.74Z"/><path class="cls-2" d="M78.85,38.92l-.8-.14a.22.22,0,0,1,.06.13c0,.12,0,.22,0,.33l.86.14a.19.19,0,0,0,.22-.14.18.18,0,0,1-.2.12.22.22,0,0,1-.2-.24C78.82,39.05,78.84,39,78.85,38.92Z"/><path class="cls-2" d="M78.81,39.12a.22.22,0,0,0,.2.24.18.18,0,0,0,.2-.12l0,0v0a.2.2,0,0,0-.17-.24l-.21,0C78.84,39,78.82,39.05,78.81,39.12Z"/><path class="cls-2" d="M78.85,38.92l.21,0a.2.2,0,0,1,.17.24v0A10.25,10.25,0,0,0,79.62,34v0a.2.2,0,0,1-.25.17l-.17,0A31.71,31.71,0,0,1,78.85,38.92Z"/><path class="cls-2" d="M79.2,34v.17l.17,0a.2.2,0,0,0,.25-.17v0a.14.14,0,0,0,0-.07A.22.22,0,0,0,79.2,34Z"/><path class="cls-2" d="M79.6,33.88a.14.14,0,0,1,0,.07A.08.08,0,0,0,79.6,33.88Z"/><path class="cls-2" d="M82.16,24.44c-.23.16.06.51.27.33a6.45,6.45,0,0,0,1.7-2.39.5.5,0,0,0-.12.08.21.21,0,0,1-.3,0,.22.22,0,0,1,0-.19A6.12,6.12,0,0,1,82.16,24.44Z"/><path class="cls-2" d="M83.67,22.25a.22.22,0,0,0,0,.19.21.21,0,0,0,.3,0,.5.5,0,0,1,.12-.08,6.82,6.82,0,0,0,.25-.68,4.55,4.55,0,0,0-.64.44l-.06.06A.43.43,0,0,1,83.67,22.25Z"/></g></g></svg>