<svg xmlns="http://www.w3.org/2000/svg" viewBox="0 0 114.51 99.86"><defs><style>.cls-1{isolation:isolate;}.cls-2{fill:#ec2872;}.cls-3{fill:#480973;}.cls-4{fill:#ffe226;}.cls-5{fill:#a80a64;}.cls-6{fill:#ffefd4;}.cls-7{fill:#2fb5eb;}.cls-8{fill:#eb8602;}.cls-9{fill:#fff7c7;mix-blend-mode:overlay;}.cls-10{fill:#227fc7;}</style></defs><title>Asset 2</title><g class="cls-1"><g id="Layer_2" data-name="Layer 2"><g id="layer_1-2" data-name="layer 1"><circle class="cls-2" cx="60.61" cy="49.93" r="49.93"/><path class="cls-3" d="M96.76,29.72a44.56,44.56,0,0,0-15.84-8.29h-.07A32.09,32.09,0,0,0,59.3,10.71C53,10,46.15,12.3,42.21,17.43a14.12,14.12,0,0,0-2.62,5.65c-11-3.49-24.93-3.66-33.23,5.45-5.25,5.79-7,14-6.13,21.64.32,3,1.57,6.47,4.65,7.62a5.07,5.07,0,0,0,3.37.2A10.18,10.18,0,0,0,8,62.83a28.23,28.23,0,0,0,5,12.56l.18.25c.24.33.48.67.73,1l.31.39a.2.2,0,0,0,.09,0,23.25,23.25,0,0,0,10.42,6.46c12.14,3.55,24.92.49,36.61-3.64l.64-.22,2.83-1a33.52,33.52,0,0,0,5.5-2.81,9.15,9.15,0,0,0,1.5-1.18,12.67,12.67,0,0,0,2,.58l.36.08.7.13a22.18,22.18,0,0,0,18.6-5.34A21.12,21.12,0,0,0,96,67.32a4.38,4.38,0,0,0,3.44,2.25c3.19.31,5.77-2.12,7.53-4.48a19.32,19.32,0,0,0,3.46-12.86C109.7,43.09,103.61,35.38,96.76,29.72Z"/><path class="cls-4" d="M9,53.44a4.65,4.65,0,0,0,3.42.11.1.1,0,0,1,.07,0,3.43,3.43,0,0,0,.72-.41.16.16,0,0,1,.23,0,.15.15,0,0,1,0,.23,3.78,3.78,0,0,1-.75.44,10.18,10.18,0,0,0-.24,4.94,29.53,29.53,0,0,0,3.49,10.1,32.7,32.7,0,0,0,2.72,4.26,13.55,13.55,0,0,0,3.93,3.16A34.87,34.87,0,0,0,43,80.75a33.35,33.35,0,0,0,5.15-.86,21,21,0,0,0,2.21-.55q1.41-.54,2.85-1C57,77,60.86,76,64.75,75c1-1.72,2-3.49,3-5.28C57,73.91,43.24,72.31,36.43,62.46a16.55,16.55,0,0,1-2-13.28,1.24,1.24,0,0,1-.27,0,1.13,1.13,0,0,1-.88-.8c-.17-.87,1.1-1.93,2-2.6l.47-.33A20,20,0,0,1,37.15,43c-1.3.19-1.2-1.54-.9-2.41a3.5,3.5,0,0,1,2.81-2.47,2.81,2.81,0,0,1,2,.09,26.22,26.22,0,0,1,12-6.63,2.46,2.46,0,0,1,.94-1.94C56.84,27,63.78,27,66.25,30.4a40.59,40.59,0,0,1,8.27,1.37c.9.23,1.77.51,2.65.81a7.64,7.64,0,0,1,1.3-.69,7.31,7.31,0,0,1,3.2-.51.17.17,0,1,1,0,.34A7.36,7.36,0,0,0,76.11,34c-4.43,4.83-2,12.94,3.26,16.15a3.39,3.39,0,0,1,.84-.17c.21,0,.24.33,0,.33-3.7.51-5.31,6-6.43,9.08a20.26,20.26,0,0,0-1,7.56.25.25,0,0,1,0,.08v.06c.6,2.69,3.73,3.4,6.07,3.83a21.53,21.53,0,0,0,20.91-8.13,22.21,22.21,0,0,0,4.39-10.6s0-.07,0-.1a.17.17,0,0,1,.18-.15.16.16,0,0,1,.15.19A22.16,22.16,0,0,1,104,55.4,22.44,22.44,0,0,1,100.25,63a4,4,0,0,0,3.25,2.18c3,.26,5.47-2.11,7.15-4.37a14.09,14.09,0,0,0,.94-1.47A19,19,0,0,0,114,48.28c-.78-9-6.78-16.61-13.5-22.2a45.31,45.31,0,0,0-15.22-8.2l.1.12a.17.17,0,0,1-.26.22,33.66,33.66,0,0,0-9.82-7.7C66.28,6,53.36,5,46.55,13.69a13.51,13.51,0,0,0-2.64,5.5c.36.11.73.24,1.08.36a.17.17,0,0,1,.1.21.16.16,0,0,1-.22.1,45.27,45.27,0,0,0-18-2.42C13.44,18.42,4.8,28.27,4.47,41.56,4.46,45.76,4.55,51.5,9,53.44Z"/><path class="cls-5" d="M35.61,51a3.59,3.59,0,0,0,2.33-.37,8,8,0,0,0,2.78-2.08c.74-.83,1-2.77.56-3.35a1.69,1.69,0,0,0-.17-.33.82.82,0,0,0-.18-.6,1.12,1.12,0,0,0-.94-.33A6.9,6.9,0,0,0,36.44,45a21.52,21.52,0,0,1,1.22-2.2c.75-.43,1-1.48,1.61-2,.46-.47,1-.45,1.64-.74a1.13,1.13,0,0,0,.37-1.67,31.14,31.14,0,0,1,11.77-6.52c.2.89,1.09,1.44,2.44.77l.91-.36a10.38,10.38,0,0,1,7.54.13,2.89,2.89,0,0,0,2,.39,1.3,1.3,0,0,0,.65-1.88l-.11-.17A72.92,72.92,0,0,1,76.8,32.83c-3.91,2.84-4.43,8.94-2,13A12.15,12.15,0,0,0,79,50.34c-4.38,2-7.16,12.59-6.61,16.69-8.5,5.06-19.78,6.13-28.6,1.34C39.4,66,35.69,62,34.68,57a16.78,16.78,0,0,1,0-6.77A1.56,1.56,0,0,0,35.61,51Zm5.93,8.5a3.32,3.32,0,0,0,3.54,1,7.25,7.25,0,0,0,5-5.17c-.91-3.49-5.1-6.33-8.62-4.83A3.21,3.21,0,0,0,41.25,56,3.75,3.75,0,0,0,41.54,59.48Zm12-19.19v.13c.22,1.74,2.43,1.94,3.81,2.25a14.37,14.37,0,0,0,8.92-1.48c1.9-1,3-2.11,3.09-3.11,1-.35,2-.89,1.7-1.88a1.46,1.46,0,0,0-1.08-.84c-.23-.07-.47-.13-.67-.17a19.25,19.25,0,0,0-13.15,1.27c-1,.53-3.87,2.16-2.81,3.63A1.21,1.21,0,0,0,53.49,40.29Z"/><path class="cls-6" d="M34.85,49.42a1.21,1.21,0,0,0,.85,1.24h.12a1.7,1.7,0,0,1,0-.39A6.64,6.64,0,0,1,37,46.23a7.37,7.37,0,0,0-1.89,2.39s0,0,0,0C35,48.9,34.91,49.16,34.85,49.42Z"/><path class="cls-4" d="M36.65,40.67a2.77,2.77,0,0,0,0,1.66c.11.15.29.2.57.13.82-.33,1-1.44,1.73-2,.45-.47,1.23-.53,1.77-.75A.72.72,0,0,0,41,38.59l-.06-.05,0,0a2.51,2.51,0,0,0-1.7-.08A3.06,3.06,0,0,0,36.65,40.67Z"/><path class="cls-6" d="M37.54,45.75a1.43,1.43,0,0,1,1.49,0,1.48,1.48,0,0,1,.54.69,2.91,2.91,0,0,1,.16.5,5.48,5.48,0,0,1,.18,1.88,3.32,3.32,0,0,0,.88-3.63l0,.11c-.34-.73-1.34-.46-2.12-.18A4.13,4.13,0,0,0,37.54,45.75Z"/><path class="cls-7" d="M49.7,55.27a8.18,8.18,0,0,1-1.78,3c-1.38,1.55-4.45,2.84-6,1A3.29,3.29,0,0,1,41.8,56a.25.25,0,0,0-.11-.31,2.74,2.74,0,0,1,0-4.81C44.87,49.48,48.71,52.13,49.7,55.27Zm-5.36-.73a2.88,2.88,0,0,0-.84,2.56.17.17,0,0,0,.2.13.17.17,0,0,0,.14-.15,4.55,4.55,0,0,1,.88-2.38,8.53,8.53,0,0,1,1.83,1.15c.16.13.38-.09.24-.23a5.81,5.81,0,0,0-4.24-1.94.17.17,0,0,0,0,.33A8.93,8.93,0,0,1,44.34,54.54Z"/><path class="cls-4" d="M54.28,30c-.86.69-1.3,2.45.18,2.5a11.72,11.72,0,0,0,1.78-.61,10.72,10.72,0,0,1,7.84.22,2.65,2.65,0,0,0,1.76.38.93.93,0,0,0,.46-1.37C64.3,27.48,57.12,27.37,54.28,30Z"/><path class="cls-6" d="M57.06,37.25a6.24,6.24,0,0,1,3.37.67,4,4,0,0,1,2.2,2.58,2.31,2.31,0,0,1-.27,1.62A13.17,13.17,0,0,0,66,40.78c3.73-2,4-4.22-.65-4.68A15.57,15.57,0,0,0,57.06,37.25Z"/><path class="cls-8" d="M104,55.4A22.44,22.44,0,0,1,100.25,63a4,4,0,0,0,3.25,2.18c3,.26,5.47-2.11,7.15-4.37a14.09,14.09,0,0,0,.94-1.47,4.57,4.57,0,0,1-5.28,1.09C104.66,59.6,104,57.47,104,55.4Z"/><path class="cls-8" d="M6.51,47.91A11.13,11.13,0,0,0,7.67,51.4a4.72,4.72,0,0,0,2.78,2.28,3,3,0,0,0,3.25-1.17,27.37,27.37,0,0,0,2.06,12.42A25.15,25.15,0,0,0,38,80.41a60,60,0,0,0,17-1.67C62.05,77.2,70,75,75.65,70.52a7.61,7.61,0,0,1-3.1-3.21c-2.68,1.1-5,2.46-7.69,3.38a25.8,25.8,0,0,1-6.28,1.12c-8.38.63-17.22-2.22-22.15-9.35a16.55,16.55,0,0,1-2-13.28,1.24,1.24,0,0,1-.27,0,1.13,1.13,0,0,1-.88-.8c-.17-.87,1.1-1.93,2-2.6l.47-.33A20,20,0,0,1,37.15,43c-1.3.19-1.2-1.54-.9-2.41a3.5,3.5,0,0,1,2.81-2.47,2.81,2.81,0,0,1,2,.09,26.22,26.22,0,0,1,12-6.63,2.46,2.46,0,0,1,.94-1.94C56.84,27,63.78,27,66.25,30.4a40.59,40.59,0,0,1,8.27,1.37c.9.23,1.77.51,2.65.81a7.64,7.64,0,0,1,1.3-.69,7.31,7.31,0,0,1,3.2-.51.17.17,0,1,1,0,.34A7.36,7.36,0,0,0,76.11,34c-4.43,4.83-2,12.94,3.26,16.15a3.39,3.39,0,0,1,.84-.17c.21,0,.24.33,0,.33-3.7.51-5.31,6-6.43,9.08a20.26,20.26,0,0,0-1,7.56.25.25,0,0,1,0,.08v.06c.6,2.69,3.73,3.4,6.07,3.83a21.53,21.53,0,0,0,20.91-8.13,22.21,22.21,0,0,0,4.39-10.6,21.1,21.1,0,0,1-3.42,3.58A7.32,7.32,0,0,1,96,57.46c-2.65-.2-4.83-2.38-5.79-4.87a18.7,18.7,0,0,1-.72-7.89c-2.19,1-4.5.15-6.55-1.14a7.33,7.33,0,0,1-.2-12.27c-.64.43-3.58-.51-4.34-.67A39.39,39.39,0,0,1,74,29.37a39.62,39.62,0,0,1-8.38-4.08,41.38,41.38,0,0,1-7.12-5.76c-2-2-4.7-4.63-5.48-7.43-.14-.52-.45-1.09-1-1.16a1.49,1.49,0,0,0-.92.28,11.63,11.63,0,0,0-5.62,8.64,33.15,33.15,0,0,1,9.36,5c-1.48,3.08-4.45,5.18-7.46,6.79A39,39,0,0,1,37.72,35,60.67,60.67,0,0,1,22.1,36.78a29.67,29.67,0,0,1-15-4.35C5.22,37.18,5.49,42.89,6.51,47.91Z"/><path class="cls-3" d="M10.36,24.53c-5.25,5.79-7,14-6.13,21.64.32,3,1.57,6.47,4.65,7.62a5.07,5.07,0,0,0,3.37.2c0-.13.09-.25.14-.38l0-.06A4.65,4.65,0,0,1,9,53.44C4.55,51.5,4.46,45.76,4.47,41.56c.33-13.29,9-23.14,22.41-24.12a45.27,45.27,0,0,1,18,2.42.16.16,0,0,0,.22-.1.17.17,0,0,0-.1-.21c-.35-.12-.72-.25-1.08-.36a.25.25,0,0,1,0,.07.17.17,0,0,1-.2.13.16.16,0,0,1-.13-.2l0-.11C32.56,15.59,18.66,15.42,10.36,24.53Z"/><path class="cls-3" d="M12.25,54A10.18,10.18,0,0,0,12,58.83a28.51,28.51,0,0,0,5.92,13.8c.2.06.39.11.57.18a31.09,31.09,0,0,1-6-14,10.18,10.18,0,0,1,.24-4.94Z"/><path class="cls-3" d="M12.39,53.61c-.05.13-.1.25-.14.38l.43-.16a.32.32,0,0,1,0-.09.16.16,0,0,0-.2-.21h0l-.05,0Z"/><path class="cls-3" d="M12.44,53.55l.05,0Z"/><path class="cls-3" d="M12.51,53.53a.16.16,0,0,1,.2.21.32.32,0,0,0,0,.09,3.78,3.78,0,0,0,.75-.44.15.15,0,0,0,0-.23.16.16,0,0,0-.23,0A3.43,3.43,0,0,1,12.51,53.53Z"/><path class="cls-3" d="M17.92,72.63l.31.39c.13.17.4,0,.27-.2h0C18.31,72.74,18.12,72.69,17.92,72.63Z"/><path class="cls-3" d="M35.34,45.75c-.91.67-2.18,1.73-2,2.6a1.13,1.13,0,0,0,.88.8,1.24,1.24,0,0,0,.27,0,21,21,0,0,1,1.33-3.76Z"/><path class="cls-3" d="M34.48,49.18a16.55,16.55,0,0,0,2,13.28C43.24,72.31,57,73.91,67.7,69.74c.08-.13.15-.28.22-.41.25-.18.31-.07.23.24a28,28,0,0,0,4.3-2.18.71.71,0,0,1,0-.17,1.08,1.08,0,0,1,0-.19c-8.5,5.06-19.78,6.13-28.6,1.34C39.4,66,35.69,62,34.68,57a16.78,16.78,0,0,1,0-6.77,1.47,1.47,0,0,1-.15-1.08Z"/><path class="cls-3" d="M34.48,49.18h0a5,5,0,0,1,1-2.14,19.38,19.38,0,0,1,.87-2l-.51.33-.12.09h0A21,21,0,0,0,34.48,49.18Z"/><path class="cls-3" d="M34.52,49.19a1.47,1.47,0,0,0,.15,1.08c0-.29.11-.57.18-.85a2.34,2.34,0,0,1,.19-.77s0,0,0,0c.08-.29.16-.57.26-.85-.1.14-.19.29-.28.43a2.66,2.66,0,0,0-.35,1Z"/><path class="cls-3" d="M34.52,49.19h.17a2.66,2.66,0,0,1,.35-1c.09-.14.18-.29.28-.43s.16-.49.25-.72A5,5,0,0,0,34.52,49.19Z"/><path class="cls-3" d="M34.85,49.42c-.07.28-.13.56-.18.85a1.56,1.56,0,0,0,.94.71,3.59,3.59,0,0,0,2.33-.37,8,8,0,0,0,2.78-2.08c.74-.83,1-2.77.56-3.35a1.69,1.69,0,0,0-.17-.33,1.14,1.14,0,0,1-.07.32,1.14,1.14,0,0,0-1.23-.6,6.72,6.72,0,0,0-4.49,3.2c-.1.28-.18.56-.26.85A7.37,7.37,0,0,1,37,46.23l0,0,.05-.07a1.82,1.82,0,0,1,.52-.39,4.13,4.13,0,0,1,1.16-.65c.78-.28,1.78-.55,2.12.18l0-.11a3.32,3.32,0,0,1-.88,3.63,2.91,2.91,0,0,1,0,.31,8.71,8.71,0,0,1-1.8,1.23,3.86,3.86,0,0,1-2.2.52,1.05,1.05,0,0,1,0-.19H35.7A1.21,1.21,0,0,1,34.85,49.42Z"/><path class="cls-3" d="M35,48.65a2.34,2.34,0,0,0-.19.77C34.91,49.16,35,48.9,35,48.65Z"/><path class="cls-3" d="M35.57,47.05c-.09.23-.17.47-.25.72a6.72,6.72,0,0,1,4.49-3.2,1.14,1.14,0,0,1,1.23.6,1.14,1.14,0,0,0,.07-.32c-1.08-1.5-3.94.39-4.85,1.41A6.29,6.29,0,0,0,35.57,47.05Z"/><path class="cls-3" d="M35.8,50.28a1.7,1.7,0,0,0,0,.39c1.37.19,2.77-.78,3.8-1.62a1.37,1.37,0,0,0,.29-.25,5.48,5.48,0,0,0-.18-1.88,2.91,2.91,0,0,0-.16-.5,1.48,1.48,0,0,0-.54-.69,1.43,1.43,0,0,0-1.49,0c-.19.14-.38.29-.57.46l0,0A6.64,6.64,0,0,0,35.8,50.28Z"/><path class="cls-3" d="M35.81,45.42l.12-.09.51-.33a21.52,21.52,0,0,1,1.22-2.2,2.52,2.52,0,0,1-.33.14l-.18,0A20,20,0,0,0,35.81,45.42Z"/><path class="cls-3" d="M35.82,50.67a1.05,1.05,0,0,0,0,.19,3.86,3.86,0,0,0,2.2-.52,8.71,8.71,0,0,0,1.8-1.23,2.91,2.91,0,0,0,0-.31,1.37,1.37,0,0,1-.29.25C38.59,49.89,37.19,50.86,35.82,50.67Z"/><path class="cls-3" d="M35.57,47.05a6.29,6.29,0,0,1,.69-.79c.91-1,3.77-2.91,4.85-1.41a.82.82,0,0,0-.18-.6,1.12,1.12,0,0,0-.94-.33A6.9,6.9,0,0,0,36.44,45,19.38,19.38,0,0,0,35.57,47.05Z"/><path class="cls-3" d="M36.25,40.56c-.3.87-.4,2.6.9,2.41a4.53,4.53,0,0,1,.3-.46c.1-.19.4,0,.28.19l-.07.1c.75-.43,1-1.48,1.61-2,.46-.47,1-.45,1.64-.74a1.13,1.13,0,0,0,.37-1.67l-.15.14a.16.16,0,0,1-.18,0,.72.72,0,0,1-.24,1.11c-.54.22-1.32.28-1.77.75-.74.57-.91,1.68-1.73,2-.28.07-.46,0-.57-.13a2.77,2.77,0,0,1,0-1.66,3.06,3.06,0,0,1,2.49-2.25,2.51,2.51,0,0,1,1.7.08l0,0a.15.15,0,0,1,0-.23l.13-.13a2.81,2.81,0,0,0-2-.09A3.5,3.5,0,0,0,36.25,40.56Z"/><path class="cls-3" d="M37,46.14l-.05.07c.19-.17.38-.32.57-.46A1.82,1.82,0,0,0,37,46.14Z"/><path class="cls-3" d="M37.45,42.51a4.53,4.53,0,0,0-.3.46l.18,0a2.52,2.52,0,0,0,.33-.14l.07-.1C37.85,42.53,37.55,42.32,37.45,42.51Z"/><path class="cls-3" d="M40.89,38.31a.15.15,0,0,0,0,.23l.06.05a.16.16,0,0,0,.18,0l.15-.14a1.07,1.07,0,0,0-.25-.22h0Z"/><path class="cls-3" d="M41,38.18h0a1.07,1.07,0,0,1,.25.22,31.14,31.14,0,0,1,11.77-6.52,1.28,1.28,0,0,1-.06-.34A26.22,26.22,0,0,0,41,38.18Z"/><path class="cls-3" d="M50,55.27a7.25,7.25,0,0,1-5,5.17,3.32,3.32,0,0,1-3.54-1,3.75,3.75,0,0,1-.29-3.5l.19.13-.11-.32a1.54,1.54,0,0,0-.08.19,3.21,3.21,0,0,1,.17-5.54C44.94,48.94,49.13,51.78,50,55.27ZM41.8,56a3.29,3.29,0,0,0,.14,3.22c1.53,1.88,4.6.59,6-1a8.18,8.18,0,0,0,1.78-3c-1-3.14-4.83-5.79-8.06-4.41a2.74,2.74,0,0,0,0,4.81A.25.25,0,0,1,41.8,56Z"/><path class="cls-3" d="M41.33,55.79a1.54,1.54,0,0,0-.08.19l.19.13Z"/><path class="cls-3" d="M42.55,53.68a.17.17,0,0,0,0,.33,8.93,8.93,0,0,1,1.81.53,1.72,1.72,0,0,1,.28-.25c.15-.12.36.1.23.25l-.13.16a8.53,8.53,0,0,1,1.83,1.15c.16.13.38-.09.24-.23A5.81,5.81,0,0,0,42.55,53.68Z"/><path class="cls-3" d="M44.34,54.54a2.88,2.88,0,0,0-.84,2.56.17.17,0,0,0,.2.13.17.17,0,0,0,.14-.15,4.55,4.55,0,0,1,.88-2.38A3.08,3.08,0,0,0,44.34,54.54Z"/><path class="cls-3" d="M43.56,19.19a.16.16,0,0,0,.13.2.17.17,0,0,0,.2-.13.25.25,0,0,0,0-.07l-.32-.11Z"/><path class="cls-3" d="M43.59,19.08l.32.11a13.51,13.51,0,0,1,2.64-5.5C53.36,5,66.28,6,75.27,10.52a33.66,33.66,0,0,1,9.82,7.7.17.17,0,0,0,.26-.22l-.1-.12-.42-.13a.16.16,0,0,1-.11-.2.16.16,0,0,1,.13-.13A32.09,32.09,0,0,0,63.3,6.71C57,6,50.15,8.3,46.21,13.43A14.12,14.12,0,0,0,43.59,19.08Z"/><path class="cls-3" d="M44.62,54.29a1.72,1.72,0,0,0-.28.25,3.08,3.08,0,0,1,.38.16l.13-.16C45,54.39,44.77,54.17,44.62,54.29Z"/><path class="cls-3" d="M66.25,30.4h0a.17.17,0,0,0,0,.33l.3,0,.11.17A1.3,1.3,0,0,1,66,32.82a2.89,2.89,0,0,1-2-.39,10.38,10.38,0,0,0-7.54-.13l-.91.36c-1.35.67-2.24.12-2.44-.77l.24-.07a.17.17,0,0,0-.09-.33l-.21.06a2.46,2.46,0,0,1,.94-1.94C56.84,27,63.78,27,66.25,30.4Zm-10,1.47a10.72,10.72,0,0,1,7.84.22,2.65,2.65,0,0,0,1.76.38.93.93,0,0,0,.46-1.37c-2-3.62-9.18-3.73-12-1.12-.86.69-1.3,2.45.18,2.5A11.72,11.72,0,0,0,56.24,31.87Z"/><path class="cls-3" d="M53.2,31.49l-.21.06a1.28,1.28,0,0,0,.06.34l.24-.07A.17.17,0,0,0,53.2,31.49Z"/><path class="cls-3" d="M56.11,36.46c-1,.53-3.87,2.16-2.81,3.63a1.21,1.21,0,0,0,.19.2c-.05-1.68,1.71-2.53,3-3.19a16,16,0,0,1,8.94-1.47c2.83.23,4.07,1.23,3.91,2.45,1-.35,2-.89,1.7-1.88a1.46,1.46,0,0,0-1.08-.84c-.23-.07-.47-.13-.67-.17A19.25,19.25,0,0,0,56.11,36.46Z"/><path class="cls-3" d="M56.46,37.1c-1.26.66-3,1.51-3,3.19l.17.11a2,2,0,0,1,.16-.95,3.84,3.84,0,0,1,1.69-1.62l.52-.29.38-.2h0a15.82,15.82,0,0,1,5.16-1.52c1.34-.16,8.06-.26,7.48,2.35l.25-.09c.16-1.22-1.08-2.22-3.91-2.45A16,16,0,0,0,56.46,37.1Z"/><path class="cls-3" d="M53.49,40.29v.13c.22,1.74,2.43,1.94,3.81,2.25a14.37,14.37,0,0,0,8.92-1.48c1.9-1,3-2.11,3.09-3.11l-.25.09c.58-2.61-6.14-2.51-7.48-2.35a15.82,15.82,0,0,0-5.16,1.52c.21,0,.43-.07.64-.09a15.57,15.57,0,0,1,8.29-1.15c4.65.46,4.38,2.69.65,4.68a13.17,13.17,0,0,1-3.64,1.34l-.16.26a14,14,0,0,1-6.66-.3,2.83,2.83,0,0,1-1.67-1,1.39,1.39,0,0,1-.21-.65Z"/><path class="cls-3" d="M53.82,39.45a2,2,0,0,0-.16.95,1.39,1.39,0,0,0,.21.65,2.83,2.83,0,0,0,1.67,1,14,14,0,0,0,6.66.3l.16-.26a13.57,13.57,0,0,1-5,.17c-1.23-.27-3.31-.39-3.53-1.91s1.61-2.31,2.8-2.93l.43-.2c-.21,0-.43,0-.64.09h0l-.38.2-.52.29A3.84,3.84,0,0,0,53.82,39.45Z"/><path class="cls-3" d="M56.63,37.45c-1.19.62-2.9,1.37-2.8,2.93s2.3,1.64,3.53,1.91a13.57,13.57,0,0,0,5-.17,2.31,2.31,0,0,0,.27-1.62,4,4,0,0,0-2.2-2.58,6.24,6.24,0,0,0-3.37-.67Z"/><path class="cls-3" d="M56,37.54l.38-.2Z"/><path class="cls-3" d="M66.21,30.4a.17.17,0,0,0,0,.33l.3,0a2.35,2.35,0,0,0-.24-.37Z"/><path class="cls-3" d="M66.25,30.4a2.35,2.35,0,0,1,.24.37A72.92,72.92,0,0,1,76.8,32.83a1.51,1.51,0,0,1,.37-.25c-.88-.3-1.75-.58-2.65-.81A40.59,40.59,0,0,0,66.25,30.4Z"/><path class="cls-3" d="M67.92,69.33c-.07.13-.14.28-.22.41l.45-.17C68.23,69.26,68.17,69.15,67.92,69.33Z"/><path class="cls-3" d="M79,50.34c-4.38,2-7.16,12.59-6.61,16.69l.22-.13a.19.19,0,0,1,.24.06,0,0,0,0,0,0,0,20.26,20.26,0,0,1,1-7.56c1.12-3.06,2.73-8.57,6.43-9.08.22,0,.19-.35,0-.33a3.39,3.39,0,0,0-.84.17s0,0,0,0a.17.17,0,0,1-.18.29Z"/><path class="cls-3" d="M72.38,67a1.08,1.08,0,0,0,0,.19.71.71,0,0,0,0,.17h0l.33-.2a.14.14,0,0,0,.08-.12.22.22,0,0,1,0-.08,0,0,0,0,1,0,0,.19.19,0,0,0-.24-.06Z"/><path class="cls-3" d="M72.78,67.19l-.33.2c.61,2.39,3.08,3.34,5.34,3.84l.12-.2a.17.17,0,0,1,.3.15l-.06.13.7.13a22.18,22.18,0,0,0,18.6-5.34A21.77,21.77,0,0,0,100,63.32a2.32,2.32,0,0,1-.16-.36.17.17,0,0,1,0-.12h0A21.53,21.53,0,0,1,78.93,71c-2.34-.43-5.47-1.14-6.07-3.83v-.06A.14.14,0,0,1,72.78,67.19Z"/><path class="cls-3" d="M72.85,67a.22.22,0,0,0,0,.08A.25.25,0,0,0,72.85,67Z"/><path class="cls-3" d="M76.8,32.83c-3.91,2.84-4.43,8.94-2,13A12.15,12.15,0,0,0,79,50.34a3,3,0,0,1,.38-.15C74.11,47,71.68,38.87,76.11,34a7.36,7.36,0,0,1,5.54-2.32.17.17,0,1,0,0-.34,7.31,7.31,0,0,0-3.2.51,7.64,7.64,0,0,0-1.3.69h0a.17.17,0,0,1,.11.21.16.16,0,0,1-.21.11Z"/><path class="cls-3" d="M77.17,32.58a1.51,1.51,0,0,0-.37.25l.31.08a.16.16,0,0,0,.21-.11.17.17,0,0,0-.11-.21Z"/><path class="cls-3" d="M77.91,71l-.12.2.36.08.06-.13A.17.17,0,0,0,77.91,71Z"/><path class="cls-3" d="M79,50.34l.22.15a.17.17,0,0,0,.18-.29s0,0,0,0A3,3,0,0,0,79,50.34Z"/><path class="cls-3" d="M84.72,17.55a.16.16,0,0,0,.11.2l.42.13-.4-.46A.16.16,0,0,0,84.72,17.55Z"/><path class="cls-3" d="M84.85,17.42l.4.46a45.31,45.31,0,0,1,15.22,8.2c6.72,5.59,12.72,13.21,13.5,22.2a18.83,18.83,0,0,1-3.32,12.55c-1.68,2.26-4.15,4.63-7.15,4.37A4,4,0,0,1,100.25,63l-.23.3a4.38,4.38,0,0,0,3.44,2.25c3.19.31,5.77-2.12,7.53-4.48a19.32,19.32,0,0,0,3.46-12.86c-.75-9.14-6.84-16.86-13.69-22.51a44.56,44.56,0,0,0-15.84-8.29Z"/><path class="cls-3" d="M99.84,62.83h0a.17.17,0,0,1,.32,0,1.47,1.47,0,0,0,.07.17,22.19,22.19,0,0,0,4.33-10.85.16.16,0,0,0-.15-.19.17.17,0,0,0-.18.15A22.36,22.36,0,0,1,99.84,62.83Z"/><path class="cls-3" d="M99.86,62.84a.17.17,0,0,0,0,.12,2.32,2.32,0,0,0,.16.36l.23-.3a1.47,1.47,0,0,1-.07-.17A.17.17,0,0,0,99.86,62.84Z"/><path class="cls-6" d="M59.29,39.23a1.4,1.4,0,0,0-.66-.61,3.44,3.44,0,0,0-2.22-.16,2.76,2.76,0,0,0-1.49.7c-1,1,.2,2.08,1.39,1.86C57.17,40.86,59.85,40.42,59.29,39.23Z"/><path class="cls-6" d="M38.49,47.55a1.13,1.13,0,0,0-.28-.51.83.83,0,0,0-.93-.13,1.18,1.18,0,0,0-.62.58c-.41.86.09,1.71.58,1.53S38.72,48.53,38.49,47.55Z"/><path class="cls-3" d="M16,69.68c2.57,5,7.56,8.19,12.76,9.85,13.35,3.91,27.48-.18,40.08-4.9a32.71,32.71,0,0,0,5.5-2.8A8.3,8.3,0,0,0,76,70.52a.16.16,0,0,0,0-.23.17.17,0,0,0-.25,0c-2,1.83-4.59,2.88-7,3.93C56.4,78.81,41.79,82.91,28.88,79.1c-5.09-1.6-10-4.76-12.59-9.56a.18.18,0,0,0-.24-.09.18.18,0,0,0-.07.23Z"/><path class="cls-9" d="M45.44,53.66a5.35,5.35,0,0,1-1.31-1.06,1,1,0,0,1-.33-.66c0-1.52,2.81-.53,3.36,0C49,53.61,47.18,54.69,45.44,53.66Z"/><path class="cls-10" d="M63.8,44.47a4.25,4.25,0,0,0-2.37,1,3.06,3.06,0,0,0-.6,3.38,3.56,3.56,0,0,0,2.88,2A4.33,4.33,0,0,0,67,49.6C69.67,47,66.76,44,63.8,44.47Z"/></g></g></g></svg>