<?xml version="1.0" encoding="utf-8"?>
<!-- Generator: Adobe Illustrator 24.0.0, SVG Export Plug-In . SVG Version: 6.00 Build 0)  -->
<svg version="1.1" id="Layer_1" xmlns="http://www.w3.org/2000/svg" xmlns:xlink="http://www.w3.org/1999/xlink" x="0px" y="0px"
	 viewBox="0 0 742.4 712.6" style="enable-background:new 0 0 742.4 712.6;" xml:space="preserve">
<style type="text/css">
	.st0{fill:#3F3D56;}
	.st1{fill:#FFFFFF;}
	.st2{fill:url(#fc31cc31-f989-45cc-bd1e-521a0ee1871b_1_);}
	.st3{fill:#E6E6E6;}
	.st4{fill:#F2F2F2;}
	.st5{fill:url(#bfaee8a8-2192-45bf-83cb-a2f223d41a02_1_);}
	.st6{fill:url(#fa3a3ce2-c232-40ee-81b4-25b83d5b931c_1_);}
	.st7{fill:url(#abc19202-5605-459b-9c25-b430addb8839_1_);}
	.st8{fill:#9F616A;}
	.st9{fill:#2F2E41;}
	.st10{fill:#A0616A;}
	.st11{fill:#E5E5E5;}
	.st12{opacity:0.1;enable-background:new    ;}
</style>
<path id="aa38b2e7-2ea9-4025-adcf-83f87c0cfc4a-236" class="st0" d="M624.8,168.9h-3.9v-107C620.9,27.7,593.2,0,559,0H332.4
	c-34.2,0-61.9,27.7-61.9,61.9c0,0,0,0,0,0v586.9c0,34.2,27.7,61.9,61.9,61.9H559c34.2,0,61.9-27.7,61.9-61.9V245h3.9L624.8,168.9z"
	/>
<path id="f27259c2-0089-4137-bfd8-cb22dff914f1-237" class="st1" d="M608.2,57.8v595.2c0,25.9-21,46.9-46.9,47H330
	c-25.9,0-47-21-47-47V57.8c0-25.9,21-47,47-47H358c-4.6,11.4,0.8,24.5,12.3,29.1c2.7,1.1,5.5,1.6,8.4,1.6h131.9
	c12.3,0,22.3-10,22.3-22.4c0-2.9-0.6-5.7-1.6-8.4h30.1C587.2,10.8,608.2,31.8,608.2,57.8L608.2,57.8z"/>
<linearGradient id="fc31cc31-f989-45cc-bd1e-521a0ee1871b_1_" gradientUnits="userSpaceOnUse" x1="349" y1="200.129" x2="542.13" y2="200.129">
	<stop  offset="0" style="stop-color:#4B2D87"/>
	<stop  offset="0.3593" style="stop-color:#C21E5C"/>
	<stop  offset="0.6859" style="stop-color:#F37021"/>
	<stop  offset="1" style="stop-color:#FCB316"/>
</linearGradient>
<circle id="fc31cc31-f989-45cc-bd1e-521a0ee1871b" class="st2" cx="445.6" cy="200.1" r="96.6"/>
<path id="a573942c-3bf3-4c43-b474-689725a927f7-238" class="st3" d="M550.9,400.6H345.3c-2.1,0-3.8-1.7-3.8-3.8v-51
	c0-2.1,1.7-3.8,3.8-3.8h205.5c2.1,0,3.8,1.7,3.8,3.8v51C554.7,398.9,553,400.6,550.9,400.6L550.9,400.6z M345.3,343.5
	c-1.3,0-2.3,1-2.3,2.3v51c0,1.3,1,2.3,2.3,2.3h205.5c1.3,0,2.3-1,2.3-2.3v-51c0-1.3-1-2.3-2.3-2.3H345.3z"/>
<path id="fb5feb1e-1fe2-48fa-806d-0a2b51d12b49-239" class="st3" d="M408.9,360.4c-1.5,0-2.7,1.2-2.7,2.7c0,1.5,1.2,2.7,2.7,2.7
	h125.6c1.5,0.1,2.7-1.1,2.8-2.6s-1.1-2.7-2.6-2.8l0,0c0,0-0.1,0-0.1,0L408.9,360.4L408.9,360.4z"/>
<path id="bcb9932f-0864-4b7e-b0ed-f7254bb9b8bf-240" class="st3" d="M408.9,376.3c-1.5,0-2.7,1.2-2.7,2.7c0,1.5,1.2,2.7,2.7,2.7
	h125.6c1.5,0.1,2.7-1.1,2.8-2.6s-1.1-2.7-2.6-2.8c0,0-0.1,0-0.1,0L408.9,376.3L408.9,376.3z"/>
<path id="f88e2a8b-becc-4da9-bd36-af011daaaaf2-241" class="st3" d="M550.9,485.6H345.3c-2.1,0-3.8-1.7-3.8-3.8v-51
	c0-2.1,1.7-3.8,3.8-3.8h205.5c2.1,0,3.8,1.7,3.8,3.8v51C554.7,483.9,553,485.6,550.9,485.6z M345.3,428.5c-1.3,0-2.3,1-2.3,2.3v51
	c0,1.3,1,2.3,2.3,2.3h205.5c1.3,0,2.3-1,2.3-2.3v-51c0-1.3-1-2.3-2.3-2.3H345.3z"/>
<path id="e192d34f-2ccc-4f79-b47a-46430e4d87f6-242" class="st3" d="M408.9,445.6c-1.5,0-2.7,1.2-2.7,2.7c0,1.5,1.2,2.7,2.7,2.7
	h125.6c1.5,0,2.7-1.2,2.6-2.7c0-1.4-1.1-2.6-2.6-2.6L408.9,445.6L408.9,445.6z"/>
<path id="b230677c-48cc-4ee6-87d6-a753204ffe47-243" class="st3" d="M408.9,461.6c-1.5,0-2.7,1.2-2.7,2.7c0,1.5,1.2,2.7,2.7,2.7
	h125.6c1.5,0,2.7-1.2,2.6-2.7c0-1.4-1.1-2.6-2.6-2.6L408.9,461.6L408.9,461.6z"/>
<path id="b88a2a79-0ae3-4fd9-9894-02e0db9a2271-244" class="st3" d="M550.9,570.8H345.3c-2.1,0-3.8-1.7-3.8-3.8v-51
	c0-2.1,1.7-3.8,3.8-3.8h205.5c2.1,0,3.8,1.7,3.8,3.8v51C554.7,569.1,553,570.8,550.9,570.8L550.9,570.8z M345.3,513.8
	c-1.3,0-2.3,1-2.3,2.3v51c0,1.3,1,2.3,2.3,2.3h205.5c1.3,0,2.3-1,2.3-2.3v-51c0-1.3-1-2.3-2.3-2.3H345.3z"/>
<path id="aa2394a9-8b56-4a12-a2cd-a583e6ea12eb-245" class="st3" d="M408.9,530.9c-1.5,0-2.7,1.2-2.7,2.7s1.2,2.7,2.7,2.7
	c0,0,0,0,0,0h125.6c1.5,0.1,2.7-1.1,2.8-2.6c0.1-1.5-1.1-2.7-2.6-2.8l0,0c0,0-0.1,0-0.1,0L408.9,530.9L408.9,530.9z"/>
<path id="bc352cb2-8959-4b51-bd18-df6817a9a47e-246" class="st3" d="M408.9,546.9c-1.5,0-2.7,1.2-2.7,2.7c0,1.5,1.2,2.7,2.7,2.7
	h125.6c1.5,0.1,2.7-1.1,2.8-2.6c0.1-1.5-1.1-2.7-2.6-2.8l0,0c0,0-0.1,0-0.1,0L408.9,546.9L408.9,546.9z"/>
<path id="b30ee82f-5b3a-4aa4-9db7-ead828191937-247" class="st3" d="M740.5,712.6H1.9c-1.1,0-1.9-0.5-1.9-1s0.9-1,1.9-1h738.5
	c1.1,0,1.9,0.5,1.9,1S741.5,712.6,740.5,712.6z"/>
<g id="f24cf2fd-107c-4150-a0f1-6f6b12d88bf3">
	<path id="a2b576eb-bb95-4480-aa60-cd8aa023fe61-248" class="st3" d="M709.2,671.8c-6.4,2.3-13.5,1-18.8-3.3
		c-6.6-5.5-8.7-14.6-10.3-23.1l-5-24.9l10.4,7.2c7.5,5.2,15.1,10.5,20.3,17.9s7.4,17.7,3.3,25.7"/>
	<path id="fe1c5433-44e0-47a6-8430-329cbd7c4dea-249" class="st4" d="M707.6,703.7c1.3-9.5,2.7-19.2,1.7-28.8
		c-0.8-8.6-3.4-16.9-8.7-23.8c-2.8-3.6-6.3-6.7-10.2-9.2c-1-0.6-1.9,1-0.9,1.6c6.7,4.3,11.9,10.5,14.9,18c3.2,8.2,3.8,17.2,3.2,26
		c-0.3,5.3-1.1,10.6-1.8,15.8c-0.1,0.5,0.2,1,0.7,1.1C706.9,704.5,707.5,704.2,707.6,703.7L707.6,703.7z"/>
	<path id="f0043cfc-c9b9-4981-8afd-8c13c1b6f93f-250" class="st3" d="M698.2,688.4c-2.8,4.2-7.5,6.6-12.5,6.4
		c-6.3-0.3-11.6-4.7-16.3-8.9l-14-12.4l9.3-0.4c6.7-0.3,13.5-0.6,19.9,1.4c6.4,2.1,12.2,7,13.4,13.6"/>
	<path id="b883c521-5e9e-4a38-b47c-4f8b0cd8c6cd-251" class="st4" d="M711.3,709.2c-6.3-11.2-13.6-23.6-26.7-27.5
		c-3.6-1.1-7.4-1.5-11.2-1.2c-1.2,0.1-0.9,1.9,0.3,1.8c6.3-0.5,12.7,1.1,17.9,4.7c5.1,3.4,9,8.2,12.3,13.3c2,3.1,3.9,6.3,5.7,9.6
		C710.2,711,711.9,710.3,711.3,709.2z"/>
</g>
<g id="b241f6a5-c54d-499c-8ecd-4235a19d143f">
	
		<linearGradient id="bfaee8a8-2192-45bf-83cb-a2f223d41a02_1_" gradientUnits="userSpaceOnUse" x1="355" y1="370.985" x2="386.972" y2="370.985">
		<stop  offset="0" style="stop-color:#4B2D87"/>
		<stop  offset="0.3593" style="stop-color:#C21E5C"/>
		<stop  offset="0.6859" style="stop-color:#F37021"/>
		<stop  offset="1" style="stop-color:#FCB316"/>
	</linearGradient>
	<circle id="bfaee8a8-2192-45bf-83cb-a2f223d41a02" class="st5" cx="371" cy="371" r="16"/>
	<path id="ae47602b-fb54-4e88-955d-49b260f35f7f-252" class="st1" d="M363.3,368c-0.2,0-0.3,1.2-0.3,2.7s0.1,2.7,0.3,2.7h15.7
		c0.2,0,0.3-1.1,0.3-2.6c0.1-0.9,0-1.8-0.3-2.7L363.3,368L363.3,368z"/>
</g>
<g id="a1e1e52b-75f8-4aa9-8279-faf451e6aae1">
	
		<linearGradient id="fa3a3ce2-c232-40ee-81b4-25b83d5b931c_1_" gradientUnits="userSpaceOnUse" x1="355" y1="456.278" x2="386.972" y2="456.278">
		<stop  offset="0" style="stop-color:#4B2D87"/>
		<stop  offset="0.3593" style="stop-color:#C21E5C"/>
		<stop  offset="0.6859" style="stop-color:#F37021"/>
		<stop  offset="1" style="stop-color:#FCB316"/>
	</linearGradient>
	<circle id="fa3a3ce2-c232-40ee-81b4-25b83d5b931c" class="st6" cx="371" cy="456.3" r="16"/>
	<path id="aaaffa69-7c16-47ec-b12d-87139789d2df-253" class="st1" d="M363.3,453.3c-0.2,0-0.3,1.2-0.3,2.7s0.1,2.7,0.3,2.7h15.7
		c0.2,0,0.3-1.1,0.3-2.6c0.1-0.9,0-1.8-0.3-2.7L363.3,453.3L363.3,453.3z"/>
</g>
<g id="fd2b54c2-3dec-4fb6-9f72-e6c667a136b8">
	
		<linearGradient id="abc19202-5605-459b-9c25-b430addb8839_1_" gradientUnits="userSpaceOnUse" x1="355" y1="541.536" x2="386.972" y2="541.536">
		<stop  offset="0" style="stop-color:#4B2D87"/>
		<stop  offset="0.3593" style="stop-color:#C21E5C"/>
		<stop  offset="0.6859" style="stop-color:#F37021"/>
		<stop  offset="1" style="stop-color:#FCB316"/>
	</linearGradient>
	<circle id="abc19202-5605-459b-9c25-b430addb8839" class="st7" cx="371" cy="541.5" r="16"/>
	<path id="f69fbb38-8754-494b-94fa-96f6df4fd0e7-254" class="st1" d="M363.3,538.5c-0.2,0-0.3,1.2-0.3,2.7s0.1,2.7,0.3,2.7h15.7
		c0.2,0,0.3-1.1,0.3-2.6c0.1-0.9,0-1.8-0.3-2.7L363.3,538.5L363.3,538.5z"/>
</g>
<rect x="441.6" y="166.6" transform="matrix(0.7071 -0.7071 0.7071 0.7071 -11.0096 373.6784)" class="st1" width="8" height="67"/>
<rect x="412.1" y="196.1" transform="matrix(0.7071 -0.7071 0.7071 0.7071 -11.0096 373.6784)" class="st1" width="67" height="8"/>
<path class="st8" d="M90.3,456.1c5.2-1.9,8-7.6,6.1-12.8c-0.2-0.6-0.4-1.1-0.7-1.6l23.6-26.9l-18.4-2.5l-19.6,25.9
	c-4.7,3.1-5.9,9.3-2.9,14C81,456.1,85.9,457.7,90.3,456.1z"/>
<polygon class="st8" points="118.7,694.2 102.2,694.2 94.4,630.8 118.7,630.8 "/>
<path class="st9" d="M122.9,710.1l-53,0v-0.7c0-11.4,9.2-20.6,20.6-20.6h0l32.4,0L122.9,710.1z"/>
<polygon class="st8" points="204.7,680.5 189,685.3 162.8,627.1 185.9,619.9 "/>
<path class="st9" d="M213.4,694.4l-50.6,15.7l-0.2-0.6c-3.4-10.9,2.7-22.4,13.6-25.8l0,0l30.9-9.6L213.4,694.4z"/>
<path id="ae9bdfa9-f7e0-4b2f-8168-ca8868d01318-255" class="st3" d="M106.1,401.9l-24.3,27.9l19.1,1.7L106.1,401.9z"/>
<path id="b88343d2-9c47-4183-8a8a-427a73d8d9be-256" class="st9" d="M96.6,437.9c0,0-8.5,4.2-9.5,23.3s3.2,68.7,3.2,68.7
	s-4.2,22.2,0,42.3s-4.2,93,1.1,93s32.8,3.2,33.8,0s2.1-50.7,2.1-50.7s8.5-24.3,0-39.1c0,0,29.5,51.5,48.6,90.9
	c4.2,8.6,35.9-1.1,30.6-10.6s-18-52.8-18-52.8s-9.5-31.7-26.4-45.4l8.5-67.6c0,0,18-45.4,7.4-51.8S96.6,437.9,96.6,437.9z"/>
<circle id="fdc24b21-a9e1-47f2-b2e4-7458730b7c21" class="st10" cx="128.3" cy="238.1" r="27.5"/>
<path id="ac268c91-41f4-49c7-bce6-773e5eb69fa2-257" class="st11" d="M158.9,267.7l-34.2,20.1c0,0-13.1,7.4-18,20.1
	c-5.2,13.5-2.2,32.6,0,37c4.2,8.5-1.8,29.6-1.8,29.6l-5.3,48.6c0,0-19,18-4.2,20.1s41.2-1.1,57.1,0s33.8,3.2,28.5-7.4
	s-11.6-18-5.3-39.1c5-16.5,4.7-78.4,4.4-104.5c-0.1-7.3-4-14-10.2-17.8L158.9,267.7z"/>
<path id="aebed2c8-94ca-417e-8b11-27e17cbf3024-258" class="st12" d="M143.6,301l3.2,64.5l-30.7,62.2l-5.2-2l31.7-58.1L143.6,301z"
	/>
<path id="e13ea0c4-bc86-4025-9528-1665a42d3372-259" class="st12" d="M178.5,379.2v-7.4L142.6,431L178.5,379.2z"/>
<path id="eb3190ba-6b3f-4b2b-91d1-1543e580b413-260" class="st9" d="M108.8,212.7l-4.5-1.8c0,0,9.5-10.5,22.7-9.5l-3.7-4.1
	c0,0,9.1-3.6,17.3,5.9c4.3,5,9.4,10.9,12.5,17.6h4.9l-2,4.5l7.1,4.5l-7.3-0.8c0.7,3.9,0.5,7.8-0.7,11.6l0.2,3.5
	c0,0-8.5-13.1-8.5-14.9v4.5c0,0-4.5-4.1-4.5-6.8l-2.5,3.2l-1.2-5l-15.3,5l2.5-4.1l-9.5,1.4l3.7-5c0,0-10.7,5.9-11.1,10.9
	s-5.8,11.4-5.8,11.4l-2.5-4.5C100.5,240,96.8,219.5,108.8,212.7z"/>
<path class="st8" d="M126.6,459.1c4.8-2.8,6.5-8.9,3.7-13.7c-0.3-0.5-0.6-1-1-1.5l18.4-30.6l-18.6,0.8l-14.6,29
	c-4,3.9-4.2,10.3-0.3,14.3C117.4,460.7,122.5,461.5,126.6,459.1L126.6,459.1z"/>
<path id="a62f6567-f472-4931-86f9-ff652851a370-261" class="st11" d="M168.4,281.5l7.9-1.6c0,0,23.8,17.4,16.4,52.3
	s-40.2,87.7-40.2,87.7s-7.4,9.5-9.5,11.6s-6.3,0-4.2,3.2s-3.2,5.3-3.2,5.3s-23.3,0-21.1-8.5s38-68.7,38-68.7l-5.3-56
	C147.3,306.8,143.1,279.3,168.4,281.5z"/>
</svg>
