<?xml version="1.0" encoding="utf-8"?>
<!-- Generator: Adobe Illustrator 24.0.0, SVG Export Plug-In . SVG Version: 6.00 Build 0)  -->
<svg version="1.1" id="Logo_Light_BG" xmlns="http://www.w3.org/2000/svg" xmlns:xlink="http://www.w3.org/1999/xlink" x="0px"
	 y="0px" viewBox="0 0 417 157.3" style="enable-background:new 0 0 417 157.3;" xml:space="preserve">
<style type="text/css">
	.st0{fill:url(#SVGID_1_);}
	.st1{fill:url(#SVGID_2_);}
	.st2{fill:url(#SVGID_3_);}
	.st3{fill:url(#SVGID_4_);}
	.st4{fill:url(#SVGID_5_);}
	.st5{fill:url(#SVGID_6_);}
	.st6{fill:url(#SVGID_7_);}
	.st7{fill:url(#SVGID_8_);}
	.st8{fill:url(#SVGID_9_);}
	.st9{fill:url(#SVGID_10_);}
	.st10{fill:url(#SVGID_11_);}
	.st11{fill:url(#SVGID_12_);}
	.st12{fill:url(#SVGID_13_);}
	.st13{fill:url(#SVGID_14_);}
	.st14{fill:url(#SVGID_15_);}
	.st15{fill:url(#SVGID_16_);}
	.st16{fill:url(#SVGID_17_);}
	.st17{fill:url(#SVGID_18_);}
	.st18{fill:url(#SVGID_19_);}
	.st19{fill:url(#SVGID_20_);}
	.st20{fill:url(#SVGID_21_);}
	.st21{fill:url(#SVGID_22_);}
	.st22{fill:url(#SVGID_23_);}
	.st23{fill:url(#SVGID_24_);}
</style>
<g>
	
		<linearGradient id="SVGID_1_" gradientUnits="userSpaceOnUse" x1="0" y1="721.4" x2="34.7445" y2="721.4" gradientTransform="matrix(1 0 0 1 0 -704)">
		<stop  offset="0" style="stop-color:#F37021"/>
		<stop  offset="1" style="stop-color:#FCB316"/>
	</linearGradient>
	<circle class="st0" cx="17.4" cy="17.4" r="17.4"/>
	<g>
		<g>
			
				<linearGradient id="SVGID_2_" gradientUnits="userSpaceOnUse" x1="17.35" y1="755.1051" x2="17.35" y2="853.2727" gradientTransform="matrix(1 0 0 1 0 -704)">
				<stop  offset="0" style="stop-color:#EF4581"/>
				<stop  offset="1" style="stop-color:#4B2D87"/>
			</linearGradient>
			<path class="st1" d="M28.2,64.7v18.9L6.5,71.1l0,0V55.3c0-4.1,4.4-6.6,8-4.6l8.4,4.9C26.2,57.4,28.2,60.9,28.2,64.7z"/>
			
				<linearGradient id="SVGID_3_" gradientUnits="userSpaceOnUse" x1="17.35" y1="755.1051" x2="17.35" y2="853.2727" gradientTransform="matrix(1 0 0 1 0 -704)">
				<stop  offset="0" style="stop-color:#EF4581"/>
				<stop  offset="1" style="stop-color:#4B2D87"/>
			</linearGradient>
			<path class="st2" d="M28.2,108.7v25.1l0,0L7.9,145.5c-0.9-1.6-1.4-3.4-1.4-5.3v-44L28.2,108.7z"/>
		</g>
		
			<linearGradient id="SVGID_4_" gradientUnits="userSpaceOnUse" x1="8" y1="843.3625" x2="70.3061" y2="843.3625" gradientTransform="matrix(1 0 0 1 0 -704)">
			<stop  offset="0" style="stop-color:#F06392"/>
			<stop  offset="1" style="stop-color:#C21E5C"/>
		</linearGradient>
		<path class="st3" d="M70.2,133c-0.9,1.6-2.2,2.9-3.8,3.9c0,0,0,0-0.1,0L50,146.4l-16.4,9.5c-3.3,1.9-7.3,1.9-10.6,0l-11.1-6.4
			c-1.6-0.9-3-2.3-3.9-3.9l20.3-11.7l0,0L50,121.4l0,0L70.2,133z"/>
		
			<linearGradient id="SVGID_5_" gradientUnits="userSpaceOnUse" x1="6.5" y1="806.05" x2="71.7" y2="806.05" gradientTransform="matrix(1 0 0 1 0 -704)">
			<stop  offset="0" style="stop-color:#F37021"/>
			<stop  offset="1" style="stop-color:#FCB316"/>
		</linearGradient>
		<path class="st4" d="M71.7,114.9v12.8c0,1.9-0.5,3.7-1.4,5.3L50,121.3l0,0l-21.7-12.5L6.5,96.2V71.1l0,0l21.7,12.5l0,0l0,0
			l38.1,22C69.6,107.6,71.7,111.1,71.7,114.9z"/>
	</g>
</g>
<g>
	<g>
		<g>
			
				<linearGradient id="SVGID_6_" gradientUnits="userSpaceOnUse" x1="106.2054" y1="773.7" x2="400.5893" y2="773.7" gradientTransform="matrix(1 0 0 1 0 -704)">
				<stop  offset="0" style="stop-color:#D1C3E0"/>
				<stop  offset="1" style="stop-color:#B39CCB"/>
			</linearGradient>
			<circle class="st5" cx="226.4" cy="69.7" r="6.3"/>
			
				<linearGradient id="SVGID_7_" gradientUnits="userSpaceOnUse" x1="106.2054" y1="810.85" x2="400.5893" y2="810.85" gradientTransform="matrix(1 0 0 1 0 -704)">
				<stop  offset="0" style="stop-color:#D1C3E0"/>
				<stop  offset="1" style="stop-color:#B39CCB"/>
			</linearGradient>
			<path class="st6" d="M231.4,86.5v40.7c0,1.6-1.3,2.8-2.8,2.8h-4.4c-1.6,0-2.8-1.3-2.8-2.8V86.5c0-1.6,1.3-2.8,2.8-2.8h4.4
				C230.1,83.7,231.4,84.9,231.4,86.5z"/>
		</g>
	</g>
	<g>
		<g>
			
				<linearGradient id="SVGID_8_" gradientUnits="userSpaceOnUse" x1="106.2054" y1="773.7" x2="400.5893" y2="773.7" gradientTransform="matrix(1 0 0 1 0 -704)">
				<stop  offset="0" style="stop-color:#D1C3E0"/>
				<stop  offset="1" style="stop-color:#B39CCB"/>
			</linearGradient>
			<circle class="st7" cx="159.7" cy="69.7" r="6.3"/>
			
				<linearGradient id="SVGID_9_" gradientUnits="userSpaceOnUse" x1="106.2054" y1="810.85" x2="400.5893" y2="810.85" gradientTransform="matrix(1 0 0 1 0 -704)">
				<stop  offset="0" style="stop-color:#D1C3E0"/>
				<stop  offset="1" style="stop-color:#B39CCB"/>
			</linearGradient>
			<path class="st8" d="M164.7,86.5v40.7c0,1.6-1.3,2.8-2.8,2.8h-4.4c-1.6,0-2.8-1.3-2.8-2.8V86.5c0-1.6,1.3-2.8,2.8-2.8h4.4
				C163.5,83.7,164.7,84.9,164.7,86.5z"/>
		</g>
	</g>
	<g>
		<g>
			
				<linearGradient id="SVGID_10_" gradientUnits="userSpaceOnUse" x1="106.2054" y1="773.7" x2="400.5893" y2="773.7" gradientTransform="matrix(1 0 0 1 0 -704)">
				<stop  offset="0" style="stop-color:#D1C3E0"/>
				<stop  offset="1" style="stop-color:#B39CCB"/>
			</linearGradient>
			<circle class="st9" cx="297.9" cy="69.7" r="6.3"/>
			
				<linearGradient id="SVGID_11_" gradientUnits="userSpaceOnUse" x1="106.2054" y1="810.85" x2="400.5893" y2="810.85" gradientTransform="matrix(1 0 0 1 0 -704)">
				<stop  offset="0" style="stop-color:#D1C3E0"/>
				<stop  offset="1" style="stop-color:#B39CCB"/>
			</linearGradient>
			<path class="st10" d="M302.9,86.5v40.7c0,1.6-1.3,2.8-2.8,2.8h-4.4c-1.6,0-2.8-1.3-2.8-2.8V86.5c0-1.6,1.3-2.8,2.8-2.8h4.4
				C301.6,83.7,302.9,84.9,302.9,86.5z"/>
		</g>
	</g>
	
		<linearGradient id="SVGID_12_" gradientUnits="userSpaceOnUse" x1="106.2054" y1="824.506" x2="400.5893" y2="824.506" gradientTransform="matrix(1 0 0 1 0 -704)">
		<stop  offset="0" style="stop-color:#D1C3E0"/>
		<stop  offset="1" style="stop-color:#B39CCB"/>
	</linearGradient>
	<path class="st11" d="M198.6,84.4l-24.4,14.1c-1.8,1-2.8,2.9-2.8,4.9v5c0,2,1.1,3.9,2.8,4.9l7.2,4.2l0,0l10,5.8l10,5.8v10
		c0,1-0.5,1.9-1.4,2.5l-7.2,4.2c-0.9,0.5-2,0.5-2.8,0l-5.8-3.3c-1.8-1-3.9-1-5.7,0l-2.9,1.7c-1.9,1.1-1.9,3.8,0,4.9l5.8,3.3l0,0
		l7.2,4.2c1.8,1,3.9,1,5.7,0l7.2-4.2l7.2-4.2c1.8-1,2.8-2.9,2.8-4.9V91.9c0-2-1.1-3.9-2.8-4.9l-4.4-2.5
		C202.5,83.4,200.4,83.4,198.6,84.4z M201.4,115c0,1.1-1.2,1.9-2.2,1.3l-7.8-4.5l-7.8-4.5c-1-0.6-1-2,0-2.6l7.8-4.5l0,0l7.8-4.5
		c1-0.6,2.2,0.1,2.2,1.3V115z"/>
	
		<linearGradient id="SVGID_13_" gradientUnits="userSpaceOnUse" x1="106.2054" y1="824.506" x2="400.5893" y2="824.506" gradientTransform="matrix(1 0 0 1 0 -704)">
		<stop  offset="0" style="stop-color:#D1C3E0"/>
		<stop  offset="1" style="stop-color:#B39CCB"/>
	</linearGradient>
	<path class="st12" d="M388.4,84.4L364,98.5c-1.8,1-2.8,2.9-2.8,4.9v5c0,2,1.1,3.9,2.8,4.9l7.2,4.2l0,0l10,5.8l10,5.8v10
		c0,1-0.5,1.9-1.4,2.5l-7.2,4.2c-0.9,0.5-2,0.5-2.8,0l-5.8-3.3c-1.8-1-3.9-1-5.7,0l-2.9,1.7c-1.9,1.1-1.9,3.8,0,4.9l5.8,3.3l0,0
		l7.2,4.2c1.8,1,3.9,1,5.7,0l7.2-4.2l7.2-4.2c1.8-1,2.8-2.9,2.8-4.9V91.9c0-2-1.1-3.9-2.8-4.9l-4.4-2.5
		C392.3,83.4,390.2,83.4,388.4,84.4z M391.3,115c0,1.1-1.2,1.9-2.2,1.3l-7.8-4.5l-7.8-4.5c-1-0.6-1-2,0-2.6l7.8-4.5l0,0l7.8-4.5
		c1-0.6,2.2,0.1,2.2,1.3V115z"/>
	
		<linearGradient id="SVGID_14_" gradientUnits="userSpaceOnUse" x1="106.2054" y1="810.8" x2="400.5893" y2="810.8" gradientTransform="matrix(1 0 0 1 0 -704)">
		<stop  offset="0" style="stop-color:#D1C3E0"/>
		<stop  offset="1" style="stop-color:#B39CCB"/>
	</linearGradient>
	<path class="st13" d="M282.4,92.7v34.4c0,1.6-1.3,2.8-2.8,2.8h-4.4c-1.6,0-2.8-1.3-2.8-2.8v-27c0-2.2-2.4-3.5-4.3-2.5l-5.8,3.3l0,0
		l-10,5.8V127c0,1.6-1.3,2.8-2.8,2.8h-4.4c-1.6,0-2.8-1.3-2.8-2.8V86.5c0-1.6,1.3-2.8,2.8-2.8h4.4c1.6,0,2.8,1.3,2.8,2.8v8.7l10-5.8
		l7.2-4.2c1.8-1,3.9-1,5.7,0l4.4,2.5C281.4,88.8,282.4,90.7,282.4,92.7z"/>
	
		<linearGradient id="SVGID_15_" gradientUnits="userSpaceOnUse" x1="106.2054" y1="810.8" x2="400.5893" y2="810.8" gradientTransform="matrix(1 0 0 1 0 -704)">
		<stop  offset="0" style="stop-color:#D1C3E0"/>
		<stop  offset="1" style="stop-color:#B39CCB"/>
	</linearGradient>
	<path class="st14" d="M353.9,92.7v34.4c0,1.6-1.3,2.8-2.8,2.8h-4.4c-1.6,0-2.8-1.3-2.8-2.8v-27c0-2.2-2.4-3.5-4.3-2.5l-5.8,3.3l0,0
		l-10,5.8V127c0,1.6-1.3,2.8-2.8,2.8h-4.4c-1.6,0-2.8-1.3-2.8-2.8V86.5c0-1.6,1.3-2.8,2.8-2.8h4.4c1.6,0,2.8,1.3,2.8,2.8v8.7l10-5.8
		l7.2-4.2c1.8-1,3.9-1,5.7,0l4.4,2.5C352.8,88.8,353.9,90.7,353.9,92.7z"/>
	
		<linearGradient id="SVGID_16_" gradientUnits="userSpaceOnUse" x1="106.2054" y1="793.9" x2="400.5893" y2="793.9" gradientTransform="matrix(1 0 0 1 0 -704)">
		<stop  offset="0" style="stop-color:#D1C3E0"/>
		<stop  offset="1" style="stop-color:#B39CCB"/>
	</linearGradient>
	<path class="st15" d="M136.3,61.1L136.3,61.1L136.3,61.1l-10-5.8l-8.6-5c-0.9-0.5-1.9-0.5-2.8,0l-7.2,4.1c-0.9,0.5-1.4,1.4-1.4,2.4
		V123c0,1,0.5,1.9,1.4,2.4l7.2,4.1c0.9,0.5,1.9,0.5,2.8,0l8.6-5l10-5.8l8.6-5c0.9-0.5,1.4-1.4,1.4-2.4V103c0-1-0.5-1.9-1.4-2.4
		l-8.6-5l0,0l0,0l-10-5.8l10-5.8l0,0l0,0l8.6-5c0.9-0.5,1.4-1.4,1.4-2.4v-8.3c0-1-0.5-1.9-1.4-2.4L136.3,61.1z M134.1,106
		c1,0.6,1,2,0,2.6l-7.8,4.5l-7.8,4.5c-1,0.6-2.2-0.1-2.2-1.3v-18c0-1.1,1.2-1.9,2.2-1.3l7.8,4.5L134.1,106z M126.3,78.4l-7.8,4.5
		c-1,0.6-2.2-0.1-2.2-1.3v-18c0-1.1,1.2-1.9,2.2-1.3l7.8,4.5l7.8,4.5c1,0.6,1,2,0,2.6L126.3,78.4z"/>
</g>
<g>
	
		<linearGradient id="SVGID_17_" gradientUnits="userSpaceOnUse" x1="402.4674" y1="89.8999" x2="418.8892" y2="89.8999" gradientTransform="matrix(1 0 0 -1 0 160)">
		<stop  offset="0" style="stop-color:#D1C3E0"/>
		<stop  offset="1" style="stop-color:#B39CCB"/>
	</linearGradient>
	<polygon class="st16" points="403.6,74 403.6,67.5 401,67.5 401,66.2 407.7,66.2 407.7,67.5 405.1,67.5 405.1,74 	"/>
	
		<linearGradient id="SVGID_18_" gradientUnits="userSpaceOnUse" x1="402.5483" y1="89.8999" x2="418.2638" y2="89.8999" gradientTransform="matrix(1 0 0 -1 0 160)">
		<stop  offset="0" style="stop-color:#D1C3E0"/>
		<stop  offset="1" style="stop-color:#B39CCB"/>
	</linearGradient>
	<polygon class="st17" points="403.8,73.8 403.8,67.3 401.2,67.3 401.2,66.4 407.5,66.4 407.5,67.3 404.9,67.3 404.9,73.8 	"/>
	
		<linearGradient id="SVGID_19_" gradientUnits="userSpaceOnUse" x1="402.5483" y1="89.8999" x2="418.2638" y2="89.8999" gradientTransform="matrix(1 0 0 -1 0 160)">
		<stop  offset="0" style="stop-color:#D1C3E0"/>
		<stop  offset="1" style="stop-color:#B39CCB"/>
	</linearGradient>
	<polygon class="st18" points="403.8,73.8 403.8,67.3 401.2,67.3 401.2,66.4 407.5,66.4 407.5,67.3 404.9,67.3 404.9,73.8 	"/>
	
		<linearGradient id="SVGID_20_" gradientUnits="userSpaceOnUse" x1="402.6294" y1="89.9" x2="417.6371" y2="89.9" gradientTransform="matrix(1 0 0 -1 0 160)">
		<stop  offset="0" style="stop-color:#D1C3E0"/>
		<stop  offset="1" style="stop-color:#B39CCB"/>
	</linearGradient>
	<path class="st19" d="M404.8,67.2v6.5h-0.9v-6.5h-2.6v-0.7h6.1v0.7H404.8z"/>
	
		<linearGradient id="SVGID_21_" gradientUnits="userSpaceOnUse" x1="401.7941" y1="89.8999" x2="417.9991" y2="89.8999" gradientTransform="matrix(1 0 0 -1 0 160)">
		<stop  offset="0" style="stop-color:#D1C3E0"/>
		<stop  offset="1" style="stop-color:#B39CCB"/>
	</linearGradient>
	<path class="st20" d="M409.2,74v-7.8h2l1.9,5.9l1.9-5.9h2v7.7h-1.5V69c-0.1,0.4-0.2,0.7-0.3,1l-1.4,3.9h-1.5l-1.4-3.9
		c0,0-0.3-0.9-0.3-1v5H409.2z"/>
	
		<linearGradient id="SVGID_22_" gradientUnits="userSpaceOnUse" x1="402.2116" y1="89.8999" x2="417.8181" y2="89.8999" gradientTransform="matrix(1 0 0 -1 0 160)">
		<stop  offset="0" style="stop-color:#D1C3E0"/>
		<stop  offset="1" style="stop-color:#B39CCB"/>
	</linearGradient>
	<path class="st21" d="M409.4,73.8v-7.5h1.7l2,6.2l2-6.2h1.7v7.4h-1.2v-5.6c-0.1,0.3-0.2,0.6-0.3,0.9c-0.1,0.3-0.2,0.6-0.3,0.9
		l-1.3,3.8h-1.3l-1.3-3.8l-0.2-0.7c-0.1-0.4-0.3-0.8-0.4-1.2v5.8H409.4z"/>
	
		<linearGradient id="SVGID_23_" gradientUnits="userSpaceOnUse" x1="402.2116" y1="89.8999" x2="417.8181" y2="89.8999" gradientTransform="matrix(1 0 0 -1 0 160)">
		<stop  offset="0" style="stop-color:#D1C3E0"/>
		<stop  offset="1" style="stop-color:#B39CCB"/>
	</linearGradient>
	<path class="st22" d="M409.4,73.8v-7.5h1.7l2,6.2l2-6.2h1.7v7.4h-1.2v-5.6c-0.1,0.3-0.2,0.6-0.3,0.9c-0.1,0.3-0.2,0.6-0.3,0.9
		l-1.3,3.8h-1.3l-1.3-3.8l-0.2-0.7c-0.1-0.4-0.3-0.8-0.4-1.2v5.8H409.4z"/>
	
		<linearGradient id="SVGID_24_" gradientUnits="userSpaceOnUse" x1="402.6294" y1="89.9" x2="417.6371" y2="89.9" gradientTransform="matrix(1 0 0 -1 0 160)">
		<stop  offset="0" style="stop-color:#D1C3E0"/>
		<stop  offset="1" style="stop-color:#B39CCB"/>
	</linearGradient>
	<path class="st23" d="M416.7,73.6h-0.9v-3.7c0-0.9,0-1.9,0-2.7c-0.2,0.8-0.6,1.8-0.9,2.7l-1.3,3.7h-1.1l-1.3-3.7
		c-0.3-0.9-0.6-1.9-0.9-2.6c0,0.8,0,1.8,0,2.7v3.7h-0.8v-7.2h1.5l2.1,6.5l2.1-6.5h1.5L416.7,73.6L416.7,73.6z"/>
</g>
</svg>
