<svg xmlns="http://www.w3.org/2000/svg" viewBox="0 0 105.16 143.65"><defs><style>.cls-1{fill:#49ceff;}.cls-2{fill:#ea72c4;}.cls-3{fill:#ed4381;}.cls-4{fill:#ffd036;}.cls-5{fill:#9d47c3;}.cls-6{fill:#ffe86b;}.cls-7{fill:#fff;}.cls-8{fill:#41aeff;}</style></defs><title>Asset 8</title><g id="Layer_2" data-name="Layer 2"><g id="OBJECTS"><circle class="cls-1" cx="50.51" cy="36.95" r="36.94" transform="translate(-9.59 54.39) rotate(-52.36)"/><path class="cls-2" d="M81.18,43.06,50.94,36,22,29.31s9.72-14.57,32.15-9.13A44.89,44.89,0,0,1,64,23.81l.79.42C77.48,31.13,80.88,42,81.16,43A.24.24,0,0,1,81.18,43.06Z"/><path class="cls-3" d="M81.16,43,51.81,36.17a17.22,17.22,0,0,0,13-11.94C77.48,31.13,80.88,42,81.16,43Z"/><polygon class="cls-2" points="85.1 51.06 72.98 85.34 63.92 110.98 56.45 132.1 52.36 143.65 0 130.95 1.66 118.82 3.4 106.07 4.3 99.47 6.21 85.48 13.3 33.66 85.1 51.06"/><polygon class="cls-4" points="56.45 132.1 53.86 139.42 52.36 143.65 0 130.95 0.6 126.51 1.66 118.82 56.45 132.1"/><path class="cls-5" d="M66.8,46.63C48.64,75.9,22.17,83.62,6.21,85.48L13.3,33.66Z"/><path class="cls-1" d="M73,85.34,63.92,111c-15.36,2.57-35.77,2.61-60.52-4.91l.9-6.6C19.16,100.5,47.12,99.9,73,85.34Z"/><path class="cls-6" d="M85.39,43.65,16.44,26.93a4.33,4.33,0,0,0-5.23,3.19h0a4.32,4.32,0,0,0,3.19,5.22L83.35,52.06a4.34,4.34,0,0,0,5.23-3.19h0A4.33,4.33,0,0,0,85.39,43.65Z"/><path class="cls-7" d="M28.45,19.44A2.46,2.46,0,0,1,27,19a2.49,2.49,0,0,1-.6-3.48C26.83,14.9,37,.79,54.52,4.58a2.5,2.5,0,0,1-1.06,4.89c-14.21-3.08-22.62,8.43-23,8.92A2.52,2.52,0,0,1,28.45,19.44Z"/><path class="cls-8" d="M78.47,21a4.82,4.82,0,1,1-3.54-5.81A4.81,4.81,0,0,1,78.47,21Z"/><path class="cls-6" d="M104.6,11.41a2.48,2.48,0,0,1-3.51.36l-4.91-4L93.91,5.91,91.79,7.73,75.42,21.78a2.52,2.52,0,0,1-2.22.53,2.58,2.58,0,0,1-1.31-.8A2.51,2.51,0,0,1,72.16,18L89.27,3.31l3-2.55a2.48,2.48,0,0,1,3.21,0L99.52,4l4.73,3.86A2.49,2.49,0,0,1,104.6,11.41Z"/><polygon class="cls-6" points="53.86 139.42 52.36 143.65 0 130.95 0.6 126.51 53.86 139.42"/><path class="cls-4" d="M99.52,4,96.18,7.77,93.91,5.91,91.79,7.73c-.78-1.37-1.7-3-2.52-4.42l3-2.55a2.48,2.48,0,0,1,3.21,0Z"/></g></g></svg>