<svg xmlns="http://www.w3.org/2000/svg" viewBox="0 0 109.23 103.12"><defs><style>.cls-1{fill:#fff;}.cls-2{fill:#ed4381;}.cls-3{fill:#ff52ae;}.cls-4{fill:#ffd036;}.cls-5{fill:#9d47c3;}</style></defs><title>Asset 3</title><g id="Layer_2" data-name="Layer 2"><g id="OBJECTS"><path class="cls-1" d="M50.1,87.65A2.51,2.51,0,0,1,47.75,86L29.39,37a2.5,2.5,0,1,1,4.68-1.75l18.37,49A2.51,2.51,0,0,1,51,87.49,2.43,2.43,0,0,1,50.1,87.65Z"/><path class="cls-2" d="M45.93,3c11.29,7.4,2.32,37.38-10.32,42.12S-2.18,33.41.15,20.11c3.14-17.89,23.22-7.68,23.22-7.68S30.26-7.31,45.93,3Z"/><path class="cls-3" d="M42.53,10c8.66,5.67,1.78,28.67-7.92,32.31s-29-8.95-27.2-19.15c2.41-13.73,17.82-5.9,17.82-5.9S30.51,2.11,42.53,10Z"/><path class="cls-1" d="M67.06,103.12a2.43,2.43,0,0,1-.87-.16,2.51,2.51,0,0,1-1.48-3.21L83.32,49.43A2.5,2.5,0,0,1,88,51.17L69.4,101.49A2.5,2.5,0,0,1,67.06,103.12Z"/><path class="cls-4" d="M107.85,45.27c0,.1-.07.2-.12.3A18.61,18.61,0,0,1,72.82,32.66c0-.11.07-.21.1-.31a18.62,18.62,0,0,1,34.93,12.92Z"/><path class="cls-3" d="M107.73,45.57a2,2,0,0,1-.11.26,18.24,18.24,0,0,1-3.44,5.48,18.61,18.61,0,0,1-32.4-12,18.23,18.23,0,0,1,1-6.4c0-.09.06-.18.09-.27Z"/><path class="cls-2" d="M107.62,45.83a18.24,18.24,0,0,1-3.44,5.48l-32.4-12a18.23,18.23,0,0,1,1-6.4Z"/><path class="cls-5" d="M106,47,73,34.81a2.37,2.37,0,0,1-1.4-3.05h0a2.38,2.38,0,0,1,3-1.4l33,12.21a2.37,2.37,0,0,1,1.4,3h0A2.38,2.38,0,0,1,106,47Z"/></g></g></svg>