<svg xmlns="http://www.w3.org/2000/svg" viewBox="0 0 108.31 78.46"><defs><style>.cls-1{fill:#9d47c3;}.cls-2{fill:#ffd036;}.cls-3{fill:#7f36a6;}.cls-4{fill:#311842;}.cls-5{fill:#fff;}.cls-6{fill:#ea72c4;}.cls-7{fill:#ffe86b;}</style></defs><title>Asset 5</title><g id="Layer_2" data-name="Layer 2"><g id="OBJECTS"><path class="cls-1" d="M103.52,65.93,76.33,69.72,41,74.64,14,78.41A5.56,5.56,0,0,1,7.7,73.66L.06,18.82A5.57,5.57,0,0,1,4.8,12.53L94.34.05a5.57,5.57,0,0,1,6.27,4.75l7.65,54.85A5.56,5.56,0,0,1,103.52,65.93Z"/><path class="cls-2" d="M84.6,1.41l-.08,12a4.34,4.34,0,0,1-3.74,4.27l-57.69,8a4.35,4.35,0,0,1-4.77-3.09L15,11.11Z"/><rect class="cls-3" x="17.15" y="28.22" width="75.45" height="29.2" rx="3.5" transform="translate(-5.38 7.98) rotate(-7.93)"/><path class="cls-4" d="M40.18,44.87a8.66,8.66,0,1,0-7.38,9.77A8.66,8.66,0,0,0,40.18,44.87Z"/><path class="cls-5" d="M35.27,45.55a3.7,3.7,0,1,0-3.15,4.18A3.7,3.7,0,0,0,35.27,45.55Z"/><path class="cls-4" d="M85.7,38.52a8.66,8.66,0,1,0-7.38,9.78A8.67,8.67,0,0,0,85.7,38.52Z"/><path class="cls-5" d="M80.79,39.21a3.7,3.7,0,1,0-3.16,4.17A3.71,3.71,0,0,0,80.79,39.21Z"/><path class="cls-6" d="M75.18,9.08l-50.09,7a1.4,1.4,0,0,1-1.57-1.19h0a1.4,1.4,0,0,1,1.19-1.57l50.09-7a1.39,1.39,0,0,1,1.57,1.19h0A1.4,1.4,0,0,1,75.18,9.08Z"/><path class="cls-6" d="M76,14.81l-50.09,7a1.39,1.39,0,0,1-1.57-1.18h0A1.39,1.39,0,0,1,25.51,19l50.09-7a1.39,1.39,0,0,1,1.57,1.18h0A1.4,1.4,0,0,1,76,14.81Z"/><path class="cls-7" d="M18.91,69.33a3.49,3.49,0,1,0-3,3.94A3.49,3.49,0,0,0,18.91,69.33Z"/><path class="cls-7" d="M103,57.61a3.49,3.49,0,1,0-3,3.94A3.48,3.48,0,0,0,103,57.61Z"/><path class="cls-7" d="M12,19.41a3.49,3.49,0,1,0-3,3.94A3.49,3.49,0,0,0,12,19.41Z"/><path class="cls-7" d="M96,7.69a3.49,3.49,0,1,0-3,3.94A3.49,3.49,0,0,0,96,7.69Z"/><rect class="cls-7" x="45.22" y="39.31" width="17.21" height="7.35" transform="translate(-5.42 7.84) rotate(-7.93)"/><polygon class="cls-6" points="76.33 69.72 41.02 74.64 43.01 68.72 73.17 64.48 76.33 69.72"/></g></g></svg>