<svg xmlns="http://www.w3.org/2000/svg" viewBox="0 0 110.56 113.51"><defs><style>.cls-1{fill:#9d47c3;}.cls-2{fill:#ffd036;}.cls-3{fill:#ed4381;}.cls-4{fill:#49ceff;}.cls-5{fill:#41aeff;}.cls-6{fill:#ea72c4;}.cls-7{fill:#fff;}.cls-8{fill:#ffe86b;}</style></defs><title>Asset 6</title><g id="Layer_2" data-name="Layer 2"><g id="OBJECTS"><polygon class="cls-1" points="35.8 34.8 52.38 83.21 55.28 91.65 41.73 97.05 38.11 88.89 17.36 42.14 35.8 34.8"/><path class="cls-2" d="M41.74,97s4.48,9.32,10.85,6.78,2.68-12.17,2.68-12.17Z"/><rect class="cls-3" x="13.6" y="34.18" width="25.01" height="6.59" rx="2.82" transform="translate(-12.01 12.31) rotate(-21.71)"/><path class="cls-4" d="M36.05,11.77A18.69,18.69,0,1,1,11.79,1.33,18.62,18.62,0,0,1,36.05,11.77Z"/><path class="cls-5" d="M37.28,16.75A18.69,18.69,0,1,1,3.22,8.22C7.8,15.51,17.61,24,37.28,16.75Z"/><rect class="cls-6" x="9.69" y="29.84" width="29.36" height="6.59" rx="2.82" transform="translate(-10.53 11.37) rotate(-21.71)"/><polygon class="cls-5" points="52.38 83.21 55.28 91.65 41.73 97.05 38.11 88.89 52.38 83.21"/><path class="cls-2" d="M107.66,111.23c-2.73-8.61-6.75-13.83-12-15.51-9.23-3-20.33,5.3-27.68,10.78l-1.89,1.4c-2.86,2.1-5.59,2.74-8.09,1.9-5.21-1.74-7.52-9.24-7.61-9.56l.95-.29c0,.07,2.26,7.33,7,8.91,2.18.72,4.59.13,7.18-1.76l1.88-1.4C74.92,100.1,86.27,91.64,96,94.77c5.54,1.78,9.78,7.22,12.61,16.16Z"/><circle class="cls-7" cx="21.74" cy="7.88" r="4.14"/><circle class="cls-2" cx="33.84" cy="46.7" r="3.19"/><path class="cls-8" d="M40.75,55.94a3.19,3.19,0,1,1-3.19-3.19A3.18,3.18,0,0,1,40.75,55.94Z"/><path class="cls-2" d="M110.56,111.08a2.43,2.43,0,1,0-2.43,2.43A2.43,2.43,0,0,0,110.56,111.08Z"/></g></g></svg>