<svg xmlns="http://www.w3.org/2000/svg" viewBox="0 0 97.82 81.85"><defs><style>.cls-1{fill:#ffe86b;}.cls-2{fill:#ffd036;}</style></defs><title>Asset 2</title><g id="Layer_2" data-name="Layer 2"><g id="OBJECTS"><polygon class="cls-1" points="97.82 32.09 96.31 29.39 55.85 47.51 57.36 50.21 67.88 53.17 49.53 79.15 51.04 81.84 95.63 52.55 94.11 49.86 82.1 48.75 97.82 32.09"/><polygon class="cls-2" points="96.31 29.39 69.86 21.94 55.85 47.51 66.36 50.48 49.53 79.15 94.11 49.86 80.59 46.05 96.31 29.39"/><polygon class="cls-1" points="23.84 0.22 20.76 0 13.66 43.77 16.75 43.98 25 36.83 36.62 66.43 39.71 66.65 39.73 13.3 36.65 13.08 29.12 22.51 23.84 0.22"/><polygon class="cls-2" points="20.76 0 0 18 13.66 43.77 21.92 36.61 36.62 66.43 36.65 13.08 26.04 22.29 20.76 0"/></g></g></svg>