<svg xmlns="http://www.w3.org/2000/svg" viewBox="0 0 121.56 101.64"><defs><style>.cls-1{fill:#9d47c3;}.cls-2{fill:#ffe86b;}.cls-3{fill:#7f36a6;}.cls-4{fill:#ffd036;}.cls-5{fill:#ff52ae;}.cls-6{fill:#41aeff;}</style></defs><title>Asset 4</title><g id="Layer_2" data-name="Layer 2"><g id="OBJECTS"><path class="cls-1" d="M72.35,26.47l-25,64.12L61.19,96a14.26,14.26,0,0,0,16.54-4.68l1.85-2.44C85.3,82,92.8,81.92,99.27,82.05h0a11.54,11.54,0,0,0,11-7.35l11.32-29.07ZM60.78,90.66l-3.66-1.43,1.43-3.66L62.21,87Zm6.73,2.62-3.66-1.43,1.43-3.66,3.66,1.43ZM81,38.65l-3.66-1.43,1.42-3.66L82.46,35Zm6.73,2.62-3.66-1.43,1.42-3.66,3.66,1.43Zm6.73,2.62-3.66-1.42,1.42-3.66,3.66,1.42Zm6.73,2.62-3.66-1.42L99,41.43l3.66,1.42ZM108,49.13l-3.66-1.42,1.42-3.66,3.66,1.42Zm3.07,1.2,1.42-3.66,3.66,1.42-1.42,3.66Z"/><rect class="cls-2" x="32.6" y="-0.4" width="14.95" height="102.44" transform="translate(21.17 -11.08) rotate(21.28)"/><rect class="cls-3" x="25.85" y="1.82" width="28.45" height="97.99" transform="translate(21.17 -11.08) rotate(21.28)"/><rect class="cls-1" x="13.67" y="8.18" width="52.81" height="85.27" transform="translate(21.17 -11.08) rotate(21.28)"/><polygon class="cls-4" points="77.18 28.35 63.36 63.83 52.2 92.46 2.98 73.3 27.87 9.42 27.96 9.17 77.18 28.35"/><path class="cls-5" d="M63.36,63.83,52.2,92.46,35.13,85.81,3,73.3,21.39,26.06,27.87,9.42C34,14.37,43,24.59,39.2,40,34.68,58.22,47.52,68.11,63.36,63.83Z"/><path class="cls-6" d="M35.13,85.81,3,73.3,21.39,26.06c6.91,7.33,13.6,19,9.66,35C28.41,71.75,30.34,80.22,35.13,85.81Z"/></g></g></svg>