<svg xmlns="http://www.w3.org/2000/svg" viewBox="0 0 121 138.65"><defs><style>.cls-1{fill:#49ceff;}.cls-2{fill:#ffe86b;}.cls-3{fill:#ffd036;}.cls-4{fill:#ff52ae;}.cls-5{fill:#9d47c3;}.cls-6{fill:#7f36a6;}</style></defs><title>Asset 7</title><g id="Layer_2" data-name="Layer 2"><g id="OBJECTS"><path class="cls-1" d="M13.65,54.48c.29-.65.53-1.14.8-1.68l.78-1.58c.53-1,1.06-2.06,1.61-3.07,1.06-2,2.17-4,3.32-6,2.31-3.94,4.68-7.82,7.33-11.51a105.64,105.64,0,0,1,8.38-10.71,80.12,80.12,0,0,1,9.84-9.39,57,57,0,0,1,5.59-3.9l2.94-1.72,3.07-1.48A40.37,40.37,0,0,1,70.46.15L72.15.07a13.69,13.69,0,0,1,1.69,0l3.38.14c1.13.08,2.23.31,3.35.45.55.1,1.11.15,1.66.27l1.63.42A56.8,56.8,0,0,1,96.33,6.12l2.92,1.64,1.46.81c.49.28.93.63,1.4.94l2.76,1.9c.88.7,1.72,1.45,2.58,2.17A39.24,39.24,0,0,1,116,24,38.68,38.68,0,0,1,120.4,36.9a53.7,53.7,0,0,1,.31,13.64,83.24,83.24,0,0,1-2.6,13.38,106.48,106.48,0,0,1-4.42,12.89c-1.66,4.23-3.61,8.34-5.64,12.44q-1.51,3.06-3.2,6.08c-.54,1-1.1,2-1.68,3l-.89,1.52c-.3.52-.57,1-1,1.59l-9.78-7.94c.28-.28.65-.7,1-1.07l1-1.17c.67-.79,1.35-1.59,2-2.41q2-2.48,3.82-5.06a118.85,118.85,0,0,0,6.79-10.73,76.64,76.64,0,0,0,8.74-23.4,37.07,37.07,0,0,0-2.79-23.62c-.49-.87-1-1.76-1.46-2.62L108.88,21l-.44-.61-.52-.56-1-1.12-1-1.12c-.36-.36-.76-.68-1.14-1-.77-.67-1.52-1.37-2.31-2L99.9,12.76c-.42-.29-.83-.62-1.27-.89l-1.35-.78L94.57,9.51A52.27,52.27,0,0,0,82.94,5.16l-1.49-.37c-.5-.1-1-.14-1.51-.22-1-.12-2-.32-3-.38l-3-.09c-1,0-2,.15-3,.22a35.71,35.71,0,0,0-11.53,3.4,42,42,0,0,0-10,7A65.13,65.13,0,0,0,41,24a94.23,94.23,0,0,0-6.73,10.69A113.41,113.41,0,0,0,28.9,46.2c-.78,2-1.51,4-2.17,6-.33,1-.63,2-.93,3l-.42,1.49c-.13.49-.27,1-.36,1.41Z"/><ellipse class="cls-2" cx="17.23" cy="55.18" rx="20.36" ry="16.29" transform="translate(-39.7 45.12) rotate(-62.64)"/><path class="cls-3" d="M6.48,84.66h0a3.22,3.22,0,0,1-1.37-4.34l3.58-6.93,5.71,3-3.58,6.93A3.23,3.23,0,0,1,6.48,84.66Z"/><ellipse class="cls-4" cx="21.72" cy="57.51" rx="23.79" ry="19.03" transform="translate(-39.34 50.37) rotate(-62.64)"/><path class="cls-5" d="M31.64,62.64C28.1,69.5,20.78,72.75,15.3,69.91s-7-10.69-3.51-17.54,10.87-10.1,16.35-7.27S35.19,55.79,31.64,62.64Z"/><path class="cls-6" d="M27.67,60.59c-2.12,4.11-6.51,6.06-9.8,4.36s-4.23-6.41-2.1-10.52,6.51-6.06,9.8-4.36S29.8,56.48,27.67,60.59Z"/><ellipse class="cls-4" cx="100.43" cy="98.24" rx="23.79" ry="19.03" transform="translate(-32.98 142.28) rotate(-62.64)"/><ellipse class="cls-2" cx="103.59" cy="99.88" rx="18.17" ry="14.53" transform="translate(-32.72 145.98) rotate(-62.64)"/><path class="cls-3" d="M70.65,137.3c-10.18,0-29.52-4.11-32.95-24.12-2.08-12.16-10.94-10.85-19.51-9.57-6.73,1-13.09,1.94-16.08-3.37C-2,92.93,6.65,82.17,7,81.72l.69.56C7.63,82.39-.91,93,2.89,99.8c2.68,4.77,8.75,3.87,15.17,2.92C26.64,101.45,36.35,100,38.58,113c3.77,22,27.51,24.17,35.53,23.18l.11.89A29.8,29.8,0,0,1,70.65,137.3Z"/><path class="cls-2" d="M89.43,135.47l-7.65.94-.21-1.74,7.65-.94a.89.89,0,0,1,1,.77h0A.88.88,0,0,1,89.43,135.47Z"/><rect class="cls-3" x="72.22" y="134.18" width="10.52" height="3.84" transform="translate(-16.05 10.48) rotate(-7.02)"/><path class="cls-5" d="M100.08,15.31,85.38,7.7a3.82,3.82,0,0,1-1.64-5.15h0A3.82,3.82,0,0,1,88.89.92l14.7,7.6a3.82,3.82,0,0,1,1.63,5.15h0A3.82,3.82,0,0,1,100.08,15.31Z"/></g></g></svg>