<svg xmlns="http://www.w3.org/2000/svg" viewBox="0 0 78.84 143.6"><defs><style>.cls-1{fill:#ea72c4;}.cls-2{fill:#ed4381;}.cls-3{fill:#49ceff;}.cls-4{fill:#9d47c3;}.cls-5{fill:#ff5f38;}.cls-6{fill:#ffe86b;}.cls-7{fill:#ffd036;}.cls-8{fill:#fff;}</style></defs><title>Asset 10</title><g id="Layer_2" data-name="Layer 2"><g id="OBJECTS"><polygon class="cls-1" points="73.01 140.83 5.83 140.83 8.45 131.42 23.59 80.85 52.53 79.01 69.89 131.42 73.01 140.83"/><polygon class="cls-2" points="73.01 140.83 5.83 140.83 8.45 131.42 69.89 131.42 73.01 140.83"/><circle class="cls-3" cx="39.42" cy="51.71" r="39.42"/><path class="cls-1" d="M72.12,138.06H6.72A2.77,2.77,0,0,0,4,140.83H4a2.77,2.77,0,0,0,2.77,2.77h65.4a2.77,2.77,0,0,0,2.77-2.77h0A2.77,2.77,0,0,0,72.12,138.06Z"/><rect class="cls-4" x="27.28" y="95.63" width="4.8" height="13.1"/><path class="cls-4" d="M51.65,102.24a5.58,5.58,0,1,0-5.58,5.58A5.58,5.58,0,0,0,51.65,102.24Z"/><circle class="cls-5" cx="46.07" cy="102.24" r="3.94"/><path class="cls-6" d="M50.65,125.82H26.77V115.7s4,1.93,11.94,1.93,11.94-1.93,11.94-1.93Z"/><path class="cls-1" d="M74,31.08H4.89a13.69,13.69,0,0,1,7.89-12.37L39.42,6.33,66.06,18.71A13.51,13.51,0,0,1,71,22.61a11.32,11.32,0,0,1,.82,1.14A13.63,13.63,0,0,1,74,31.08Z"/><path class="cls-2" d="M74,31.08H4.89a13.59,13.59,0,0,1,3-8.47H71a11.32,11.32,0,0,1,.82,1.14A13.63,13.63,0,0,1,74,31.08Z"/><path class="cls-1" d="M73.41,33.32H5.18A3.32,3.32,0,0,1,1.86,30h0a3.33,3.33,0,0,1,3.32-3.33H73.41A3.33,3.33,0,0,1,76.74,30h0A3.33,3.33,0,0,1,73.41,33.32Z"/><path class="cls-2" d="M43.75,4.33a4.33,4.33,0,1,0-4.33,4.32A4.33,4.33,0,0,0,43.75,4.33Z"/><path class="cls-2" d="M26.15,73.76a5.54,5.54,0,1,1-5.54-5.54A5.54,5.54,0,0,1,26.15,73.76Z"/><circle class="cls-6" cx="33.72" cy="80.53" r="6.09"/><path class="cls-4" d="M51.45,69.22a6.39,6.39,0,1,1-6.39-6.39A6.39,6.39,0,0,1,51.45,69.22Z"/><path class="cls-5" d="M51.43,81.59a3.95,3.95,0,1,0-4,4A3.95,3.95,0,0,0,51.43,81.59Z"/><path class="cls-7" d="M63.45,73.87a5.06,5.06,0,1,0-5.06,5.06A5.05,5.05,0,0,0,63.45,73.87Z"/><path class="cls-7" d="M36.09,63.32a5.73,5.73,0,1,1-5.73-5.73A5.73,5.73,0,0,1,36.09,63.32Z"/><path class="cls-8" d="M10.74,68a2.47,2.47,0,0,1-2.21-1.34C1.3,52.9,8.2,38.63,8.5,38A2.5,2.5,0,0,1,13,40.24h0c-.06.13-6.05,12.63,0,24.11a2.5,2.5,0,0,1-1,3.38A2.54,2.54,0,0,1,10.74,68Z"/><rect class="cls-7" x="26.77" y="122.9" width="23.24" height="2.92"/></g></g></svg>