<svg xmlns="http://www.w3.org/2000/svg" viewBox="0 0 119.07 87.62"><defs><style>.cls-1{fill:#ea72c4;}.cls-2{fill:#ffd036;}.cls-3{fill:#9d47c3;}.cls-4{fill:#49ceff;}.cls-5{fill:#fff;}.cls-6{fill:#ff5f38;}.cls-7{fill:#ffe86b;}.cls-8{fill:#41aeff;}</style></defs><title>Asset 9</title><g id="Layer_2" data-name="Layer 2"><g id="OBJECTS"><path class="cls-1" d="M32.26,87.58a1.39,1.39,0,0,1-.54,0,1.5,1.5,0,0,1-1.31-1.67L33,64.42a1.5,1.5,0,1,1,3,.36L33.39,86.3A1.5,1.5,0,0,1,32.26,87.58Z"/><path class="cls-1" d="M102.56,70.39a1.35,1.35,0,0,0,.49-.22,1.5,1.5,0,0,0,.39-2.08L91.19,50.2a1.5,1.5,0,1,0-2.47,1.69L101,69.78A1.5,1.5,0,0,0,102.56,70.39Z"/><path class="cls-1" d="M68.93,84.38a1.64,1.64,0,0,0,.54,0,1.5,1.5,0,0,0,1.1-1.81L65.44,61.47a1.5,1.5,0,0,0-2.91.71l5.13,21.07A1.49,1.49,0,0,0,68.93,84.38Z"/><ellipse class="cls-2" cx="60.96" cy="48.88" rx="56.69" ry="20.22" transform="translate(-9.86 15.88) rotate(-13.74)"/><ellipse class="cls-3" cx="59.54" cy="43.05" rx="61.05" ry="21.77" transform="translate(-8.52 15.37) rotate(-13.74)"/><path class="cls-4" d="M95.44,29.12A38.18,38.18,0,1,0,21.26,47.26C26.27,67.74,100.45,49.61,95.44,29.12Z"/><path class="cls-5" d="M29.69,30.58a2.5,2.5,0,0,1-2.44-3c.11-.53,3-13,15.23-18.65a2.5,2.5,0,1,1,2.09,4.55C34.64,18,32.15,28.52,32.13,28.62A2.51,2.51,0,0,1,29.69,30.58Z"/><path class="cls-2" d="M18.55,59.7c.34,1.38-.84,2.85-2.62,3.29s-3.52-.33-3.85-1.7.84-2.86,2.62-3.29S18.22,58.32,18.55,59.7Z"/><path class="cls-6" d="M28.46,61.78c.34,1.38-.84,2.85-2.62,3.29s-3.52-.33-3.86-1.71.84-2.85,2.63-3.29S28.13,60.4,28.46,61.78Z"/><path class="cls-7" d="M10.54,55c.34,1.38-.84,2.85-2.62,3.29S4.4,58,4.07,56.61s.84-2.85,2.62-3.29S10.21,53.65,10.54,55Z"/><path class="cls-8" d="M56.63,49.94s14.46-2.81,23.45-7.18,13-12.09,9-18.52C87.64,34,56.63,49.94,56.63,49.94Z"/></g></g></svg>