<svg xmlns="http://www.w3.org/2000/svg" viewBox="0 0 205.43 199"><defs><style>.cls-1{fill:#fff;}.cls-2{fill:#fe83e8;}.cls-3{fill:#f7e7d8;}.cls-4{fill:#84d2ee;}.cls-5{fill:#4d5ceb;}.cls-6{fill:#fdcc72;}.cls-7{fill:#fc595e;}.cls-8{fill:#030912;}.cls-9{fill:#fac3d3;}</style></defs><title>Asset 5</title><g id="Layer_2" data-name="Layer 2"><g id="OBJECTS"><path class="cls-1" d="M102.61,199a98.78,98.78,0,0,1-41.33-9c-.45-.2-.88-.41-1.32-.62a100,100,0,0,1-46-44.65,32.93,32.93,0,0,1-4.1-1.63A13.32,13.32,0,0,1,3.29,137a9.57,9.57,0,0,1,2.08-11.33,25.65,25.65,0,0,1-2.59-13.45,12.52,12.52,0,0,1,.77-3.32c-.3-3.11-.44-6.26-.44-9.41a100.65,100.65,0,0,1,.57-10.7,8.87,8.87,0,0,1-1-2.23c-.95-3.43.12-7.07,3-10.25l.15-.16c.17-.69.34-1.38.52-2.07a13.35,13.35,0,0,1-3.61-2.85C-.45,67.6-.92,62.31,1.67,58.67a9.7,9.7,0,0,1,5.57-3.74c-.1-.46-.17-.93-.23-1.42-.5-4.85,2.21-9.41,6.43-10.87a9.2,9.2,0,0,1,3-.49,10.46,10.46,0,0,1,4.21.92l.54-.78.6-.84.16-.22,1-1.35c.27-.37.55-.73.83-1.1s.66-.85,1-1.27l.89-1.1,1-1.23.92-1.06c.35-.41.71-.8,1.06-1.2l.94-1c.38-.41.75-.8,1.13-1.19l.24-.25c.24-.25.47-.5.71-.74s.63-.63.95-.95l1.18-1.16c.69-.66,1.39-1.3,2.09-1.94L37,24.73l1.16-1c.44-.38.9-.75,1.35-1.12l.89-.73c.54-.43,1.07-.85,1.61-1.26l.66-.51,1.8-1.33.46-.33c.68-.48,1.37-1,2.07-1.43l.11-.08c1.55-1,3-2,4.45-2.84.81-.48,1.62-1,2.45-1.42A98.15,98.15,0,0,1,88.47,1c.6-.1,1.2-.18,1.8-.25A100.79,100.79,0,0,1,102.19,0h.42a100.11,100.11,0,0,1,21.64,2.36c3.06.68,6.12,1.51,9.11,2.49A99.78,99.78,0,0,1,181.53,38.9a8.73,8.73,0,0,1,1.44-.11,9.78,9.78,0,0,1,7.47,3.46,10.93,10.93,0,0,1,2.09,9l.75,0a13.24,13.24,0,0,1,3.46.45c4.73,1.29,8,5.47,7.88,10a10.12,10.12,0,0,1-3.87,7.43,13.13,13.13,0,0,1,2.49,2.55c2.92,3.94,2.92,9.28,0,12.7a9.26,9.26,0,0,1-2,1.77,101.47,101.47,0,0,1,.9,13.41,100,100,0,0,1-1.75,18.64,9.67,9.67,0,0,1,2.73,10.34,13.34,13.34,0,0,1-5.73,6.94,28.61,28.61,0,0,1-2.53,1.49A100.37,100.37,0,0,1,143.92,190l-1.15.52-.47.2A98.65,98.65,0,0,1,102.61,199Z"/><path class="cls-2" d="M196.11,99.5a93.75,93.75,0,0,1-2.77,22.69,92.29,92.29,0,0,1-3.24,10.36,93.79,93.79,0,0,1-48.71,52c-.42.2-.86.39-1.29.58h0a93.73,93.73,0,0,1-76.35-.62c-.39-.17-.77-.35-1.15-.54A93.81,93.81,0,0,1,18.2,139.76a91.43,91.43,0,0,1-4.09-10c-.22-.64-.43-1.28-.64-1.93,0,0,0,0,0,0A94.18,94.18,0,0,1,9.11,99.5,94.45,94.45,0,0,1,10,86.84c.35-2.58.8-5.13,1.37-7.64a87.45,87.45,0,0,1,2.46-9Q15.17,66,17,61.94l0-.06c.24-.56.5-1.12.76-1.68a93,93,0,0,1,4.45-8.45c.26-.43.52-.87.79-1.3a93.86,93.86,0,0,1,29.62-30q2.12-1.36,4.31-2.59a92.6,92.6,0,0,1,32.46-11c.55-.09,1.1-.16,1.65-.23A96.2,96.2,0,0,1,102.23,6h.38A94.07,94.07,0,0,1,123,8.22q4.35,1,8.54,2.33a93.66,93.66,0,0,1,48.22,36.06,91.41,91.41,0,0,1,5.09,8.31c.76,1.37,1.47,2.77,2.14,4.18q1.94,4,3.48,8.24c.51,1.39,1,2.79,1.42,4.21a88.29,88.29,0,0,1,2.56,10.16A93.15,93.15,0,0,1,196.11,99.5Z"/><path class="cls-3" d="M108.79,92.86c-2.45,4.28-7.51,7.91-12.1,6.11-3.93-1.54-5.5-6.13-8-9.5C85,84.57,78.72,82,72.59,81.65s-12.22,1.11-18.06,3c-4.24,1.36-9.43,2.75-12.7-.27C39,81.71,39.3,77.12,40.17,73.31s2-8,.06-11.45c-1.51-2.68-4.63-4.14-7.7-4.35a22.38,22.38,0,0,0-9,1.7A71.21,71.21,0,0,0,17,61.94,93.59,93.59,0,0,1,52.61,20.49,50.57,50.57,0,0,1,62,22a84.69,84.69,0,0,1,21.39,9.2,66.54,66.54,0,0,1,14,10.23c7.84,7.84,12.33,18.59,14,29.54C112.65,78.36,112.51,86.35,108.79,92.86Z"/><path class="cls-4" d="M167.94,60.56c-3.5,1.86-7.7,1.85-11.6,1.22-2.44-.39-4.88-1-7.33-.73s-5,1.71-5.65,4.08c-1.09,3.84,2.93,7.11,4.15,10.92,1.54,4.86-2,10.18-6.6,12.33s-10,1.88-15,1.32-10.24-1.36-15.19-.15a19.12,19.12,0,0,0-6.11,2.74c-1.43,1-3.29,3.77-5,4.06l-.18,0a1.16,1.16,0,0,1-.54-.05.82.82,0,0,1-.49-.33c-.72-1,0-3.6,1-6.09l0,0c.81-2.12,1.77-4.15,2.09-5a230.88,230.88,0,0,0,11-36.38c2.89-13.58,4.74-27.86,10.53-40.29q4.35,1,8.54,2.33a93.28,93.28,0,0,1,35,20.64q-.41.11-.81.24c-2.46.84-4.68,3.09-4.5,5.68a6.94,6.94,0,0,0,2.61,4.42c3.27,2.94,7.91,5,9.1,9.21C173.93,54.55,171.43,58.7,167.94,60.56Z"/><path class="cls-5" d="M97.24,100.32c0,.45,0,.91,0,1.37-.06-.5-.14-1-.22-1.51-.15-.89-.34-1.78-.57-2.66A29.62,29.62,0,0,0,89.75,84.8a23.67,23.67,0,0,0-16.46-7.87c-3.16-.09-6.35.54-9.47,0-4.07-.68-7.89-3.69-8.7-7.73-.59-2.93.39-5.92,1.48-8.7s2.3-5.62,2.2-8.6-2-6.16-4.92-6.63a8.44,8.44,0,0,0-3.93.55c-3.9,1.28-7.55,3.28-11.48,4.44A28.76,28.76,0,0,1,23,50.45,94,94,0,0,1,56.92,17.9a92.6,92.6,0,0,1,32.46-11c.2,1.32.39,2.64.58,4q1.76,12.25,3.27,24.55.8,6.45,1.52,12.92c.06.47.11.94.16,1.41.45,4.07.85,8.08,1.19,12.07.52,6.14.91,12.22,1.12,18.33C97.45,86.81,97.47,93.49,97.24,100.32Z"/><path class="cls-6" d="M102.23,6c-.06,27.54-.46,55.1-2.77,82.56v0c0,.44-.07.88-.11,1.32,0,.2,0,.41,0,.61,0,0,0,.08,0,.13-.05.82-.14,3.39-.43,5.68-.07.45-.13.89-.21,1.3-.3,1.64-.74,2.86-1.41,2.7a.59.59,0,0,1-.27-.14,1,1,0,0,1-.2-.17,4.3,4.3,0,0,1-.37-2.49c0-1.33.22-2.78.19-3.41a36.05,36.05,0,0,0-1-7.09c-1.43-5.59-4.91-11-10.23-13.18-3.08-1.3-6.51-1.45-9.76-2.28S69,68.91,67.93,65.74c-1.2-3.48.75-7.28,3.24-10s5.58-4.93,7.46-8.1,2-7.86-1-10c-2.12-1.51-5-1.24-7.56-.78-3.91.7-7.88,1.68-11.79,1S50.47,34.46,50,30.51c-.53-4.85,4-8.51,6.88-12.61a92.6,92.6,0,0,1,32.46-11c.55-.09,1.1-.16,1.65-.23A96.2,96.2,0,0,1,102.23,6Z"/><path class="cls-7" d="M141.11,36.07c-2.92,3.43-7.49,4.82-11.6,6.68s-8.34,4.89-8.89,9.36c-.58,4.64,3,8.69,6.68,11.61,3.28,2.62,7.18,5.59,7.17,9.79,0,4.36-4.43,7.46-8.68,8.45s-8.78.72-12.86,2.29-7.33,4.89-10.39,8.1a25.69,25.69,0,0,0-3.14,4c-.26.41-.51.82-.75,1.25s-.5.91-.74,1.38c.11-1,.28-2,.46-3,.32-1.81.7-3.59.92-5.35,0,0,0-.09,0-.13,0-.22,0-.43.07-.65,0-.42.07-.85.09-1.28v0a13.81,13.81,0,0,0-1.67-7.44c-.18-.32-.37-.64-.57-1-2-3-4.85-5.67-5.11-9.22-.2-2.64,1.15-5.15,2.68-7.31.42-.6.87-1.2,1.31-1.8a18.73,18.73,0,0,0,2.85-5c.85-2.51.49-5.68-1.65-7.24a16,16,0,0,0-2.55-1.29l-.2-.1a8,8,0,0,1-3.2-10.33,10.33,10.33,0,0,1,1.88-2.49c.59-.63,1.23-1.21,1.85-1.81a21.6,21.6,0,0,0,5.21-6.79,9.3,9.3,0,0,0-.13-8.31c-1.89-3.22-6-4.58-8-7.77a8.25,8.25,0,0,1-1.15-4A96.2,96.2,0,0,1,102.23,6h.38A94.07,94.07,0,0,1,123,8.22q4.35,1,8.54,2.33a4.12,4.12,0,0,0,.28,4.07A7.77,7.77,0,0,0,135,16.71a15.74,15.74,0,0,1,7.4,6.4A11.78,11.78,0,0,1,141.11,36.07Z"/><path class="cls-3" d="M184.89,133.39a27.24,27.24,0,0,1-2.68,9.71,24,24,0,0,1-16,12.06,27.55,27.55,0,0,1-6.18.69h-.35a32.35,32.35,0,0,1-13.24-3.1l1.69-3.63a28.15,28.15,0,0,0,12.31,2.72,23.08,23.08,0,0,0,4.87-.57,20.06,20.06,0,0,0,13.37-10,23.39,23.39,0,0,0,2.26-8.28,18.62,18.62,0,0,0-.92-8.84c-1.93-4.88-7.22-8.38-12.75-8.59-.29,0-.57,0-.85,0A17.86,17.86,0,0,0,152,124.29l-3.43-2.06a22,22,0,0,1,17.71-10.67c.57,0,1.13,0,1.69,0a18.35,18.35,0,0,1,15.72,11.09A22.56,22.56,0,0,1,184.89,133.39Z"/><path class="cls-8" d="M148.1,149.12a28.15,28.15,0,0,0,12.31,2.72l-.76,4a32.35,32.35,0,0,1-13.24-3.1Z"/><path class="cls-8" d="M168,111.59l-.75,4c-.29,0-.57,0-.85,0A17.86,17.86,0,0,0,152,124.29l-3.43-2.06a22,22,0,0,1,17.71-10.67C166.87,111.55,167.43,111.56,168,111.59Z"/><path class="cls-3" d="M125.7,178.15c-21.79,8.51-46.13,1.7-46.13,1.7l2.58-3.15,5.76-7.06,30.81-1,2.7,3.68Z"/><path class="cls-8" d="M121.42,172.3a67.14,67.14,0,0,1-9.67,3c-9.45,2.32-19.42,4.08-28.84,1.65l-.76-.22,5.76-7.06,30.81-1Z"/><path class="cls-3" d="M161.5,128.23h0c-1.61,17.31-5.6,35.77-15.14,39.76h0a8.33,8.33,0,0,1-1,.36c-15.56,4.67-37.17,5.1-46,5.06s-30.44-.39-46-5.06c-3.52-1.05-6.32-4-8.56-8.13-3.49-6.45-5.59-15.81-6.85-25.42A260.44,260.44,0,0,1,36.34,96a1,1,0,0,1,.57-.87c20-9.48,44.15-10.59,57.19-10.34l1.82,0h0c1.38,0,2.6.1,3.64.16,2.85-.16,7.08-.3,12.18-.19h0l1.79,0c13.42.42,32.12,2.61,48.26,10.28a1,1,0,0,1,.57.87A273.14,273.14,0,0,1,161.5,128.23Z"/><path class="cls-6" d="M71.66,153.77,57,153l.75,14.66-9.84-10.9-3.11,3.45c-3.49-6.45-5.59-15.81-6.85-25.42l.88,0-.75-14.66,9.83,10.89,9.84-10.89L57,134.85l14.66-.75-10.9,9.83Z"/><polygon class="cls-6" points="103.83 99 113.67 88.11 112.92 102.76 127.57 102.02 116.68 111.85 127.57 121.69 112.92 120.94 113.67 135.6 103.83 124.7 93.99 135.6 94.74 120.94 80.08 121.69 90.98 111.85 80.08 102.02 94.74 102.76 93.99 88.11 103.83 99"/><path class="cls-6" d="M161.5,128.24c-1.61,17.31-5.6,35.77-15.14,39.76l.59-11.79L132.3,157l10.89-9.83-10.89-9.84L147,138l-.74-14.66,9.83,10.9Z"/><path class="cls-8" d="M160.85,97.39c0,4.89-27.17,8.84-60.68,8.84s-60.68-4-60.68-8.84,27.25-10.56,60.76-10.56S160.85,92.51,160.85,97.39Z"/><path class="cls-1" d="M121.23,141c-3.88-3.1-7.7-5.82-12.69-7.23-.43-.13-.87-.24-1.31-.34-11.14-2.62-22.18,1.71-30.54,9.07a40.08,40.08,0,0,1-9.63,6.68c.41-.17,2.62,1.71,3,2,1,.74,1.94,1.52,2.88,2.31a50,50,0,0,0,5.85,4.5,37,37,0,0,0,14.41,4.89c8.14,1.08,17.07.39,24.61-3,6.36-2.87,9.71-7.57,15.14-10.7-.31.18-2.81-1.67-3.09-1.85a72.06,72.06,0,0,1-6.87-4.91Z"/><circle class="cls-5" cx="99.96" cy="147.75" r="12.91"/><circle class="cls-8" cx="100.19" cy="147.29" r="7.14"/><path class="cls-8" d="M183,135.59c3.69-1.75,7.68-2.92,11.08-5.17a7.77,7.77,0,0,0,3.33-3.8c.54-1.63-.07-3.73-1.67-4.37s-3.34.34-5,.59c3-5.37,5.23-11.63,3.82-17.63a4.49,4.49,0,0,0-1.55-2.77,3.28,3.28,0,0,0-3.24-.08,6.75,6.75,0,0,0-2.45,2.3c-1.93,2.77-2.85,6.1-3.7,9.37-1.29,5-2.52,9.94-4,14.86s-3.5,9.6-5.21,14.4A17.85,17.85,0,0,1,183,135.59Z"/><path class="cls-8" d="M178.89,116.84A100.44,100.44,0,0,1,175.6,140c-.23.82-.47,1.63-.72,2.42a54.88,54.88,0,0,1-10.8,20,95.82,95.82,0,0,1-10.23,9.61c-4.5,3.84-9.11,7.77-12.46,12.52-.42.2-.86.39-1.29.58,3.44-5.29,8.42-9.54,13.26-13.67A96.46,96.46,0,0,0,163.51,162c9-10.34,14-25.53,14.63-45.17a157,157,0,0,0-2.29-32.54,92,92,0,0,0-2.68-11.42c0-.09,0-.18-.07-.26-.17-.52-.33-1-.5-1.52s-.27-.76-.41-1.14c0,0,0,0,0,0a.38.38,0,0,1,.22-.48.38.38,0,0,1,.48.22c.29.8.58,1.62.85,2.47h0c.05.15.1.3.14.45a92.33,92.33,0,0,1,2.72,11.58c.09.5.17,1,.25,1.5A157.51,157.51,0,0,1,178.89,116.84Z"/><path class="cls-3" d="M159.7,58.85c-2.07-1.89-4.07-4.18-4.37-7-.2-1.88.65-4,2.43-4.65s3.42.31,4.78,1.39c3.72,3,5.82,7.48,7.79,11.81A43.49,43.49,0,0,1,173.14,68a13.68,13.68,0,0,1-2.34-1.47c-1.15-.82-2.53-1.38-3.74-2.12A47.55,47.55,0,0,1,159.7,58.85Z"/><path class="cls-3" d="M155.66,70.65c-2.8,0-5.82-.42-7.9-2.31-1.4-1.27-2.19-3.44-1.27-5.09s2.76-2,4.49-2.13c4.76-.25,9.32,1.72,13.68,3.65a43.54,43.54,0,0,1,7.09,3.75A13.11,13.11,0,0,1,169,69c-1.41.14-2.81.65-4.21.9A47.68,47.68,0,0,1,155.66,70.65Z"/><path class="cls-3" d="M160.92,80.37c-2.3,1.6-5,3-7.76,2.73-1.88-.22-3.79-1.52-4-3.4-.19-1.72,1.06-3.27,2.41-4.35,3.72-3,8.58-4,13.24-5a43.64,43.64,0,0,1,7.95-1.08,13.31,13.31,0,0,1-1.95,2c-1.06.94-1.9,2.17-2.89,3.19A48,48,0,0,1,160.92,80.37Z"/><path class="cls-3" d="M174,87c-.21,2.8-.77,5.79-2.78,7.75-1.35,1.32-3.57,2-5.16,1s-1.87-2.88-1.85-4.61c0-4.77,2.27-9.2,4.45-13.44a44.49,44.49,0,0,1,4.17-6.85,14,14,0,0,1,.3,2.75c.06,1.41.48,2.84.65,4.24A48.75,48.75,0,0,1,174,87Z"/><path class="cls-3" d="M185,82.26c1.65,2.27,3.16,4.91,2.89,7.71-.18,1.88-1.44,3.82-3.32,4.06-1.71.23-3.29-1-4.39-2.32-3-3.66-4.21-8.49-5.28-13.13a44.19,44.19,0,0,1-1.24-7.93,13.36,13.36,0,0,1,2,1.91c.95,1,2.2,1.86,3.24,2.82A48,48,0,0,1,185,82.26Z"/><path class="cls-3" d="M191.11,71.39c2.75.58,5.64,1.54,7.31,3.8,1.12,1.52,1.48,3.8.26,5.24s-3.11,1.46-4.82,1.22c-4.72-.69-8.81-3.5-12.71-6.24a43.27,43.27,0,0,1-6.23-5.06,14.18,14.18,0,0,1,2.76.08c1.41.14,2.88-.09,4.3-.07A47.47,47.47,0,0,1,191.11,71.39Z"/><path class="cls-3" d="M187.09,59c2.51-1.25,5.37-2.29,8.08-1.55,1.82.49,3.52,2.06,3.45,4-.06,1.73-1.52,3.07-3,3.94-4.12,2.39-9.08,2.72-13.84,3a44,44,0,0,1-8-.11A13.9,13.9,0,0,1,176,66.61c1.18-.77,2.2-1.86,3.32-2.72A48.05,48.05,0,0,1,187.09,59Z"/><path class="cls-3" d="M178.9,47.79a6.67,6.67,0,0,1,2.6-2.69,3.72,3.72,0,0,1,4.31,1c1.32,1.59,1,4,.35,5.91a25.55,25.55,0,0,1-5.72,8.71c-1.18,1.25-2.43,2.42-3.69,3.58a30.7,30.7,0,0,1-3.74,3.4c-.55-.76,0-3,.08-3.94a33.52,33.52,0,0,1,.73-4.1,39.27,39.27,0,0,1,5.08-11.85Z"/><path class="cls-6" d="M179.14,66.69c.73,1.62-1.68,4.26-5.37,5.91s-7.26,1.66-8,0,1.68-4.26,5.37-5.9S178.42,65.07,179.14,66.69Z"/><path class="cls-8" d="M63.74,184.56c-.39-.17-.77-.35-1.15-.54a53.8,53.8,0,0,0-7.09-9.62c-2.11-2.34-4.38-4.61-6.58-6.81a119,119,0,0,1-9.63-10.4,63.46,63.46,0,0,1-6.88-10.83c-.87-1.73-1.66-3.49-2.37-5.26-6.2-15.36-6.7-31.94-5.64-44.72l0-.44a99.48,99.48,0,0,1,4-21.6c.14-.47.29-.93.45-1.39s.21-.61.32-.92.2-.58.32-.86.26-.72.4-1.08a6.07,6.07,0,0,1,.24-.59c.28-.74.59-1.47.9-2.18a.29.29,0,0,1,.14-.15.33.33,0,0,1,.1-.06s0,0,0,0a.43.43,0,0,1,.25,0,.24.24,0,0,1,.13.11.37.37,0,0,1,.06.38c-.09.21-.19.42-.28.64-.54,1.25-1,2.55-1.51,3.88q-.2.52-.36,1A96.06,96.06,0,0,0,25.18,96l0,.41c-1.44,17.29,0,41.66,14.72,60.31a120.38,120.38,0,0,0,9.58,10.33c2.2,2.2,4.49,4.48,6.61,6.84A53.74,53.74,0,0,1,63.74,184.56Z"/><path class="cls-8" d="M24.17,141.41c-3.89-1.24-8-1.88-11.66-3.67a7.71,7.71,0,0,1-3.81-3.32c-.74-1.55-.42-3.71,1.08-4.56s3.36-.09,5.08-.07c-3.69-4.93-6.71-10.85-6.11-17a4.49,4.49,0,0,1,1.18-3,3.3,3.3,0,0,1,3.2-.5,6.77,6.77,0,0,1,2.73,2c2.28,2.49,3.62,5.67,4.9,8.8,1.93,4.75,3.8,9.52,5.88,14.21s4.73,9,7.06,13.59A17.82,17.82,0,0,0,24.17,141.41Z"/><path class="cls-7" d="M28,53.76c-.28-2.75-.25-5.75,1.36-8,1.09-1.51,3.12-2.53,4.84-1.82s2.31,2.48,2.59,4.16c.77,4.62-.64,9.31-2,13.79a43.81,43.81,0,0,1-2.87,7.35,12.84,12.84,0,0,1-.76-2.61c-.3-1.36-.95-2.67-1.35-4A46.33,46.33,0,0,1,28,53.76Z"/><path class="cls-7" d="M17.27,59.77c-2-1.87-4-4.13-4.29-6.88-.19-1.85.65-4,2.41-4.57s3.37.31,4.7,1.38c3.65,2.94,5.71,7.38,7.64,11.65a43.28,43.28,0,0,1,2.74,7.41,13.25,13.25,0,0,1-2.3-1.45c-1.12-.82-2.48-1.37-3.67-2.1A46.68,46.68,0,0,1,17.27,59.77Z"/><path class="cls-7" d="M14.76,70.35c-2.75-.33-5.66-1-7.5-3.09-1.23-1.39-1.78-3.6-.7-5.12s2.92-1.7,4.62-1.61c4.68.26,8.94,2.67,13,5A43.53,43.53,0,0,1,30.73,70a13.72,13.72,0,0,1-2.72.16c-1.39,0-2.82.34-4.21.44A46.3,46.3,0,0,1,14.76,70.35Z"/><path class="cls-7" d="M20,83.77c-2,1.92-4.36,3.75-7.12,3.87C11.06,87.72,9,86.75,8.49,85c-.45-1.64.52-3.34,1.67-4.6,3.15-3.48,7.7-5.26,12.08-6.94a43.66,43.66,0,0,1,7.56-2.29,13.58,13.58,0,0,1-1.59,2.21c-.88,1.07-1.51,2.4-2.31,3.54A46.48,46.48,0,0,1,20,83.77Z"/><path class="cls-7" d="M31.18,87.53c-.28,2.75-.91,5.68-2.94,7.55-1.37,1.26-3.56,1.86-5.1.81S21.37,93,21.43,91.3c.17-4.69,2.49-9,4.75-13.1a43.75,43.75,0,0,1,4.29-6.63,13.59,13.59,0,0,1,.22,2.71c0,1.39.39,2.81.52,4.2A47.18,47.18,0,0,1,31.18,87.53Z"/><path class="cls-7" d="M42.8,83.57c1.63,2.23,3.13,4.83,2.87,7.58-.17,1.85-1.4,3.76-3.25,4-1.69.23-3.24-1-4.33-2.27-3-3.59-4.18-8.34-5.24-12.91a42.76,42.76,0,0,1-1.25-7.8,13.91,13.91,0,0,1,2,1.87c1,1,2.17,1.83,3.2,2.77A47.15,47.15,0,0,1,42.8,83.57Z"/><path class="cls-7" d="M48,71.85c2.67.74,5.45,1.85,7,4.17,1,1.56,1.23,3.82-.06,5.16s-3.14,1.26-4.81.91c-4.59-.94-8.45-4-12.12-6.87a44.14,44.14,0,0,1-5.82-5.35,13.81,13.81,0,0,1,2.71.25c1.38.21,2.84.08,4.23.18A47.22,47.22,0,0,1,48,71.85Z"/><path class="cls-7" d="M49.32,58.23A6.6,6.6,0,0,1,53,58a3.66,3.66,0,0,1,2.53,3.54c-.08,2-1.84,3.6-3.63,4.57A25.13,25.13,0,0,1,42,68.72c-1.68.14-3.37.18-5.06.21a31.74,31.74,0,0,1-5,0c.09-.92,1.95-2.23,2.64-2.84a33,33,0,0,1,3.23-2.53A38.12,38.12,0,0,1,45,59.7,40.77,40.77,0,0,1,49.32,58.23Z"/><path class="cls-6" d="M37.1,72.27c-.53,1.66-4,2-7.82.81s-6.42-3.54-5.89-5.2,4-2,7.82-.82S37.63,70.61,37.1,72.27Z"/><path class="cls-2" d="M80.77,34.45a11,11,0,0,1-2.88,7.46l-.24.26a11.09,11.09,0,0,1-5.25,3l-.26.06a11.29,11.29,0,0,1-2.48.28,11.06,11.06,0,0,1-4-.74l-.26-.11A10.76,10.76,0,0,1,62.55,43l-.2-.17a11.11,11.11,0,0,1-3.19-4.73L59,37.69a11.14,11.14,0,0,1-.48-3.24,11,11,0,0,1,.29-2.51A10.67,10.67,0,0,1,60,29.06a11.11,11.11,0,0,1,7.27-5.45,2,2,0,0,1,.34-.06,10.39,10.39,0,0,1,2.1-.21,10.6,10.6,0,0,1,1.88.16l.25.05a11.08,11.08,0,0,1,8.83,9.1,2.36,2.36,0,0,1,0,.28A10.88,10.88,0,0,1,80.77,34.45Z"/><path class="cls-9" d="M115.62,69.3a10.69,10.69,0,0,1-.24,2.28,1.18,1.18,0,0,1-.06.27,11,11,0,0,1-3.06,5.4,1.07,1.07,0,0,1-.19.18,11,11,0,0,1-7.56,3,10,10,0,0,1-1.1-.06,1.09,1.09,0,0,1-.26,0,11,11,0,0,1-6.34-3l-.19-.18a11.07,11.07,0,0,1-1.45-1.81,2.25,2.25,0,0,1-.12-.21,11,11,0,0,1-1.53-7.32,4,4,0,0,1,.08-.48,11.11,11.11,0,0,1,4.69-7.2h0l.42-.26a11.12,11.12,0,0,1,12.87.91l.21.18A11.15,11.15,0,0,1,114,63.6a2.39,2.39,0,0,1,.13.21A11.08,11.08,0,0,1,115.62,69.3Z"/><path class="cls-3" d="M111.59,60.73A12.47,12.47,0,0,1,104.26,62c-.38-.06-.76-.15-1.12-.23a7.5,7.5,0,0,0-2.9-.29,7.21,7.21,0,0,0-3.83,2.58c.38-.65.73-1.32,1.08-2s.79-1.5,1.21-2.22l0,0-.42.26h0c-.36.62-.7,1.26-1,1.88a35.87,35.87,0,0,1-1.79,3.12c-.64.72-1.27,1.45-1.88,2.2a4,4,0,0,0-.08.48l.07-.09c.23-.19.45-.4.66-.61a13.42,13.42,0,0,0,1.43-1.83c.28-.31.56-.61.83-.92,1.08-1.17,2.25-2.34,3.77-2.59a7.42,7.42,0,0,1,2.8.28c.37.09.75.18,1.13.24a12.84,12.84,0,0,0,7.59-1.34ZM114,63.6a10.59,10.59,0,0,0-1,1.05c-.25.31-.49.65-.72,1A12.57,12.57,0,0,1,111,67.38a3.45,3.45,0,0,1-3,1.08A4.8,4.8,0,0,1,106,67.31a4.71,4.71,0,0,0-2.17-1.22,3.29,3.29,0,0,0-2.89,1.31,10.26,10.26,0,0,0-1.3,2.15l-.31.62a13.08,13.08,0,0,1-4.28,4.92,2.25,2.25,0,0,0,.12.21,13.31,13.31,0,0,0,4.38-5c.1-.2.21-.41.31-.62a10,10,0,0,1,1.27-2.1,3.1,3.1,0,0,1,2.66-1.22,4.48,4.48,0,0,1,2.06,1.17,5.08,5.08,0,0,0,2,1.2,3.69,3.69,0,0,0,3.27-1.15,12.42,12.42,0,0,0,1.45-1.8c.23-.32.47-.65.71-1a10.47,10.47,0,0,1,.89-1A2.39,2.39,0,0,0,114,63.6Zm-1.72,8.17a23.73,23.73,0,0,1-3.76-.7,27.51,27.51,0,0,0-3.3-.65c-2.9-.34-5.37.49-6.61,2.23a9.14,9.14,0,0,0-1,2.14c-.13.37-.27.75-.44,1.12l-.29.62c-.09.19-.19.38-.28.58l.19.18c.1-.22.21-.43.31-.65s.21-.42.3-.63c.17-.37.31-.76.45-1.13a8.87,8.87,0,0,1,1-2.09c1.19-1.66,3.57-2.46,6.38-2.12a25.91,25.91,0,0,1,3.27.65,25.21,25.21,0,0,0,3.8.7,11.32,11.32,0,0,0,3-.17,1.18,1.18,0,0,0,.06-.27A10.81,10.81,0,0,1,112.32,71.77Zm-2.12,2.79a3,3,0,0,0-1.48-.19,5.87,5.87,0,0,0-5,4c-.07.23-.13.48-.19.72a8.56,8.56,0,0,1-.38,1.21,1.09,1.09,0,0,0,.26,0,8.83,8.83,0,0,0,.36-1.17c.06-.24.12-.48.19-.71a5.61,5.61,0,0,1,4.78-3.84,2.71,2.71,0,0,1,1.36.17,3.67,3.67,0,0,1,1.52,1.83c.14.27.29.55.45.81a1.07,1.07,0,0,0,.19-.18c-.15-.24-.29-.5-.42-.75A3.92,3.92,0,0,0,110.2,74.56Z"/><path class="cls-3" d="M60,29.06c-.39,1-.76,1.91-1.1,2.88A10.67,10.67,0,0,1,60,29.06Z"/><path class="cls-3" d="M64.31,28.29a49.36,49.36,0,0,0-5.15,9.78L59,37.69a49.92,49.92,0,0,1,5.07-9.55c.38-.56.78-1.13,1.17-1.68.66-.92,1.33-1.87,1.94-2.85a2,2,0,0,1,.34-.06c-.65,1.05-1.37,2.07-2.07,3.06C65.1,27.16,64.7,27.72,64.31,28.29Z"/><path class="cls-3" d="M71.79,23.55c0,.16-.05.32-.08.48-.15.88-.31,1.79-.53,2.67A8.23,8.23,0,0,1,68,31.84a9.29,9.29,0,0,1-1,.55,9,9,0,0,0-1.16.68c-1.81,1.34-2.14,3.62-2.48,6A17.9,17.9,0,0,1,62.55,43l-.2-.17a18.56,18.56,0,0,0,.79-3.73c.34-2.36.69-4.8,2.58-6.2a8.53,8.53,0,0,1,1.2-.7c.32-.17.64-.34,1-.53a8.07,8.07,0,0,0,3.07-5c.22-.87.37-1.78.52-2.65,0-.16.06-.33.08-.49Z"/><path class="cls-3" d="M77.85,40.36l0,1.55-.24.26-.05-1.81a8.33,8.33,0,0,0-.45-3.06A2.78,2.78,0,0,0,75,35.46c-1.36-.12-2.49,1.18-2.79,2.51a9.5,9.5,0,0,0,0,3.36c0,.28.07.57.1.85a19.15,19.15,0,0,1,.09,3l-.26.06a18.53,18.53,0,0,0-.08-3.07c0-.28-.06-.56-.1-.84a9.75,9.75,0,0,1,0-3.45c.32-1.42,1.55-2.84,3-2.7a3.06,3.06,0,0,1,2.42,2A8.88,8.88,0,0,1,77.85,40.36Z"/><path class="cls-3" d="M80.66,32.93a4.54,4.54,0,0,1-2.52.85h-.06a8.38,8.38,0,0,1-2.38-.47,9.52,9.52,0,0,0-2-.46c-2.58-.19-4.79,1.82-6,3.76a13.59,13.59,0,0,0-2,8.2l-.26-.11a13.82,13.82,0,0,1,2.06-8.22c1.26-2,3.55-4.07,6.23-3.88a9.22,9.22,0,0,1,2.08.47,8,8,0,0,0,2.31.46h.06a4.28,4.28,0,0,0,2.48-.88A2.36,2.36,0,0,1,80.66,32.93Z"/><path class="cls-3" d="M149.83,35.09a11,11,0,0,1-.36,2.82,2.17,2.17,0,0,1-.07.24,11.09,11.09,0,0,1-4.21,6l-.25.18a11.13,11.13,0,0,1-6.21,1.89,10.69,10.69,0,0,1-2-.18l-.24,0a11.06,11.06,0,0,1-6.08-3.49,2,2,0,0,1-.19-.22,11.17,11.17,0,0,1-1.57-2.42,2.52,2.52,0,0,1-.14-.33,11.13,11.13,0,0,1-.8-6.06l.06-.35A11.11,11.11,0,0,1,138.73,24a10.94,10.94,0,0,1,1.91.17,5.79,5.79,0,0,1,.6.12,10.73,10.73,0,0,1,2.72,1l.22.13A11.09,11.09,0,0,1,149.83,35.09Z"/><path class="cls-6" d="M131.83,30.08c-1.19,1.05-2.41,2.14-3.68,3.08l-.41.29.06-.35L128,33c1.26-.94,2.48-2,3.66-3.07,2.7-2.41,5.48-4.88,9-5.74a5.79,5.79,0,0,1,.6.12l-.26.05C137.41,25.11,134.57,27.63,131.83,30.08Z"/><path class="cls-6" d="M144.18,25.42a4.4,4.4,0,0,0-.35.39A9.84,9.84,0,0,0,142.35,29c-.15.46-.3.93-.48,1.38-.37.95-1.46,3.2-3.54,3.43a5.71,5.71,0,0,1-2.5-.47,5.52,5.52,0,0,0-2.42-.45c-1.67.2-2.73,1.85-3.33,3.2C129.67,37,129.33,38,129,39c-.1.3-.21.59-.32.89a2.52,2.52,0,0,1-.14-.33l.23-.65c.33-.94.67-1.92,1.08-2.84.63-1.41,1.75-3.14,3.53-3.35a5.69,5.69,0,0,1,2.53.46,5.61,5.61,0,0,0,2.4.46c1.94-.21,3-2.36,3.33-3.27.17-.45.32-.91.47-1.37a10.27,10.27,0,0,1,1.52-3.29,3.8,3.8,0,0,1,.33-.37Z"/><path class="cls-6" d="M145,41.17a8.8,8.8,0,0,1,.15,2.18c0,.26,0,.52,0,.77l-.25.18c0-.31,0-.63,0-.95a8.73,8.73,0,0,0-.14-2.12,2.09,2.09,0,0,0-.51-1,2,2,0,0,0-.72-.47A4.27,4.27,0,0,0,139.06,41a10.21,10.21,0,0,0-2.17,4.5c0,.17-.09.35-.13.52l-.24,0c0-.18.08-.36.13-.54a10.34,10.34,0,0,1,2.23-4.61,4.52,4.52,0,0,1,4.78-1.31,2.2,2.2,0,0,1,.81.53A2.33,2.33,0,0,1,145,41.17Z"/><path class="cls-6" d="M149.47,37.91a2.17,2.17,0,0,1-.07.24,6.62,6.62,0,0,1-1.33-.32,14.74,14.74,0,0,1-1.71-.79,5.84,5.84,0,0,0-4.9-.87l-.73.12c-.69.1-1.4.13-2.09.17a11,11,0,0,0-4.13.74c-1.74.81-3.11,2.59-4.07,5.28a2,2,0,0,1-.19-.22c1-2.68,2.38-4.46,4.15-5.29a11.26,11.26,0,0,1,4.22-.76c.69,0,1.4-.07,2.08-.17l.72-.12a8.25,8.25,0,0,1,2.11-.17,8,8,0,0,1,2.95,1.06,11.63,11.63,0,0,0,1.68.78A6.43,6.43,0,0,0,149.47,37.91Z"/><path class="cls-3" d="M166.86,39.5l-2.92.52-.52,2.92a.09.09,0,0,1-.18,0L162.72,40l-2.91-.52a.09.09,0,0,1,0-.18l2.91-.52.52-2.92a.09.09,0,0,1,.18,0l.52,2.92,2.92.52A.09.09,0,0,1,166.86,39.5Z"/><path class="cls-3" d="M142.17,60.83l-5,.9-.9,5a.16.16,0,0,1-.31,0l-.89-5-5-.9a.15.15,0,0,1,0-.3l5-.9.89-5a.16.16,0,0,1,.31,0l.9,5,5,.9A.15.15,0,0,1,142.17,60.83Z"/><path class="cls-3" d="M108.42,29.08l-6.89,1.24-1.24,6.89a.21.21,0,0,1-.42,0l-1.23-6.89-6.89-1.24a.21.21,0,0,1,0-.42l6.89-1.23,1.23-6.89a.21.21,0,0,1,.42,0l1.24,6.89,6.89,1.23A.21.21,0,0,1,108.42,29.08Z"/><path class="cls-3" d="M90.24,71.53l-2.92.52L86.8,75a.09.09,0,0,1-.18,0l-.52-2.92-2.92-.52a.09.09,0,0,1,0-.18l2.92-.52.52-2.92a.09.09,0,0,1,.18,0l.52,2.92,2.92.52A.09.09,0,0,1,90.24,71.53Z"/><path class="cls-3" d="M48.19,39.5,45.28,40l-.53,2.92a.09.09,0,0,1-.17,0L44.05,40l-2.91-.52a.09.09,0,0,1,0-.18l2.91-.52.53-2.92a.09.09,0,0,1,.17,0l.53,2.92,2.91.52A.09.09,0,0,1,48.19,39.5Z"/><path class="cls-3" d="M72.85,60.74a2.94,2.94,0,1,1-2.94-2.93A2.93,2.93,0,0,1,72.85,60.74Z"/><circle class="cls-3" cx="88.17" cy="18.57" r="1.53"/><circle class="cls-3" cx="84.25" cy="57.89" r="1.53"/><path class="cls-3" d="M37.28,42.91a1.54,1.54,0,1,1-1.54-1.53A1.54,1.54,0,0,1,37.28,42.91Z"/><path class="cls-3" d="M50.64,29.55A1.54,1.54,0,1,1,49.11,28,1.54,1.54,0,0,1,50.64,29.55Z"/><circle class="cls-3" cx="123.91" cy="55.43" r="1.53"/><path class="cls-3" d="M150.13,48.87a1.54,1.54,0,1,1-1.53-1.53A1.53,1.53,0,0,1,150.13,48.87Z"/><path class="cls-3" d="M160.68,31a1.53,1.53,0,1,1-1.53-1.53A1.53,1.53,0,0,1,160.68,31Z"/><path class="cls-3" d="M173,50.66a1.53,1.53,0,1,1-1.53-1.53A1.53,1.53,0,0,1,173,50.66Z"/><path class="cls-3" d="M140.94,77.64a1.54,1.54,0,1,1-1.54-1.53A1.54,1.54,0,0,1,140.94,77.64Z"/><path class="cls-3" d="M64.85,49.72a1.53,1.53,0,1,1-1.53-1.53A1.54,1.54,0,0,1,64.85,49.72Z"/><circle class="cls-3" cx="113.87" cy="17.38" r="2.72"/><path class="cls-3" d="M115.8,36.73a2.73,2.73,0,1,1-3.85,0A2.74,2.74,0,0,1,115.8,36.73Z"/></g></g></svg>