<svg xmlns="http://www.w3.org/2000/svg" viewBox="0 0 199 199"><defs><style>.cls-1{fill:#fff;}.cls-2{fill:#4d5ceb;}.cls-3{fill:#fc595e;}.cls-4{fill:#fe83e8;}.cls-5{fill:#fdcc72;}.cls-6{fill:#84d2ee;}.cls-7{fill:#030912;}.cls-8{fill:#f7e7d8;}</style></defs><title>Asset 4</title><g id="Layer_2" data-name="Layer 2"><g id="OBJECTS"><path class="cls-1" d="M99.5,199c-1.09,0-2.17,0-3.25-.06l-1,0c-.79,0-1.56-.07-2.33-.12l-1-.07c-.89-.07-1.78-.15-2.66-.24l-.56-.05c-1-.12-2.09-.25-3.14-.4l-.86-.12-2.35-.38-.94-.17c-.89-.16-1.77-.34-2.64-.53l-.44-.09c-1.1-.23-2.19-.49-3.27-.76l-.16-.05c-1-.25-2-.53-3.07-.83h0l-.73-.22c-2.07-.61-4.15-1.3-6.15-2.05l-1-.39-2-.78-1-.4c-.93-.39-1.85-.79-2.77-1.21-.45-.2-.89-.41-1.32-.62-1.27-.61-2.57-1.26-3.87-1.95l-.34-.18c-1.29-.7-2.4-1.31-3.43-1.92l-.77-.47-.52-.32c-.79-.48-1.59-1-2.37-1.46-.34-.22-.67-.45-1-.68l-.86-.58c-.57-.38-1.14-.76-1.7-1.16l-.62-.43c-.43-.31-.83-.61-1.22-.91l-.82-.62-.77-.58c-.82-.63-1.61-1.28-2.39-1.93l-.24-.19-.52-.42c-1-.83-2-1.71-3-2.61l-.71-.66-.35-.34c-.66-.62-1.27-1.19-1.86-1.77l-.9-.92-.27-.28c-.55-.56-1.09-1.12-1.63-1.7-.37-.39-.74-.8-1.1-1.21-.58-.64-1.09-1.22-1.6-1.8L22.92,163c-.5-.6-1-1.21-1.48-1.83-.35-.44-.69-.87-1-1.32l-.49-.62-.39-.52c-.17-.23-.32-.44-.46-.65l-.19-.27c-.44-.61-.88-1.24-1.32-1.87s-.83-1.21-1.24-1.83-.83-1.29-1.23-1.94l-.25-.4c-.31-.49-.62-1-.91-1.48-.42-.7-.82-1.41-1.21-2.12l-.4-.7c-.2-.36-.41-.72-.6-1.09-.76-1.41-1.42-2.72-2-4-.49-1-1-2.09-1.53-3.38l-.21-.49c-.44-1-.85-2-1.25-3.07l-.1-.24c-.07-.18-.14-.36-.2-.54-.37-.95-.73-1.95-1.07-3-.23-.66-.45-1.33-.67-2a1.72,1.72,0,0,0-.07-.21c-.43-1.4-.85-2.85-1.24-4.31-.12-.46-.23-.91-.34-1.37l-.29-1.2c-.16-.66-.32-1.32-.46-2s-.29-1.42-.42-2.14l-.22-1.15c-.08-.44-.17-.88-.24-1.32-.19-1.12-.34-2.26-.49-3.39l-.13-.93c0-.19-.05-.39-.08-.58v-.13c0-.11,0-.22,0-.33-.2-1.72-.35-3.55-.45-5.42v-.26c-.08-1.49-.12-2.81-.14-4.08,0-.45,0-.9,0-1.35,0-.85,0-1.71,0-2.56A98.71,98.71,0,0,1,.91,86c0-.41.11-.79.17-1.17.29-2,.64-4,1-5.87.05-.25.1-.49.16-.74L2.35,78A94.28,94.28,0,0,1,5,68.34c.66-2,1.31-3.8,2-5.49.4-1,.87-2.15,1.39-3.34a1,1,0,0,0,.07-.15c.25-.56.51-1.12.77-1.68.78-1.7,1.62-3.38,2.48-5,.7-1.31,1.45-2.65,2.24-4l.23-.39.65-1.06A98.59,98.59,0,0,1,31.65,26.73,98.87,98.87,0,0,1,46.29,15.42c1.4-.9,3-1.84,4.58-2.75A98.27,98.27,0,0,1,85.37,1C86,.91,86.54.84,87.12.76a102.32,102.32,0,0,1,12-.76h.41a100.83,100.83,0,0,1,21.65,2.36c3,.68,6.11,1.51,9.1,2.49a98.55,98.55,0,0,1,33.86,19c1.11.94,2.2,1.92,3.33,3,2,1.84,3.88,3.79,5.73,5.81a99.35,99.35,0,0,1,8.39,10.61c1.35,2,2.65,4,3.87,6.1.46.77,1,1.67,1.55,2.75.75,1.35,1.51,2.83,2.28,4.46.39.8.79,1.68,1.18,2.55.92,2.07,1.77,4.15,2.52,6.2.59,1.62,1.09,3.1,1.52,4.53.55,1.72,1.09,3.64,1.59,5.63.41,1.69.77,3.33,1.08,4.91a2.93,2.93,0,0,1,0,.29,98,98,0,0,1,1.54,11.59c0,.08,0,.32,0,.36.07,1,.12,2.11.16,3.17,0,.06,0,.13,0,.17q.06,1.75.06,3.57c0,.71,0,1.42,0,2.13,0,1-.06,2-.11,3,0,.29-.09,1.46-.09,1.46,0,.5-.06,1-.1,1.5,0,.26-.2,2.16-.2,2.16l-.09.86-.1.78c-.09.77-.19,1.56-.3,2.35,0,.16,0,.28-.06.4l-.08.5c-.22,1.47-.47,2.89-.74,4.25l0,.25c0,.12-.11.48-.11.48-.31,1.51-.6,2.84-.91,4.06a99.59,99.59,0,0,1-3.45,11c-.51,1.36-1.08,2.75-1.73,4.26l-.18.44c-.56,1.28-1.18,2.59-1.87,4l-.6,1.21c-.08.17-.17.34-.26.5-.17.34-.35.67-.54,1l-.52,1c-.23.44-.47.87-.71,1.3-.73,1.3-1.47,2.55-2.2,3.73l-.37.56-.16.25c-.65,1-1.3,2-2,3-.21.32-.43.62-.65.93l-.26.36c-.58.8-1.16,1.6-1.76,2.39l-1,1.35c-.59.75-1.19,1.49-1.81,2.23l-.1.13c-.33.39-.65.78-1,1.16-.65.76-1.32,1.51-2,2.26l-.3.33c-.23.26-.47.52-.71.77-1,1-1.92,2-2.9,2.95-1.56,1.53-3.27,3.07-5.21,4.71l-.27.23c-.55.47-1.1.94-1.67,1.39l-1.09.85-.4.31c-.71.56-1.44,1.11-2.17,1.65l-1.36,1-.13.09c-.77.54-1.54,1.06-2.32,1.58-.49.33-1,.65-1.49,1-.81.52-1.64,1-2.47,1.52l-.23.13c-.4.25-.81.49-1.22.73-.91.52-1.84,1-2.77,1.52l-.42.22-.84.45c-1.44.74-2.76,1.38-4.05,2l-.59.28-1,.42c-1.26.55-2.59,1.1-4,1.63l-.94.34-.46.17q-1.38.51-2.76,1l-1.18.37-.47.15c-.88.28-1.76.55-2.65.81l-1.21.32-.36.1c-1,.26-2,.51-3,.75l-.51.12c-.83.2-1.73.4-2.64.58l-.14,0c-.82.17-1.59.31-2.36.44l-.56.09-.21,0c-.74.12-1.48.24-2.22.34s-1.48.21-2.23.3l-1.85.2c-.88.09-1.78.17-2.67.24l-.55,0-.84.05-.89,0-1.39.07C101.91,199,100.67,199,99.5,199Z"/><path class="cls-2" d="M193,99.5c0,.68,0,1.36,0,2,0,1-.06,2-.11,2.93h0a93.87,93.87,0,0,1-2.64,17.71A92.29,92.29,0,0,1,187,132.55a93.79,93.79,0,0,1-48.71,52c-.42.2-.86.39-1.29.58h0a91.89,91.89,0,0,1-16.47,5.44c-1.6.38-3.21.7-4.84,1a93.83,93.83,0,0,1-55-7c-.39-.17-.77-.35-1.15-.54a93.81,93.81,0,0,1-44.39-44.26,91.43,91.43,0,0,1-4.09-10c-.22-.64-.43-1.28-.64-1.93h0A92.75,92.75,0,0,1,6.6,110.09c0-.43-.1-.87-.13-1.31-.28-2.66-.42-5.37-.45-8.1,0-.39,0-.79,0-1.18,0-.7,0-1.41,0-2.11v-.3a93.61,93.61,0,0,1,.82-10.25c.05-.36.1-.71.16-1.07.27-1.88.6-3.75,1-5.59.06-.33.14-.65.21-1a87.45,87.45,0,0,1,2.46-9c.57-1.73,1.18-3.44,1.86-5.13C13,64,13.39,63,13.85,61.94l0-.06c.24-.56.5-1.12.76-1.68.73-1.58,1.51-3.15,2.33-4.68.68-1.27,1.39-2.53,2.12-3.77.26-.43.52-.87.79-1.3a95.2,95.2,0,0,1,7.92-11,94.41,94.41,0,0,1,21.7-19q2.11-1.36,4.31-2.59a92.6,92.6,0,0,1,32.46-11c.55-.09,1.1-.16,1.65-.23A96.2,96.2,0,0,1,99.12,6h.38a94.07,94.07,0,0,1,20.35,2.22q4.35,1,8.54,2.33a93.09,93.09,0,0,1,31.82,17.84c1.07.91,2.11,1.84,3.14,2.8q2.81,2.62,5.38,5.46a92.67,92.67,0,0,1,7.88,10q1.92,2.79,3.63,5.73c.51.85,1,1.71,1.46,2.58.76,1.37,1.47,2.77,2.14,4.18.39.8.76,1.61,1.12,2.42q1.28,2.86,2.36,5.82c.51,1.39,1,2.79,1.42,4.21.56,1.76,1.06,3.55,1.51,5.35.37,1.52.71,3.06,1,4.61,0,.07,0,.13,0,.2a93,93,0,0,1,1.46,11c0,.08,0,.17,0,.25C192.93,95.15,193,97.31,193,99.5Z"/><path class="cls-3" d="M185,61.52a38.54,38.54,0,0,1-2.43,8.64A31.22,31.22,0,0,1,178,78a34.18,34.18,0,0,1-11.61,9c-10.06,4.91-21.88,5.6-32.79,3.11a65.75,65.75,0,0,1-12.66-4.35,80.05,80.05,0,0,1-10.14-5.6l-.61-.39q-.44-.29-1.08-.66c-2.53-1.49-7-4-6.44-6.5.26-1.29,1.81-2.39,2.68-3.27a21,21,0,0,0,3.59-4.63c1.73-3.14,3.25-7.52,7.24-8.33s8.35,2.85,11.81.77c1.67-1,2.4-3,3.16-4.79,1.15-2.71,2.94-5.54,5.8-6.24,3.62-.88,7.77,2,11,.07,2-1.19,2.67-3.79,2.6-6.12s-.7-4.64-.5-7,1.55-4.8,3.84-5.24c1.92-.37,3.83.8,5.78.7a3.2,3.2,0,0,0,.62-.09c1.07.91,2.11,1.84,3.14,2.8q2.81,2.62,5.38,5.46a92.67,92.67,0,0,1,7.88,10q1.92,2.79,3.63,5.73c.51.85,1,1.71,1.46,2.58.76,1.37,1.47,2.77,2.14,4.18C184.23,59.9,184.6,60.71,185,61.52Z"/><path class="cls-4" d="M191.26,81.51A47.84,47.84,0,0,1,176,93.74a49.52,49.52,0,0,1-49.89-3.89,63.53,63.53,0,0,1-5.21-4.18c-2.65-2.32-5.18-4.78-7.8-7.13-.5-.45-1.23-1-1.88-1.68h0c-.11-.1-.21-.22-.32-.33-.86-1-1.45-2.07-.88-3.21.87-1.77,4.36-3.06,5.76-4.69,1.67-1.94,2.86-4.25,4.51-6.21s4-3.62,6.53-3.52c2.74.1,5,2.15,7.68,2.8a8,8,0,0,0,8.45-3.49c1-1.65,1.37-3.62,2.29-5.32s2.76-3.21,4.64-2.73c1.61.42,2.54,2.1,4,3,2.79,1.64,6.46-.49,8.09-3.28s2-6.15,3.37-9.1a9.71,9.71,0,0,1,3.43-4.07,92.67,92.67,0,0,1,7.88,10q1.92,2.79,3.63,5.73c.51.85,1,1.71,1.46,2.58.76,1.37,1.47,2.77,2.14,4.18.39.8.76,1.61,1.12,2.42q1.28,2.86,2.36,5.82c.51,1.39,1,2.79,1.42,4.21.56,1.76,1.06,3.55,1.51,5.35C190.62,78.42,191,80,191.26,81.51Z"/><path class="cls-5" d="M192.78,93a50.41,50.41,0,0,1-8.4,5.54c-10.2,5.33-22,7.11-33.51,6.16-9-.75-18-3.17-25.58-8a39.61,39.61,0,0,1-12.12-12,17.18,17.18,0,0,1-2.42-4.62,3.87,3.87,0,0,1,.09-2.45,5.87,5.87,0,0,1,.37-.76h0a12.69,12.69,0,0,1,1-1.48c1-1.29,2.29-2.56,3.16-3.61,1.92-2.29,4.72-4.24,7.84-3.94,3.76.37,6.53,3.8,10.17,4.79A8.41,8.41,0,0,0,142,69.77c1.28-1.63,1.9-3.66,2.91-5.46s2.7-3.49,4.77-3.5c2.88,0,4.65,3,6.21,5.45,2.47,3.85,6.82,7.38,11.23,6.15s6.25-6.22,7.53-10.56c1.06-3.59,2.62-7.62,5.61-9.51.51.85,1,1.71,1.46,2.58.76,1.37,1.47,2.77,2.14,4.18.39.8.76,1.61,1.12,2.42q1.28,2.86,2.36,5.82c.51,1.39,1,2.79,1.42,4.21.56,1.76,1.06,3.55,1.51,5.35.37,1.52.71,3.06,1,4.61,0,.07,0,.13,0,.2a93,93,0,0,1,1.46,11C192.77,92.83,192.77,92.92,192.78,93Z"/><path class="cls-6" d="M193,99.5c0,.68,0,1.36,0,2,0,1-.06,2-.11,2.93h0a45.28,45.28,0,0,1-4.77,2.28c-12.25,5-26.1,4.82-39,2.09-6.93-1.46-13.8-3.67-19.79-7.45A70.82,70.82,0,0,1,116,89.8c-2.52-2.65-8.36-6.81-6.91-10.78a4.53,4.53,0,0,1,.67-1.2,14,14,0,0,1,1.16-1.3,13.51,13.51,0,0,1,1.34-1.15c3-2.24,6.94-3.43,10.17-1.34,2,1.3,3.08,3.58,4.58,5.42,2.81,3.44,7.79,5.39,11.88,3.66,2.6-1.1,4.44-3.42,6.54-5.31s5-3.46,7.67-2.57c2.94,1,4.24,4.42,6.68,6.33a7.74,7.74,0,0,0,9.16.08c2.54-1.92,3.59-5.18,5.27-7.89s4.93-5.15,7.85-3.86a4.82,4.82,0,0,1,.5.27c2.85,1.71,3.79,6.43,7.14,6.74a2.81,2.81,0,0,0,.58,0c.37,1.52.71,3.06,1,4.61,0,.07,0,.13,0,.2a93,93,0,0,1,1.46,11c0,.08,0,.17,0,.25C192.93,95.15,193,97.31,193,99.5Z"/><path class="cls-3" d="M88.39,82.34c-.42.25-.79.47-1.08.66l-.61.39A80.36,80.36,0,0,1,76.54,89a65.63,65.63,0,0,1-12.65,4.34C53,95.83,41.16,95.14,31.11,90.23a34.18,34.18,0,0,1-11.61-9,31.22,31.22,0,0,1-4.58-7.8,37,37,0,0,1-2.38-8.39C13,64,13.39,63,13.85,61.94l0-.06c.24-.56.5-1.12.76-1.68.73-1.58,1.51-3.15,2.33-4.68.68-1.27,1.39-2.53,2.12-3.77.26-.43.52-.87.79-1.3a95.2,95.2,0,0,1,7.92-11,92,92,0,0,1,7.93-8.35,4.53,4.53,0,0,0,2.12.67c2,.1,3.87-1.07,5.79-.7,2.28.44,3.64,2.92,3.84,5.24s-.43,4.63-.5,7,.6,4.93,2.6,6.12c3.2,1.91,7.35-1,11-.07,2.86.7,4.64,3.53,5.79,6.24.76,1.79,1.49,3.79,3.16,4.79,3.47,2.07,7.86-1.57,11.82-.77s5.51,5.19,7.24,8.33a20.91,20.91,0,0,0,3.59,4.63c.87.88,2.42,2,2.68,3.27C95.34,78.34,90.93,80.84,88.39,82.34Z"/><path class="cls-4" d="M86.56,79.84l-.32.33h0c-.65.65-1.39,1.23-1.89,1.68-2.63,2.35-5.16,4.81-7.81,7.14-1.67,1.46-3.39,2.87-5.2,4.17a49.53,49.53,0,0,1-49.88,3.89A47.57,47.57,0,0,1,7,85.77c.27-1.88.6-3.75,1-5.59.06-.33.14-.65.21-1a87.45,87.45,0,0,1,2.46-9c.57-1.73,1.18-3.44,1.86-5.13C13,64,13.39,63,13.85,61.94l0-.06c.24-.56.5-1.12.76-1.68.73-1.58,1.51-3.15,2.33-4.68.68-1.27,1.39-2.53,2.12-3.77.26-.43.52-.87.79-1.3a95.2,95.2,0,0,1,7.92-11A9.12,9.12,0,0,1,32.15,44c1.35,3,1.74,6.29,3.37,9.09s5.3,4.92,8.09,3.28c1.43-.84,2.36-2.52,4-2.94,1.87-.48,3.72,1,4.64,2.73s1.28,3.67,2.29,5.32A8,8,0,0,0,63,65c2.66-.65,4.94-2.7,7.67-2.8,2.56-.1,4.89,1.56,6.53,3.52S80,70,81.68,71.94c1.4,1.63,4.89,2.92,5.76,4.69C88,77.77,87.41,78.88,86.56,79.84Z"/><path class="cls-5" d="M86.7,83.39A17.18,17.18,0,0,1,84.28,88a39.72,39.72,0,0,1-12.12,12c-7.61,4.85-16.59,7.27-25.58,8-11.47.94-23.31-.83-33.51-6.16a50.13,50.13,0,0,1-7-4.47v-.3a93.61,93.61,0,0,1,.82-10.25c.05-.36.1-.71.16-1.07.27-1.88.6-3.75,1-5.59.06-.33.14-.65.21-1a87.45,87.45,0,0,1,2.46-9c.57-1.73,1.18-3.44,1.86-5.13C13,64,13.39,63,13.85,61.94l0-.06c.24-.56.5-1.12.76-1.68.73-1.58,1.51-3.15,2.33-4.68,3.15,1.81,4.76,6,5.84,9.65,1.29,4.34,3.17,9.35,7.53,10.56s8.77-2.3,11.24-6.15c1.55-2.44,3.32-5.47,6.21-5.45,2.07,0,3.75,1.7,4.76,3.5s1.64,3.83,2.92,5.46a8.41,8.41,0,0,0,8.58,2.84c3.64-1,6.41-4.42,10.17-4.79,3.12-.3,5.92,1.65,7.83,3.94.87,1,2.14,2.31,3.16,3.6a14.29,14.29,0,0,1,1,1.49h0a5.87,5.87,0,0,1,.37.76A3.87,3.87,0,0,1,86.7,83.39Z"/><path class="cls-6" d="M81.48,93.12a70.82,70.82,0,0,1-13.29,11.6c-6,3.78-12.86,6-19.8,7.45-12.94,2.73-26.79,2.91-39-2.09-1-.39-1.93-.83-2.87-1.3-.28-2.66-.42-5.37-.45-8.1,0-.39,0-.79,0-1.18,0-.7,0-1.41,0-2.11v-.3a93.61,93.61,0,0,1,.82-10.25c.05-.36.1-.71.16-1.07.27-1.88.6-3.75,1-5.59,3.17-.49,4.12-5,6.91-6.7a4.82,4.82,0,0,1,.5-.27c2.91-1.29,6.17,1.14,7.85,3.86S26,83,28.54,85a7.73,7.73,0,0,0,9.15-.08c2.45-1.91,3.75-5.34,6.69-6.33,2.68-.89,5.56.67,7.66,2.56s3.94,4.22,6.55,5.32c4.09,1.73,9.07-.22,11.88-3.66,1.5-1.85,2.58-4.13,4.58-5.42,3.22-2.09,7.21-.91,10.16,1.33a13.72,13.72,0,0,1,1.35,1.16,14,14,0,0,1,1.16,1.3,4.53,4.53,0,0,1,.67,1.2C89.84,86.31,84,90.47,81.48,93.12Z"/><path class="cls-1" d="M142.9,75.82C135,69.5,127.22,64,117.08,61.09c-.89-.26-1.79-.49-2.69-.7-22.68-5.33-45.16,3.48-62.2,18.48-5.62,4.95-12.65,10.56-19.6,13.61.83-.36,5.32,3.49,6.09,4.07,2,1.5,3.94,3.1,5.86,4.71a100.4,100.4,0,0,0,11.91,9.15,75.44,75.44,0,0,0,29.36,10c16.58,2.19,34.76.79,50.12-6.13,12.94-5.83,19.77-15.41,30.82-21.78-.63.37-5.71-3.41-6.28-3.77a146.33,146.33,0,0,1-14-10C145.28,77.74,144.09,76.77,142.9,75.82Z"/><circle class="cls-5" cx="99.59" cy="89.64" r="26.3"/><circle class="cls-7" cx="100.05" cy="88.71" r="14.54" transform="translate(-9.16 165.86) rotate(-76.8)"/><path class="cls-4" d="M193,101.54A91.76,91.76,0,0,1,192,113c0,.26-.07.53-.12.79q-.65,4.28-1.68,8.42A92.29,92.29,0,0,1,187,132.55a93.83,93.83,0,0,1-4,9.11c-.1.19-.19.38-.3.57a93.47,93.47,0,0,1-18.12,24.42,4.86,4.86,0,0,1-.41.38,93.25,93.25,0,0,1-25.87,17.57l-.43.2-.48.21-.38.17h0a92.75,92.75,0,0,1-31.13,7.6,4.36,4.36,0,0,1-.51,0q-2.9.19-5.84.19a93.19,93.19,0,0,1-26.14-3.71l-.48-.14a90.88,90.88,0,0,1-12.25-4.59c-.39-.17-.77-.35-1.15-.54a93.68,93.68,0,0,1-14.2-8.34l-.42-.3a94.12,94.12,0,0,1-20.19-19.81l-.34-.45a93.14,93.14,0,0,1-9.24-15.36q-1.59-3.34-2.93-6.82c-.08-.19-.15-.38-.22-.58-.33-.87-.64-1.74-.94-2.62-.22-.64-.43-1.28-.64-1.93h0a92.23,92.23,0,0,1-3.67-17c0-.22-.06-.45-.09-.67v0A88.53,88.53,0,0,1,6,100.68a38.59,38.59,0,0,1,10.07-2.2c.22,0,.45,0,.67,0a36.43,36.43,0,0,1,15.61,2.33l.12,0L33,101c4.64,1.9,8.9,4.66,13.55,6.52.32.13.65.26,1,.37l.48.18a29.32,29.32,0,0,0,17.2,1c.63-.17,1.26-.36,1.87-.59q.3-.09.6-.21c6-2.24,11.25-6.34,17.35-8.4a28.25,28.25,0,0,1,3.72-1l.53-.09a28.34,28.34,0,0,1,16.3,2.09c.59.27,1.18.56,1.75.87l.5.26c4.7,2.59,8.87,6.16,13.81,8.29a26,26,0,0,0,6.28,1.82l.52.08a26.9,26.9,0,0,0,13.5-1.57,34.18,34.18,0,0,0,5.67-2.93l.44-.28c5.19-3.33,9.89-7.61,15.44-10.26l.45-.21c.39-.18.78-.35,1.18-.51a26.23,26.23,0,0,1,16.47-.83,5.27,5.27,0,0,1,.68.19A29.37,29.37,0,0,1,193,101.54Z"/><path class="cls-8" d="M16.76,98.43,6.69,110.79c0-.22-.06-.45-.09-.67l9.49-11.64C16.31,98.45,16.54,98.44,16.76,98.43Z"/><path class="cls-8" d="M33,101l-20.8,31.94c-.08-.19-.15-.38-.22-.58l20.55-31.55Z"/><path class="cls-8" d="M48,108.07l-23.3,47.5-.34-.45,23.16-47.23Z"/><path class="cls-8" d="M67.64,108.31,45.28,175.68l-.42-.3L67,108.52Q67.34,108.43,67.64,108.31Z"/><path class="cls-8" d="M89.24,98.85,73.36,189.29l-.48-.14L88.71,98.94Z"/><path class="cls-8" d="M107.79,102.07l-1.94,90.71a4.36,4.36,0,0,1-.51,0l2-91Z"/><path class="cls-8" d="M137.85,184.8l-.48.21-9.49-72.83.52.08Z"/><path class="cls-8" d="M164.56,166.65a4.86,4.86,0,0,1-.41.38l-16.58-59.27.44-.28Z"/><path class="cls-8" d="M183,141.66c-.1.19-.19.38-.3.57l-19.23-45,.45-.21Z"/><path class="cls-8" d="M192,113c0,.26-.07.53-.12.79l-10.36-18.1a5.27,5.27,0,0,1,.68.19Z"/><path class="cls-7" d="M115.67,191.6a93.83,93.83,0,0,1-55-7c-.39-.17-.77-.35-1.15-.54a93.81,93.81,0,0,1-44.39-44.26,91.43,91.43,0,0,1-4.09-10c-.22-.64-.43-1.28-.64-1.93h0A92.75,92.75,0,0,1,6.6,110.09,88.53,88.53,0,0,1,6,100.68c0-.39,0-.79,0-1.18,0-.8,0-1.61,0-2.41a17.56,17.56,0,0,1,2.29,1.18A22.58,22.58,0,0,1,18,122.55a20.22,20.22,0,0,1,16.79-8.17,20.24,20.24,0,0,1,16.14,9.4c3.34,5.41,3.89,12.17,2.83,18.44s-3.6,12.17-6.12,18a20.41,20.41,0,0,1,12.5-7.48,15.76,15.76,0,0,1,13.65,4.38c5.24,5.51,5.09,14.06,4.5,21.64,6-6.89,16.86-7.56,25.21-3.93,4.89,2.12,9.41,5.74,11.29,10.74A14.37,14.37,0,0,1,115.67,191.6Z"/><path class="cls-7" d="M193,99.5c0,.68,0,1.36,0,2a93.6,93.6,0,0,1-2.75,20.65A92.29,92.29,0,0,1,187,132.55a93.79,93.79,0,0,1-48.71,52c-.42.2-.86.39-1.29.58h0a91.89,91.89,0,0,1-16.47,5.44,8.61,8.61,0,0,1-.23-.94c-1.13-5.71-.77-16.66,3.62-21a10.63,10.63,0,0,1,6.29-2.68,18.5,18.5,0,0,1,14.54,4.68,55.72,55.72,0,0,1,4.86-22.28c1.75-3.91,4.35-7.93,8.47-9.09,5.47-1.55,10.79,2.52,15,6.31a72.72,72.72,0,0,1,1.36-30.09c1.69-6.5,4.41-13,9.25-17.6a21.13,21.13,0,0,1,9.06-5.16Q193,96.1,193,99.5Z"/><path class="cls-8" d="M167.47,42.22l-2.92.52L164,45.66a.09.09,0,0,1-.18,0l-.52-2.92-2.92-.52a.09.09,0,0,1,0-.18l2.92-.52.52-2.92a.09.09,0,0,1,.18,0l.52,2.92,2.92.52A.09.09,0,0,1,167.47,42.22Z"/><path class="cls-8" d="M150.73,59.29l-5,.9-.89,5a.16.16,0,0,1-.31,0l-.89-5-5-.9a.16.16,0,0,1,0-.31l5-.89.89-5a.16.16,0,0,1,.31,0l.89,5,5,.89A.16.16,0,0,1,150.73,59.29Z"/><path class="cls-8" d="M99.94,33.54l-5.43,1-1,5.44a.17.17,0,0,1-.33,0l-1-5.44-5.44-1a.17.17,0,0,1,0-.33l5.44-1,1-5.43a.17.17,0,0,1,.33,0l1,5.43,5.43,1A.17.17,0,0,1,99.94,33.54Z"/><path class="cls-8" d="M90.81,58.15l-2.21.4-.4,2.22a.07.07,0,0,1-.13,0l-.4-2.22-2.22-.4a.07.07,0,0,1,0-.13l2.22-.4.4-2.21a.07.07,0,0,1,.13,0l.4,2.21,2.21.4A.07.07,0,0,1,90.81,58.15Z"/><path class="cls-8" d="M58.89,33.83l-2.22.4-.4,2.21a.07.07,0,0,1-.13,0l-.4-2.21-2.21-.4a.07.07,0,0,1,0-.14l2.21-.39.4-2.22a.07.07,0,0,1,.13,0l.4,2.22,2.22.39C59,33.71,59,33.82,58.89,33.83Z"/><circle class="cls-8" cx="75.38" cy="49.96" r="2.23"/><path class="cls-8" d="M90.41,17.94a1.17,1.17,0,1,1-1.17-1.17A1.16,1.16,0,0,1,90.41,17.94Z"/><circle class="cls-8" cx="86.27" cy="47.8" r="1.16"/><path class="cls-8" d="M50.59,36.42a1.16,1.16,0,1,1-1.16-1.16A1.16,1.16,0,0,1,50.59,36.42Z"/><path class="cls-8" d="M60.74,26.28a1.17,1.17,0,1,1-1.16-1.17A1.16,1.16,0,0,1,60.74,26.28Z"/><path class="cls-8" d="M117.55,45.92a1.16,1.16,0,1,1-1.16-1.16A1.16,1.16,0,0,1,117.55,45.92Z"/><path class="cls-8" d="M136.3,41a1.17,1.17,0,1,1-1.17-1.17A1.16,1.16,0,0,1,136.3,41Z"/><circle class="cls-8" cx="143.15" cy="27.37" r="1.16"/><path class="cls-8" d="M153.68,42.3a1.16,1.16,0,1,1-1.16-1.16A1.16,1.16,0,0,1,153.68,42.3Z"/><path class="cls-8" d="M129.32,62.79a1.17,1.17,0,1,1-1.17-1.16A1.17,1.17,0,0,1,129.32,62.79Z"/><path class="cls-8" d="M71.53,41.59a1.16,1.16,0,1,1-1.16-1.16A1.16,1.16,0,0,1,71.53,41.59Z"/><path class="cls-8" d="M110.83,17A2.07,2.07,0,1,1,108.76,15,2.06,2.06,0,0,1,110.83,17Z"/><circle class="cls-8" cx="108.76" cy="33.19" r="2.07"/><path class="cls-1" d="M90.16,134.06a14.91,14.91,0,1,1,25.67,0,14.9,14.9,0,0,0-25.67,0Z"/><path class="cls-1" d="M121.19,146.14c-3.25-2.6-6.45-4.87-10.62-6.06-.36-.1-.73-.2-1.1-.28-9.32-2.19-18.57,1.43-25.57,7.59a33.54,33.54,0,0,1-8.06,5.6c.34-.15,2.19,1.43,2.51,1.67.82.62,1.61,1.28,2.4,1.94a42.45,42.45,0,0,0,4.9,3.76,31,31,0,0,0,12.07,4.1c6.81.9,14.29.33,20.6-2.52,5.32-2.4,8.13-6.33,12.67-8.95-.26.15-2.35-1.4-2.58-1.55a59.49,59.49,0,0,1-5.75-4.11Z"/><circle class="cls-7" cx="103.57" cy="151.44" r="9.89"/></g></g></svg>