<svg xmlns="http://www.w3.org/2000/svg" viewBox="0 0 199 202.72"><defs><style>.cls-1{fill:#fff;}.cls-2{fill:#fc595e;}.cls-3{fill:#84d2ee;}.cls-4{fill:#f7e7d8;}.cls-5{fill:#fdcc72;}.cls-6{fill:#4d5ceb;}.cls-7{fill:#fe83e8;}.cls-10,.cls-8{fill:none;stroke:#030912;stroke-linecap:round;stroke-linejoin:round;}.cls-9{fill:#030912;}.cls-10{stroke-width:2px;}</style></defs><title>Asset 3</title><g id="Layer_2" data-name="Layer 2"><g id="OBJECTS"><path class="cls-1" d="M99.5,202.72a98.75,98.75,0,0,1-39.27-8.06c-.67-.29-1.37-.59-2.06-.91-.44-.19-.88-.4-1.31-.62A99.78,99.78,0,0,1,9.67,146.06a97.84,97.84,0,0,1-4.35-10.67l-.07-.19c-.2-.57-.4-1.2-.6-1.83l-.07-.22A99.39,99.39,0,0,1,.64,114.47c-.06-.46-.11-1-.15-1.45-.21-2-.35-4.17-.43-6.44,0-.68,0-1.34,0-2,0-.45,0-.91,0-1.36,0-.73,0-1.47,0-2.2v-.37A99.11,99.11,0,0,1,.91,89.74c0-.4.11-.78.17-1.17.29-2,.64-4,1-5.86.05-.25.1-.51.16-.76l.06-.27A94.28,94.28,0,0,1,5,72.05c.66-2,1.32-3.8,2-5.48.4-1,.86-2.14,1.39-3.34l.07-.14c.24-.57.5-1.13.77-1.7.78-1.69,1.61-3.37,2.48-5,.7-1.3,1.45-2.64,2.24-4l.24-.39c.21-.35.42-.71.64-1.05a101.52,101.52,0,0,1,8.39-11.63c1.27-1.51,2.59-3,4-4.44a21.88,21.88,0,0,1-.25-3.24,20,20,0,0,1,.55-4.7,20.28,20.28,0,0,1,2.06-5.39A20.75,20.75,0,0,1,43,11.45a6.8,6.8,0,0,1,.92-.18,20.07,20.07,0,0,1,3.73-.35,21,21,0,0,1,3.42.28l.7.14a20.64,20.64,0,0,1,5.32,1.86A98.17,98.17,0,0,1,85.37,4.73c.6-.1,1.19-.18,1.79-.25a100.82,100.82,0,0,1,11.93-.76h.41a100.2,100.2,0,0,1,21.65,2.36c1.47.32,2.95.69,4.48,1.12.46-.41.94-.79,1.42-1.16l.84-.62a29.38,29.38,0,0,1,7.72-3.91A28.77,28.77,0,0,1,142.14.14C143.05.05,144,0,145,0a28.41,28.41,0,0,1,5.3.5A29.29,29.29,0,0,1,169.88,14a9.36,9.36,0,0,1,.6,1.08A28,28,0,0,1,172.65,20a29,29,0,0,1,1.15,4.73c.07.38.1.7.12.93a29.12,29.12,0,0,1-.66,10.76,99.92,99.92,0,0,1,8.3,10.51c1.35,2,2.66,4,3.87,6.1.45.75.95,1.64,1.55,2.74.75,1.36,1.51,2.84,2.28,4.46.39.81.79,1.69,1.18,2.56.92,2.07,1.77,4.15,2.51,6.2.6,1.62,1.1,3.11,1.53,4.53.55,1.72,1.09,3.64,1.59,5.63.41,1.69.77,3.34,1.08,4.93a2.38,2.38,0,0,1,0,.26A98.37,98.37,0,0,1,198.74,96c0,.07.11,1.64.11,1.68.1,1.93.15,3.75.15,5.58,0,.71,0,1.42,0,2.13,0,1.05-.06,2.07-.11,3.08a.25.25,0,0,0,0,.08,99,99,0,0,1-6.26,29.88,101,101,0,0,1-5.1,11.32c-.18.33-.35.63-.53.94a99.88,99.88,0,0,1-30.64,34.23c-.18.14-.38.28-.58.41a99.25,99.25,0,0,1-15,8.48c-.29.15-.69.32-1.08.49l-.51.22a97.24,97.24,0,0,1-17.34,5.71c-1.59.38-3.29.72-5.15,1-2.14.38-4.36.69-6.59.92A98.36,98.36,0,0,1,99.5,202.72Z"/><path class="cls-2" d="M193.51,103.22c0,.68,0,1.36,0,2,0,1-.06,2-.11,2.93h0a93.87,93.87,0,0,1-2.64,17.71,92.29,92.29,0,0,1-3.24,10.36,93.44,93.44,0,0,1-4.8,10.64l-.46.83a93.53,93.53,0,0,1-29.09,32.4.18.18,0,0,1-.09.07,92.78,92.78,0,0,1-14.27,8.11c-.42.2-.86.39-1.29.58h0A91.89,91.89,0,0,1,121,194.34c-1.6.38-3.21.7-4.84,1q-3.06.54-6.2.87a93.79,93.79,0,0,1-46.87-7c-.66-.28-1.32-.57-2-.87-.39-.17-.77-.35-1.15-.54A93.77,93.77,0,0,1,15.6,143.48a91.43,91.43,0,0,1-4.09-10l-.06-.17c-.2-.58-.39-1.17-.58-1.76h0a92.75,92.75,0,0,1-3.76-17.71c-.05-.43-.1-.87-.13-1.31-.21-2-.34-4.06-.41-6.12,0-.66,0-1.32,0-2,0-.39,0-.79,0-1.18,0-.7,0-1.41,0-2.11v-.3a93.61,93.61,0,0,1,.82-10.25c0-.36.1-.71.16-1.07.27-1.88.6-3.75,1-5.59.06-.33.14-.65.21-1a87.45,87.45,0,0,1,2.46-9c.57-1.73,1.18-3.44,1.86-5.13.41-1.06.85-2.11,1.31-3.15l0-.06c.24-.56.5-1.12.76-1.68.73-1.58,1.51-3.15,2.33-4.68.68-1.27,1.39-2.53,2.12-3.77.26-.43.52-.87.79-1.3a95.2,95.2,0,0,1,7.92-11,94.41,94.41,0,0,1,21.7-19q2.12-1.37,4.31-2.59a92.6,92.6,0,0,1,32.46-11c.55-.09,1.1-.16,1.65-.23a96.2,96.2,0,0,1,11.2-.71H100a94.07,94.07,0,0,1,20.35,2.22q4.35,1,8.54,2.33a93.09,93.09,0,0,1,31.82,17.84c1.07.91,2.11,1.84,3.14,2.8q2.8,2.63,5.38,5.46a92.67,92.67,0,0,1,7.88,10q1.92,2.79,3.63,5.73c.51.85,1,1.71,1.46,2.58.76,1.37,1.47,2.77,2.14,4.18.39.8.76,1.61,1.12,2.42q1.28,2.87,2.36,5.82c.51,1.39,1,2.79,1.42,4.21.56,1.76,1.06,3.55,1.51,5.35.37,1.52.71,3.06,1,4.61,0,.07,0,.13,0,.2a93,93,0,0,1,1.46,11c0,.08,0,.17,0,.25,0,.41.05.82.08,1.23C193.46,99.7,193.51,101.45,193.51,103.22Z"/><path class="cls-3" d="M152.74,51.37A23.18,23.18,0,0,1,136,50.59c-.23-.1-.46-.2-.67-.31a23.16,23.16,0,0,1-9.53-8.42l-.29-.48a23.43,23.43,0,0,1-3.38-13.19c0-.21,0-.41,0-.59a22.4,22.4,0,0,1,1.55-6.82c0-.17.13-.33.2-.51a23.29,23.29,0,0,1,7.29-9.47l.68-.5A23.48,23.48,0,0,1,138,7.2a23.86,23.86,0,0,1,11.64-.81,23.32,23.32,0,0,1,15.66,10.85,5.58,5.58,0,0,1,.35.63,22.5,22.5,0,0,1,2.73,7.89,3.21,3.21,0,0,1,.07.53,23.23,23.23,0,0,1-12.24,23.59,4.34,4.34,0,0,1-.53.26A24.08,24.08,0,0,1,152.74,51.37Z"/><path class="cls-4" d="M149.65,6.39c-2.14-.14-4.3-.24-6.45-.27A22.42,22.42,0,0,1,149.65,6.39Z"/><path class="cls-4" d="M154.08,14.55a103.55,103.55,0,0,0-22.87-3.75l.68-.5a104.46,104.46,0,0,1,22.35,3.76c1.37.38,2.77.8,4.12,1.21,2.26.7,4.6,1.4,6.95,2a5.58,5.58,0,0,1,.35.63c-2.52-.59-5-1.35-7.46-2.08C156.85,15.38,155.47,15,154.08,14.55Z"/><path class="cls-4" d="M168.46,26.29c-.34,0-.67.11-1,.15-1.85.29-3.76.57-5.66.72-5.23.4-9.38-.58-12.33-2.92a18.31,18.31,0,0,1-1.73-1.56,20,20,0,0,0-2.13-1.86C141.74,18.11,137,19,132,19.9a37.67,37.67,0,0,1-8.23.88c0-.17.13-.33.2-.51a38.36,38.36,0,0,0,7.94-.9c4.92-.89,10-1.81,14,1a17.58,17.58,0,0,1,2.19,1.93c.55.52,1.1,1,1.68,1.53,2.85,2.24,6.87,3.17,12,2.79,1.88-.14,3.79-.44,5.62-.72l1-.16A3.21,3.21,0,0,1,168.46,26.29Z"/><path class="cls-4" d="M139.05,49.48,136,50.59c-.23-.1-.46-.2-.67-.31l3.56-1.3a17.37,17.37,0,0,0,5.79-2.92,5.82,5.82,0,0,0,2.2-5.6c-.66-2.78-4-4.16-6.84-3.88a20.08,20.08,0,0,0-6.65,2.33l-1.62.76a40.62,40.62,0,0,1-6,2.19l-.29-.48a39.37,39.37,0,0,0,6.05-2.19l1.61-.76A20.34,20.34,0,0,1,140,36.06c3-.3,6.68,1.2,7.39,4.28A6.4,6.4,0,0,1,145,46.47,18.82,18.82,0,0,1,139.05,49.48Z"/><path class="cls-4" d="M155.69,50.14a9.43,9.43,0,0,1-3.36-4.45l0-.12a17.58,17.58,0,0,1-.65-5,20,20,0,0,0-.42-4.32c-1.33-5.26-6.79-8.32-11.46-9.46a28.53,28.53,0,0,0-17.64,1.44c0-.21,0-.41,0-.59a28.89,28.89,0,0,1,17.71-1.35c4.81,1.18,10.44,4.36,11.84,9.81a19.66,19.66,0,0,1,.45,4.45,17.11,17.11,0,0,0,.61,4.9l0,.12a9,9,0,0,0,3.4,4.35A4.34,4.34,0,0,1,155.69,50.14Z"/><path class="cls-5" d="M62.9,31.67a14.7,14.7,0,0,1-3.82,9.91l-.32.34a14.79,14.79,0,0,1-7,4l-.35.08a14.85,14.85,0,0,1-8.6-.61l-.35-.15A14.18,14.18,0,0,1,38.71,43c-.09-.06-.17-.14-.27-.22a14.84,14.84,0,0,1-4.23-6.28c-.05-.16-.11-.33-.16-.51a14.81,14.81,0,0,1-.64-4.3,14.66,14.66,0,0,1,.39-3.33,13.68,13.68,0,0,1,1.46-3.82,14.73,14.73,0,0,1,9.65-7.24,2.51,2.51,0,0,1,.45-.08,13.47,13.47,0,0,1,2.79-.28,14.71,14.71,0,0,1,2.5.21l.33.07A14.69,14.69,0,0,1,62.7,29.28a2.2,2.2,0,0,1,0,.37A13.53,13.53,0,0,1,62.9,31.67Z"/><path class="cls-4" d="M35.26,24.52c-.52,1.26-1,2.53-1.46,3.82A13.68,13.68,0,0,1,35.26,24.52Z"/><path class="cls-4" d="M41.05,23.49a65.48,65.48,0,0,0-6.84,13c-.05-.16-.11-.33-.16-.51a66.66,66.66,0,0,1,6.73-12.68l1.55-2.23c.88-1.22,1.77-2.48,2.58-3.78a2.51,2.51,0,0,1,.45-.08c-.86,1.39-1.82,2.75-2.75,4.06C42.1,22,41.56,22.74,41.05,23.49Z"/><path class="cls-4" d="M51,17.2c0,.21-.07.42-.11.64-.2,1.17-.41,2.37-.7,3.54-.81,3.23-2.23,5.53-4.22,6.83a13.73,13.73,0,0,1-1.29.73,10.85,10.85,0,0,0-1.54.9c-2.41,1.78-2.84,4.81-3.29,8A24.27,24.27,0,0,1,38.71,43c-.09-.06-.17-.14-.27-.22a24.71,24.71,0,0,0,1.05-4.95c.45-3.14.92-6.38,3.43-8.24a11.57,11.57,0,0,1,1.59-.93c.43-.22.85-.45,1.26-.7,1.92-1.26,3.28-3.49,4.08-6.64.29-1.15.49-2.36.69-3.52,0-.21.08-.43.11-.65Z"/><path class="cls-4" d="M59,39.52l.06,2.06-.32.34-.07-2.4a10.71,10.71,0,0,0-.6-4.06A3.69,3.69,0,0,0,55.17,33c-1.8-.16-3.3,1.57-3.7,3.34a12.63,12.63,0,0,0,.07,4.46c0,.37.09.75.13,1.12a27.1,27.1,0,0,1,.12,4l-.35.08a25.29,25.29,0,0,0-.1-4.08c0-.37-.08-.74-.14-1.11a13,13,0,0,1-.05-4.58c.43-1.89,2.06-3.78,4.05-3.59a4.05,4.05,0,0,1,3.21,2.64A11.54,11.54,0,0,1,59,39.52Z"/><path class="cls-4" d="M62.75,29.65a6,6,0,0,1-3.34,1.13h-.08a11.29,11.29,0,0,1-3.16-.62,12.08,12.08,0,0,0-2.68-.61c-3.43-.25-6.36,2.41-8,5a18.06,18.06,0,0,0-2.67,10.89l-.35-.15a18.35,18.35,0,0,1,2.74-10.91c1.67-2.66,4.71-5.41,8.27-5.15a11.87,11.87,0,0,1,2.76.62,10.87,10.87,0,0,0,3.07.61h.08a5.62,5.62,0,0,0,3.29-1.17A2.2,2.2,0,0,1,62.75,29.65Z"/><circle class="cls-4" cx="172.35" cy="73.26" r="10.04" transform="translate(61.6 224.28) rotate(-76.78)"/><circle class="cls-4" cx="28.69" cy="80.75" r="10.04" transform="translate(-56.49 90.12) rotate(-76.72)"/><path class="cls-4" d="M97.27,20.19l-7,1.25-1.25,7a.22.22,0,0,1-.43,0l-1.25-7-7-1.25a.22.22,0,0,1,0-.43l7-1.25,1.25-7a.22.22,0,0,1,.43,0l1.25,7,7,1.25A.22.22,0,0,1,97.27,20.19Z"/><path class="cls-4" d="M186.4,113.69l-5.71,1-1,5.71a.18.18,0,0,1-.35,0l-1-5.71-5.71-1a.18.18,0,0,1,0-.35l5.71-1,1-5.72a.18.18,0,0,1,.35,0l1,5.72,5.71,1A.18.18,0,0,1,186.4,113.69Z"/><path class="cls-4" d="M22.49,113.69l-5.72,1-1,5.71a.18.18,0,0,1-.35,0l-1-5.71-5.71-1a.18.18,0,0,1,0-.35l5.71-1,1-5.72a.18.18,0,0,1,.35,0l1,5.72,5.72,1A.18.18,0,0,1,22.49,113.69Z"/><path class="cls-4" d="M35.16,56.11a2.94,2.94,0,1,1-2.94-2.93A2.94,2.94,0,0,1,35.16,56.11Z"/><path class="cls-4" d="M111,23.43a2.94,2.94,0,1,1-2.94-2.93A2.94,2.94,0,0,1,111,23.43Z"/><circle class="cls-4" cx="71.67" cy="29.81" r="1.91"/><circle class="cls-4" cx="158.86" cy="57.26" r="1.91"/><path class="cls-4" d="M188.47,86.24a1.91,1.91,0,1,1-1.91-1.91A1.9,1.9,0,0,1,188.47,86.24Z"/><circle class="cls-4" cx="168.56" cy="130.03" r="1.91"/><circle class="cls-4" cx="13.07" cy="94.03" r="1.91"/><path class="cls-4" d="M32.09,101.05a2.94,2.94,0,1,1-2.93-2.94A2.93,2.93,0,0,1,32.09,101.05Z"/><path class="cls-5" d="M98.41,82.6l-87,50.69c-.2-.58-.39-1.17-.58-1.76h0a92.75,92.75,0,0,1-3.76-17.71c-.05-.43-.1-.87-.13-1.31-.21-2-.34-4.06-.41-6.12Z"/><path class="cls-6" d="M98.41,82.6,28.22,163.13A93.27,93.27,0,0,1,15.6,143.48a91.43,91.43,0,0,1-4.09-10l-.06-.17Z"/><path class="cls-3" d="M98.41,82.6,63.11,189.15c-.66-.28-1.32-.57-2-.87-.39-.17-.77-.35-1.15-.54a93.8,93.8,0,0,1-31.77-24.61Z"/><path class="cls-4" d="M110,196.19a93.79,93.79,0,0,1-46.87-7L98.41,82.6Z"/><path class="cls-2" d="M153.15,180.14a.18.18,0,0,1-.09.07,92.78,92.78,0,0,1-14.27,8.11c-.42.2-.86.39-1.29.58h0A91.89,91.89,0,0,1,121,194.34c-1.6.38-3.21.7-4.84,1q-3.06.54-6.2.87L98.41,82.6l1.34-.41.29.52h0l.53,1,0,0h0Z"/><path class="cls-5" d="M182.7,146.91l-.46.83a93.53,93.53,0,0,1-29.09,32.4.18.18,0,0,1-.09.07l-54-97.65,1.48,1.14Z"/><path class="cls-6" d="M193.51,103.22c0,.68,0,1.36,0,2,0,1-.06,2-.11,2.93h0a93.87,93.87,0,0,1-2.64,17.71,92.29,92.29,0,0,1-3.24,10.36,93.44,93.44,0,0,1-4.8,10.64l-.46.83-81.65-64h0l-1.5-1.17,1,.15h0L193.37,98C193.46,99.7,193.51,101.45,193.51,103.22Z"/><path class="cls-7" d="M169,118.06a21.22,21.22,0,0,1-5.53,8.45,14.37,14.37,0,0,1-9.23,3.79,12.42,12.42,0,0,1-7.34-2.38c-2.24,14.56-10.11,26.55-25.44,28.58-17.36,2.3-46,5-61.79-5.11-4.84-3.09-7.65-10.91-9.23-20.2a11.3,11.3,0,0,1-1.54.81c-6.05,2.65-13.62.27-17.82-4.83s-5.25-12.35-3.64-18.75c.84-3.36,2.46-6.68,5.28-8.7a12.15,12.15,0,0,1,10.48-1.46,13.93,13.93,0,0,1,4,1.92,14.83,14.83,0,0,1,1.45,1.17c.14-10.35.84-18.13.84-18.13h.1A49.71,49.71,0,0,1,113,38.56c.35.09.7.2,1,.31a49.74,49.74,0,0,1,34.75,47.42c0,1.47-.08,2.93-.2,4.38-.05,1.94-.11,4.31-.19,7l.65-.53a12.22,12.22,0,0,1,9.45-2.53,13.78,13.78,0,0,1,9.83,6.84C171.16,106.43,171,112.7,169,118.06Z"/><path class="cls-8" d="M30,104.37A13.68,13.68,0,0,1,36.66,108c6.11,5.59,9.16,13.83,10.52,22"/><path class="cls-8" d="M163.93,98.12a32.42,32.42,0,0,0-10.61,12.43,53.67,53.67,0,0,0-4.8,15.74"/><path class="cls-9" d="M43.15,98.26s5.79,1.38,10.13,8c0,0,5.11-5.87,4.09-18.13,0,0,17.36,4.86,21.19-20.42,0,0,19.66,10.47,30.38-11.23,0,0,8.68,12.25,20.17,1.53,0,0-1.53,8.68,8.94,10.47,0,0-8.17,6.63-6.64,14S141.62,91,141.62,91s.77,9.19,7.66,11.75c0,0,14.56-34.21,2.3-48.26-9.2-10.54-19.4-9.7-19.4-9.7S120.94,32,96.69,32.5,51,47.56,45.62,64.67C41.06,79.23,43.15,98.26,43.15,98.26Z"/><path class="cls-10" d="M75.58,98.73a36.93,36.93,0,0,0,46.52-.11"/><line class="cls-10" x1="81.96" y1="102.71" x2="73.79" y2="110.2"/><line class="cls-10" x1="90.82" y1="106.11" x2="88.43" y2="116.5"/><line class="cls-10" x1="101.2" y1="106.96" x2="101.54" y2="117.18"/><line class="cls-10" x1="110.39" y1="105.09" x2="115.67" y2="115.47"/><line class="cls-10" x1="119.07" y1="100.84" x2="126.9" y2="108.84"/><path class="cls-10" d="M91.18,123.94a12.78,12.78,0,0,0,20.07-.76"/><path class="cls-1" d="M109.49,78.54a9,9,0,1,1-15.56,0,9,9,0,0,0,15.56,0Z"/><path class="cls-1" d="M113,172a24.28,24.28,0,0,0-8.65-4.93c-.29-.09-.59-.16-.9-.24C95.81,165,88.28,168,82.57,173A27.34,27.34,0,0,1,76,177.56c.27-.12,1.78,1.17,2,1.36.67.51,1.32,1.05,2,1.58a33.84,33.84,0,0,0,4,3.07,25.24,25.24,0,0,0,9.83,3.34,31.57,31.57,0,0,0,16.79-2c4.33-2,6.62-5.16,10.32-7.3-.21.13-1.91-1.14-2.1-1.26a49.91,49.91,0,0,1-4.69-3.35Z"/><circle class="cls-9" cx="98.6" cy="176.3" r="8.06" transform="translate(-91.19 245.47) rotate(-80.81)"/></g></g></svg>