<svg xmlns="http://www.w3.org/2000/svg" viewBox="0 0 207.83 207.83"><defs><style>.cls-1{fill:#fff;}.cls-2{fill:#fdcc72;}.cls-3{fill:#84d2ee;}.cls-4{fill:#fe83e8;}.cls-5{fill:#030912;}.cls-6{fill:#4d5ceb;}.cls-7{fill:none;stroke:#030912;stroke-miterlimit:10;stroke-width:1.04px;}.cls-8{fill:#f7e7d8;}</style></defs><title>Asset 2</title><g id="Layer_2" data-name="Layer 2"><g id="OBJECTS"><path class="cls-1" d="M103.92,207.83c-1.28,0-2.66,0-4.22-.09h-.61c-1.33-.06-2.79-.16-4.25-.29l-.56-.05c-1.47-.13-2.91-.29-4.29-.48l-.44-.06c-1.59-.22-3-.45-4.38-.7h0c-1.41-.26-2.84-.56-4.38-.91l-.32-.07c-1.32-.3-2.66-.64-4.12-1l-.54-.15c-1.35-.38-2.68-.78-4-1.2l-.54-.18c-1.43-.48-2.71-.93-4-1.4l-.44-.16c-1.43-.55-2.73-1.08-4-1.61-.71-.3-1.44-.62-2.16-.95-.46-.2-.91-.42-1.37-.64A105,105,0,0,1,24.13,170.5c-.8-.95-1.62-2-2.58-3.23l-.58-.76c-1.68-2.23-3.28-4.52-4.73-6.79l-.06-.09c-.62-1-1.25-2-1.87-3.08l-.61-1c-.44-.78-.87-1.55-1.29-2.34l-.61-1.12c-.64-1.24-1.2-2.34-1.7-3.39a101.63,101.63,0,0,1-4.54-11.14,1,1,0,0,1-.06-.16c-.22-.65-.44-1.3-.65-2l-.06-.23a103.06,103.06,0,0,1-4.13-19.5c-.05-.48-.11-1-.15-1.51-.21-2.1-.36-4.36-.44-6.73,0-.68,0-1.34,0-2v-.09c0-.48,0-1,0-1.43,0-.76,0-1.54,0-2.3v-.38A102.54,102.54,0,0,1,1,89.85c.06-.46.12-.87.19-1.3a.35.35,0,0,0,0-.06c.29-2,.65-4,1.07-6,0-.26.11-.51.17-.77l.06-.29A100.17,100.17,0,0,1,5.2,71.37c.69-2.09,1.37-4,2.08-5.73.42-1.08.9-2.24,1.45-3.48L8.8,62q.39-.89.81-1.77c.82-1.77,1.69-3.52,2.59-5.2.73-1.37,1.52-2.77,2.34-4.16l.24-.41.67-1.1A106.62,106.62,0,0,1,23.83,37.7l.34-.42c1.74-2.08,3.46-4,5.17-5.72,1.08-1.13,2.31-2.34,3.71-3.64A104,104,0,0,1,48.34,16.11c1.48-.95,3.1-1.93,4.79-2.88a102.74,102.74,0,0,1,36-12.18C89.78,1,90.41.87,91,.79A107.7,107.7,0,0,1,103.49,0h.43a104.53,104.53,0,0,1,22.6,2.47c3.19.7,6.39,1.57,9.51,2.59A103.14,103.14,0,0,1,171.4,24.89c1.14,1,2.28,2,3.48,3.1,1,1,2,1.93,3.07,3s2,2,2.92,3.08S182.59,36,183.41,37a98.14,98.14,0,0,1,6.21,8.15c1.41,2,2.77,4.2,4,6.37.49.82,1,1.75,1.62,2.87q1.17,2.11,2.38,4.65c.41.85.83,1.76,1.24,2.68.62,1.41,1.21,2.82,1.75,4.18.3.76.59,1.52.88,2.3.61,1.68,1.13,3.23,1.59,4.72.57,1.8,1.13,3.8,1.65,5.88q.64,2.65,1.13,5.15l.06.28a102.53,102.53,0,0,1,1.6,12.12c0,.07.12,1.71.12,1.75.1,2,.15,3.93.15,5.83,0,.74,0,1.48,0,2.22,0,1.1-.06,2.17-.12,3.22v.09a105.33,105.33,0,0,1-2.93,19.67,103.08,103.08,0,0,1-3.61,11.53,105.34,105.34,0,0,1-5.33,11.82l-.54,1c-.69,1.28-1.46,2.61-2.35,4.08l-.29.48c-.82,1.34-1.7,2.72-2.62,4.07l-.05.09c-1.73,2.55-3.61,5.06-5.56,7.46l-.37.44c-1,1.27-2,2.39-3,3.44l-.07.08c-.94,1-1.89,2-3,3.13l-.5.5c-1,1-2.07,2-3.1,3l-.48.44c-1,.93-2,1.82-3,2.65l-.39.34c-1.07.89-2.16,1.76-3.36,2.68l-.72.55c-1.18.89-2.21,1.63-3.19,2.32a7.33,7.33,0,0,1-.64.45A102.1,102.1,0,0,1,147,198.49c-.31.16-.73.34-1.14.52l-.51.22a102.47,102.47,0,0,1-18.12,6c-1.66.4-3.44.76-5.38,1.09-2.24.4-4.56.72-6.89,1l-3.09.28-1,.06c-2,.14-3.92.22-5.79.23Z"/><path class="cls-2" d="M202.1,103.92c0,.71,0,1.42,0,2.13q0,1.53-.12,3.06h0a97.82,97.82,0,0,1-2.75,18.49,95.73,95.73,0,0,1-3.39,10.82,97.54,97.54,0,0,1-5,11.12c-.16.29-.31.57-.48.86a94.35,94.35,0,0,1-5,8.18h0A97.58,97.58,0,0,1,160,184.25a.18.18,0,0,1-.09.07A96.81,96.81,0,0,1,145,192.79c-.44.21-.9.41-1.35.61h0a96,96,0,0,1-17.2,5.68c-1.67.4-3.35.73-5,1q-3.2.55-6.48.9c-2.22.24-4.48.41-6.75.48h0c-.91,0-1.81.06-2.72.07h-.93c-1.43,0-2.86,0-4.27-.1a97.2,97.2,0,0,1-34.27-7.81c-.69-.29-1.38-.59-2.06-.91-.4-.17-.8-.36-1.2-.56a98.07,98.07,0,0,1-33.18-25.7c-1.83-2.21-3.59-4.49-5.22-6.87A96.87,96.87,0,0,1,12,135.5l-.06-.18c-.21-.6-.41-1.22-.61-1.84h0A96.75,96.75,0,0,1,7.43,115c-.06-.45-.11-.91-.14-1.37-.22-2.1-.35-4.24-.43-6.39,0-.69,0-1.38,0-2.07,0-.41,0-.83,0-1.23,0-.73,0-1.48,0-2.21v-.31a97.06,97.06,0,0,1,.86-10.71c0-.37.1-.74.16-1.11a.06.06,0,0,1,0,0c.28-2,.62-3.89,1-5.8.06-.35.15-.68.22-1a89.48,89.48,0,0,1,2.57-9.38c.59-1.81,1.23-3.6,1.94-5.36.43-1.11.89-2.2,1.37-3.29l0-.06c.25-.59.52-1.17.79-1.76.77-1.65,1.58-3.29,2.44-4.89.71-1.32,1.45-2.64,2.21-3.93.27-.45.54-.91.83-1.36a98.74,98.74,0,0,1,8-11.07l.32-.39c1.52-1.81,3.11-3.58,4.78-5.28,1.13-1.18,2.3-2.32,3.5-3.44A97.58,97.58,0,0,1,52.23,21.4c1.47-.95,3-1.85,4.5-2.71A96.82,96.82,0,0,1,90.63,7.25c.58-.1,1.15-.17,1.73-.24a100.09,100.09,0,0,1,11.69-.74h.4A98.48,98.48,0,0,1,125.7,8.58c3,.67,6,1.49,8.92,2.44a97.21,97.21,0,0,1,33.24,18.63q1.66,1.43,3.27,2.92c1,.92,2,1.86,2.9,2.82s1.84,1.91,2.72,2.89,1.62,1.81,2.41,2.74c2.06,2.45,4,5,5.82,7.66,1.34,1.94,2.6,3.94,3.79,6,.54.89,1,1.79,1.53,2.7.79,1.43,1.53,2.89,2.23,4.36.41.84.8,1.69,1.17,2.53.58,1.3,1.13,2.61,1.65,3.94.29.71.56,1.42.82,2.14.53,1.45,1,2.91,1.48,4.4.59,1.83,1.11,3.7,1.58,5.58.38,1.59.74,3.2,1.05,4.82a2.09,2.09,0,0,0,.05.21,96.88,96.88,0,0,1,1.52,11.53c0,.08,0,.17,0,.26,0,.43,0,.85.08,1.28C202.05,100.24,202.1,102.07,202.1,103.92Z"/><path class="cls-3" d="M202.1,103.92c0,.71,0,1.42,0,2.13q0,1.53-.12,3.06h0a97.82,97.82,0,0,1-2.75,18.49,95.73,95.73,0,0,1-3.39,10.82,97.54,97.54,0,0,1-5,11.12c-.16.29-.31.57-.48.86a94.35,94.35,0,0,1-5,8.18h0a264,264,0,0,1-22.61,15c-12.33,7.53-24.94,14.82-38.66,19.38a28.62,28.62,0,0,1-10.64,1.92,13.17,13.17,0,0,1-7.24-2.58h0a9,9,0,0,1-2.07-2.24v-1.23L104,174c-.24-.82-.48-1.63-.71-2.45-.66-2.32-1.28-4.67-1.75-7a41.41,41.41,0,0,1-.86-7.05A23.54,23.54,0,0,1,104.13,144a16,16,0,0,1,1.65-2.15c3.37-3.69,8.48-6,11.38-9.84a11.08,11.08,0,0,0,1.61-2.95,12,12,0,0,0,.55-5c-.36-4.57-2.53-9.31-2.24-14a13.57,13.57,0,0,1,5.62-10.11c6-4.23,14.83-3.2,20.16-8.22a13,13,0,0,0,3.33-5.29,20.62,20.62,0,0,0,1.07-5.4,30.16,30.16,0,0,0,0-3.92c-.33-5.26-1.67-10.45-1.4-15.7s2.67-10.88,7.51-12.94c4.08-1.75,8.95-.59,13-2.3,4.26-1.79,6.5-6.07,7.62-10.73.93.94,1.84,1.91,2.72,2.89s1.62,1.81,2.41,2.74c2.06,2.45,4,5,5.82,7.66,1.34,1.94,2.6,3.94,3.79,6,.54.89,1,1.79,1.53,2.7.79,1.43,1.53,2.89,2.23,4.36.41.84.8,1.69,1.17,2.53.58,1.3,1.13,2.61,1.65,3.94.29.71.56,1.42.82,2.14.53,1.45,1,2.91,1.48,4.4.59,1.83,1.11,3.7,1.58,5.58.38,1.59.74,3.2,1.05,4.82a2.09,2.09,0,0,0,.05.21,96.88,96.88,0,0,1,1.52,11.53c0,.08,0,.17,0,.26,0,.43,0,.85.08,1.28C202.05,100.24,202.1,102.07,202.1,103.92Z"/><path class="cls-4" d="M202.1,103.92c0,.71,0,1.42,0,2.13q0,1.53-.12,3.06h0a97.82,97.82,0,0,1-2.75,18.49,95.73,95.73,0,0,1-3.39,10.82,97.54,97.54,0,0,1-5,11.12c-.16.29-.31.57-.48.86a94.35,94.35,0,0,1-5,8.18h0A97.58,97.58,0,0,1,160,184.25a.18.18,0,0,1-.09.07A96.81,96.81,0,0,1,145,192.79c-.44.21-.9.41-1.35.61h0a96,96,0,0,1-17.2,5.68c-1.67.4-3.35.73-5,1q-3.2.55-6.48.9c-2.22.24-4.48.41-6.75.48h0a8.05,8.05,0,0,1-.76-.58,17.41,17.41,0,0,1-3.21-3.44,12.14,12.14,0,0,1-2.09-5.11,29.83,29.83,0,0,1,.38-9.16c.46-3.18.21-7.65.89-11.62a17.31,17.31,0,0,1,.82-3.13,9,9,0,0,1,2.56-3.9,7.82,7.82,0,0,1,2-1.25c1.69-.73,3.62-.74,5.36-1.37,5.87-2.13,7.08-10,5.86-16.12-.93-4.6-2.67-9.27-2.74-13.84a14.91,14.91,0,0,1,.55-4.54,12.23,12.23,0,0,1,1.61-3.45,13.35,13.35,0,0,1,8.14-5.72c3.48-.77,7.23-.13,10.52-1.49,3.93-1.62,6.29-5.8,7.12-10s.42-8.48.47-12.74a58,58,0,0,1,.62-7.67,54.83,54.83,0,0,1,1.07-5.4c.14-.56.28-1.12.44-1.67.75-2.7,1.83-5.52,4.09-7.17,3.81-2.78,9.12-1.18,13.79-1.8a14.4,14.4,0,0,0,11.19-8.59c2.69-6.44.4-14.2,2.39-20.73,2.06,2.45,4,5,5.82,7.66,1.34,1.94,2.6,3.94,3.79,6,.54.89,1,1.79,1.53,2.7.79,1.43,1.53,2.89,2.23,4.36.41.84.8,1.69,1.17,2.53.58,1.3,1.13,2.61,1.65,3.94.29.71.56,1.42.82,2.14.53,1.45,1,2.91,1.48,4.4.59,1.83,1.11,3.7,1.58,5.58.38,1.59.74,3.2,1.05,4.82a2.09,2.09,0,0,0,.05.21,96.88,96.88,0,0,1,1.52,11.53c0,.08,0,.17,0,.26,0,.43,0,.85.08,1.28C202.05,100.24,202.1,102.07,202.1,103.92Z"/><path class="cls-3" d="M107.54,157.5a40.42,40.42,0,0,1-.85,7.05c-.49,2.37-1.11,4.71-1.77,7-.24.82-.47,1.63-.71,2.44l-.09,15.23v.85a9.49,9.49,0,0,1-2.08,2.25,13.17,13.17,0,0,1-7.24,2.58A28.74,28.74,0,0,1,84.15,193c-13.71-4.56-26.32-11.85-38.66-19.38-7.23-4.41-14.44-8.95-21.24-14A96.87,96.87,0,0,1,12,135.5l-.06-.18c-.21-.6-.41-1.22-.61-1.84h0A96.75,96.75,0,0,1,7.43,115c-.06-.45-.11-.91-.14-1.37-.22-2.1-.35-4.24-.43-6.39,0-.69,0-1.38,0-2.07,0-.41,0-.83,0-1.23,0-.73,0-1.48,0-2.21v-.31a97.06,97.06,0,0,1,.86-10.71c0-.37.1-.74.16-1.11a.06.06,0,0,1,0,0c.28-2,.62-3.89,1-5.8.06-.35.15-.68.22-1a89.48,89.48,0,0,1,2.57-9.38c.59-1.81,1.23-3.6,1.94-5.36.43-1.11.89-2.2,1.37-3.29l0-.06c.25-.59.52-1.17.79-1.76.77-1.65,1.58-3.29,2.44-4.89.71-1.32,1.45-2.64,2.21-3.93.27-.45.54-.91.83-1.36a98.74,98.74,0,0,1,8-11.07l.32-.39c1.52-1.81,3.11-3.58,4.78-5.28,1.15,4.44,3.37,8.46,7.47,10.17s9,.55,13,2.3c4.84,2.06,7.23,7.68,7.5,12.94s-1,10.44-1.39,15.7a29.08,29.08,0,0,0,0,4,20.31,20.31,0,0,0,1,5.35,13.05,13.05,0,0,0,3.33,5.3c5.35,5,14.18,4,20.17,8.22A13.58,13.58,0,0,1,91.17,110c.28,4.67-1.88,9.41-2.25,14a12,12,0,0,0,.55,5A11.08,11.08,0,0,0,91.08,132c2.91,3.84,8,6.15,11.39,9.84a19,19,0,0,1,1.66,2.15A23.6,23.6,0,0,1,107.54,157.5Z"/><path class="cls-4" d="M106.2,192.36a12.23,12.23,0,0,1-2.07,5.11,18.19,18.19,0,0,1-3.23,3.44c-.24.2-.48.39-.72.56a97.2,97.2,0,0,1-34.27-7.81c-.69-.29-1.38-.59-2.06-.91-.4-.17-.8-.36-1.2-.56a98.07,98.07,0,0,1-33.18-25.7c-1.83-2.21-3.59-4.49-5.22-6.87A96.87,96.87,0,0,1,12,135.5l-.06-.18c-.21-.6-.41-1.22-.61-1.84h0A96.75,96.75,0,0,1,7.43,115c-.06-.45-.11-.91-.14-1.37-.22-2.1-.35-4.24-.43-6.39,0-.69,0-1.38,0-2.07,0-.41,0-.83,0-1.23,0-.73,0-1.48,0-2.21v-.31a97.06,97.06,0,0,1,.86-10.71c0-.37.1-.74.16-1.11a.06.06,0,0,1,0,0c.28-2,.62-3.89,1-5.8.06-.35.15-.68.22-1a89.48,89.48,0,0,1,2.57-9.38c.59-1.81,1.23-3.6,1.94-5.36.43-1.11.89-2.2,1.37-3.29l0-.06c.25-.59.52-1.17.79-1.76.77-1.65,1.58-3.29,2.44-4.89.71-1.32,1.45-2.64,2.21-3.93.27-.45.54-.91.83-1.36a98.74,98.74,0,0,1,8-11.07c1.69,6.4-.39,13.89,2.21,20.13a14.43,14.43,0,0,0,11.2,8.59c4.67.62,10-1,13.78,1.8,2.28,1.65,3.35,4.47,4.1,7.17.16.57.32,1.14.45,1.71a54.35,54.35,0,0,1,1,5.35,56.4,56.4,0,0,1,.62,7.68c.07,4.26-.34,8.56.48,12.74s3.19,8.36,7.13,10c3.28,1.36,7,.72,10.5,1.49A13.34,13.34,0,0,1,88.92,124a12.23,12.23,0,0,1,1.61,3.45,15.23,15.23,0,0,1,.55,4.54c-.07,4.57-1.8,9.24-2.73,13.84-1.24,6.12,0,14,5.85,16.12,1.74.63,3.66.64,5.36,1.37a8.06,8.06,0,0,1,2,1.25,9.26,9.26,0,0,1,2.57,3.9,19.23,19.23,0,0,1,.79,3.14c.68,4,.44,8.43.9,11.61A30.14,30.14,0,0,1,106.2,192.36Z"/><path class="cls-5" d="M105.36,201.56h-.91a97.25,97.25,0,0,1-38.54-7.91c-.69-.29-1.38-.59-2.06-.91-.4-.17-.8-.36-1.2-.56A97.87,97.87,0,0,1,16.29,146,94.7,94.7,0,0,1,12,135.5l-.06-.18c-.21-.6-.41-1.22-.61-1.84h0A96.75,96.75,0,0,1,7.43,115c-.06-.45-.11-.91-.14-1.37-.22-2.1-.35-4.24-.43-6.39,0-.69,0-1.38,0-2.07,0-.41,0-.83,0-1.23,0-.73,0-1.48,0-2.21v-.31a97.06,97.06,0,0,1,.86-10.71c0-.37.1-.74.16-1.11a.06.06,0,0,1,0,0c8.13.65,16.9,5.08,21.2,9.67,10.45,11.16,10.88,28.11,10.7,43.41,8.9-7.7,24.22-6.06,31.3,3.34,5.93,7.9,5.78,18.65,5.36,28.52,6.71-4.84,16.83-2.22,22.27,4.05S105.6,193.36,105.36,201.56Z"/><path class="cls-5" d="M202.1,103.92c0,.71,0,1.42,0,2.13q0,1.53-.12,3.06h0a97.82,97.82,0,0,1-2.75,18.49,95.73,95.73,0,0,1-3.39,10.82,97.54,97.54,0,0,1-5,11.12c-.16.29-.31.57-.48.86A97.69,97.69,0,0,1,160,184.25a.18.18,0,0,1-.09.07A96.81,96.81,0,0,1,145,192.79c-.44.21-.9.41-1.35.61h0a96,96,0,0,1-17.2,5.68c-1.67.4-3.35.73-5,1q-3.2.55-6.48.9a92.47,92.47,0,0,1-9.48.55c.5-7.89,3.83-15.75,9.92-20.79s15.27-6.77,22.45-3.24a70.49,70.49,0,0,1-5.29-22.46c-.49-7.36.31-15.15,4.41-21.28s12.21-10,19.12-7.45c-1.58-6.8-2.54-13.88-1.29-20.74s5-13.54,11-17.07,14.44-3.22,19.39,1.7a28.3,28.3,0,0,1,8.61-20.58c.53-.51,1.1-1,1.68-1.46.29.71.56,1.42.82,2.14.53,1.45,1,2.91,1.48,4.4.59,1.83,1.11,3.7,1.58,5.58.38,1.59.74,3.2,1.05,4.82a2.09,2.09,0,0,0,.05.21,96.88,96.88,0,0,1,1.52,11.53c0,.08,0,.17,0,.26,0,.43,0,.85.08,1.28C202.05,100.24,202.1,102.07,202.1,103.92Z"/><path class="cls-6" d="M103.28,175.17a12.78,12.78,0,0,0-6.18-6.82c-2.94-1.35-6.33-1.29-9.57-1.09s-6.57.5-9.67-.46-6-3.53-6.16-6.78c-.14-2.52,1.29-4.8,2.22-7.15s1.19-5.41-.75-7c-1.69-1.4-4.15-1-6.34-.88a21.13,21.13,0,0,1-10-1.88c-2.82-1.29-5.63-3.8-5.31-6.88.3-2.85,3.17-4.94,3.39-7.8.2-2.52-1.71-4.64-3.22-6.68a25.1,25.1,0,0,1-3.51-6.63,11.32,11.32,0,0,1-.78-4.87,5.67,5.67,0,0,1,1.83-3.73,2,2,0,0,1,.44-.33,1,1,0,0,1,.13-.09,5.58,5.58,0,0,1,4.84-.19,12.68,12.68,0,0,1,4.06,2.89A37.71,37.71,0,0,1,63.82,115c.87,1.32,1.76,2.78,3.26,3.33,1.9.68,3.91-.42,5.78-1.18a14.6,14.6,0,0,1,9.37-.78,10.21,10.21,0,0,1,6.88,6.14c1.1,3.07.4,6.45.06,9.7-.13,1.2-.12,2.61.82,3.35,1.14.9,2.76.25,4.18,0a6,6,0,0,1,6.14,2.47c1.47,2.4.71,5.54-.67,8s-3.31,4.59-4.28,7.21c-.51,1.37-.63,3.15.53,4a6.36,6.36,0,0,0,1.65.7c3.42,1.3,4.64,5.48,4.86,9.13.07,1.17.08,2.36.16,3.56v0a20.44,20.44,0,0,0,.26,2.6A11.19,11.19,0,0,0,103.28,175.17Z"/><path class="cls-5" d="M102.82,173.25c-1.29-4.59-3-8.74-6.6-11.08a23.6,23.6,0,0,0-3.38-1.67c-2.25-1-4.58-2-5.78-4.15-1-1.76-.89-3.8-.82-5.77a19,19,0,0,0-.08-3.46,9,9,0,0,0-5.38-6.91c-.51-.21-1.07-.39-1.59-.56a7.9,7.9,0,0,1-3.57-1.82c-1.21-1.27-1.44-3-1.67-4.74a20.23,20.23,0,0,0-.34-2.09,9.16,9.16,0,0,0-5.84-6.37,18.12,18.12,0,0,0-2.31-.57,11.41,11.41,0,0,1-3.76-1.2c-2.18-1.32-3.18-3.75-4.14-6.1-.26-.65-.54-1.32-.82-1.93a19.45,19.45,0,0,0-7.55-8.34,2,2,0,0,1,.44-.33,19.91,19.91,0,0,1,7.58,8.45c.29.63.57,1.3.83,2,.93,2.28,1.89,4.63,3.93,5.85a10.94,10.94,0,0,0,3.59,1.14,19.5,19.5,0,0,1,2.37.58,9.67,9.67,0,0,1,6.18,6.74,19.68,19.68,0,0,1,.36,2.15c.22,1.7.43,3.3,1.53,4.44a7.2,7.2,0,0,0,3.35,1.69c.54.18,1.1.36,1.63.58a9.55,9.55,0,0,1,5.7,7.32,19.15,19.15,0,0,1,.08,3.55c-.07,2-.14,3.86.76,5.5,1.1,2,3.25,3,5.53,3.92a25.28,25.28,0,0,1,3.46,1.71c3.06,2,4.81,5.28,6,8.9v0A20.44,20.44,0,0,0,102.82,173.25Z"/><path class="cls-6" d="M102.78,181.31a12.71,12.71,0,0,1,6.18-6.82c2.94-1.36,6.33-1.3,9.57-1.1s6.57.5,9.68-.46,6-3.53,6.15-6.78c.14-2.51-1.29-4.8-2.22-7.15s-1.19-5.41.75-7c1.69-1.4,4.15-1,6.34-.88a21.13,21.13,0,0,0,10-1.88c2.82-1.28,5.63-3.8,5.31-6.88-.3-2.85-3.17-4.94-3.39-7.8-.2-2.52,1.71-4.64,3.22-6.68a25.1,25.1,0,0,0,3.51-6.63,11.25,11.25,0,0,0,.78-4.86,5.63,5.63,0,0,0-1.83-3.73,2.3,2.3,0,0,0-.43-.34l-.14-.09a5.62,5.62,0,0,0-4.84-.19,12.84,12.84,0,0,0-4.06,2.89,38.21,38.21,0,0,0-5.16,6.24c-.87,1.33-1.76,2.79-3.26,3.33-1.9.68-3.91-.42-5.78-1.18a14.53,14.53,0,0,0-9.37-.77,10.17,10.17,0,0,0-6.88,6.13c-1.1,3.07-.4,6.45-.06,9.7.13,1.2.12,2.61-.82,3.35-1.14.9-2.76.25-4.18,0a6,6,0,0,0-6.14,2.48c-1.47,2.39-.71,5.53.67,8s3.31,4.58,4.28,7.2c.51,1.37.63,3.16-.53,4a6,6,0,0,1-1.65.7c-3.42,1.3-4.64,5.49-4.86,9.13-.07,1.17-.08,2.36-.15,3.56v0a22.45,22.45,0,0,1-.27,2.6A11.54,11.54,0,0,1,102.78,181.31Z"/><path class="cls-5" d="M103.24,179.38c1.29-4.59,3-8.74,6.6-11.08a24.7,24.7,0,0,1,3.38-1.67c2.25-1,4.58-2,5.78-4.14,1-1.77.89-3.81.82-5.78a19.94,19.94,0,0,1,.08-3.46,9,9,0,0,1,5.38-6.91c.51-.21,1.07-.39,1.59-.55a8,8,0,0,0,3.57-1.83c1.21-1.26,1.44-3,1.67-4.73a18,18,0,0,1,.35-2.1,9.15,9.15,0,0,1,5.83-6.37,20.49,20.49,0,0,1,2.31-.57,11.41,11.41,0,0,0,3.76-1.2c2.18-1.31,3.18-3.75,4.14-6.1.26-.64.54-1.31.82-1.93a19.49,19.49,0,0,1,7.55-8.33,2.3,2.3,0,0,0-.43-.34,19.93,19.93,0,0,0-7.59,8.45c-.29.63-.57,1.31-.83,2-.93,2.27-1.89,4.62-3.93,5.84a10.94,10.94,0,0,1-3.59,1.14,19.54,19.54,0,0,0-2.37.59A9.64,9.64,0,0,0,132,137a19.68,19.68,0,0,0-.36,2.15c-.22,1.71-.43,3.31-1.53,4.44a7.31,7.31,0,0,1-3.35,1.7c-.54.17-1.09.35-1.63.57a9.57,9.57,0,0,0-5.7,7.32,19.15,19.15,0,0,0-.08,3.55c.07,2,.14,3.87-.76,5.51-1.1,2-3.25,2.94-5.53,3.91a25.33,25.33,0,0,0-3.46,1.72c-3.06,2-4.81,5.27-6,8.89v0A22.45,22.45,0,0,1,103.24,179.38Z"/><path class="cls-7" d="M102.12,67.12c.25,3.46.48,6.93.73,10.4v122"/><path class="cls-8" d="M82.62,38.25c-2.88-5.18-5.37-11.12-4.09-16.91.86-3.9,4-7.65,8-7.69,3.66,0,6.65,2.92,8.63,6,5.47,8.46,6.66,18.9,7.72,28.92.42,4,1.18,12.66.58,17A28.9,28.9,0,0,1,99.75,61c-1.74-2.42-4.14-4.46-6.07-6.75A101,101,0,0,1,82.62,38.25Z"/><path class="cls-8" d="M66.61,59.2c-5.6-2-11.4-4.74-14.29-9.92-2-3.49-2.09-8.38.86-11.06C55.89,35.75,60.09,36,63.62,37c9.7,2.69,17.53,9.69,25,16.48,3,2.69,9.3,8.67,11.7,12.28a29.24,29.24,0,0,1-5.77-.91c-2.91-.66-6.06-.58-9-1A100.61,100.61,0,0,1,66.61,59.2Z"/><path class="cls-8" d="M70.65,82.21c-5.7,1.67-12,2.79-17.4.27-3.62-1.7-6.58-5.59-5.74-9.5.76-3.58,4.31-5.84,7.74-7.1,9.46-3.46,19.9-2.33,29.91-1.16,4,.47,12.61,1.64,16.66,3.17a28.64,28.64,0,0,1-5.22,2.62c-2.75,1.16-5.27,3.06-7.93,4.44A100.75,100.75,0,0,1,70.65,82.21Z"/><path class="cls-8" d="M92.46,104.19c-2.29,5.47-5.42,11.1-10.76,13.68-3.6,1.73-8.48,1.58-11-1.53-2.3-2.85-1.82-7-.63-10.49C73.35,96.32,80.8,88.93,88,81.9c2.86-2.78,9.21-8.76,13-10.94a28.23,28.23,0,0,1-1.26,5.7c-.82,2.87-.94,6-1.54,9A101.32,101.32,0,0,1,92.46,104.19Z"/><path class="cls-8" d="M117.63,102.13c1.79,5.66,3,12,.62,17.4-1.62,3.64-5.45,6.69-9.37,5.93-3.6-.7-5.94-4.19-7.26-7.6C98,108.47,98.88,98,99.85,88c.39-4,1.38-12.64,2.83-16.72a29.16,29.16,0,0,1,2.72,5.16c1.22,2.73,3.17,5.21,4.6,7.84A100.91,100.91,0,0,1,117.63,102.13Z"/><path class="cls-8" d="M137.19,84.45c5.11,3,10.26,6.87,12.1,12.51,1.23,3.8.42,8.62-3,10.68-3.13,1.89-7.21.86-10.48-.79-9-4.53-15.32-12.92-21.3-21-2.37-3.21-7.44-10.31-9.09-14.32a28.46,28.46,0,0,1,5.48,2c2.73,1.21,5.83,1.75,8.66,2.74A100.39,100.39,0,0,1,137.19,84.45Z"/><path class="cls-8" d="M137.4,57c5.88-.81,12.31-1,17.25,2.3,3.32,2.22,5.68,6.5,4.28,10.24-1.29,3.43-5.13,5.15-8.71,5.88-9.87,2-20-.63-29.75-3.27-3.85-1-12.23-3.47-16-5.59A29.22,29.22,0,0,1,110,64.71c2.89-.74,5.67-2.25,8.5-3.22A100.43,100.43,0,0,1,137.4,57Z"/><path class="cls-8" d="M128.52,29c2.07-1.69,4.36-3.34,7-3.64a7.85,7.85,0,0,1,8,4.84c1.57,4.08-.57,8.65-3.27,12.08-4.57,5.82-10.79,10.15-17.31,13.63-3.2,1.71-6.48,3.23-9.79,4.71-3.11,1.4-6.49,3.46-9.78,4.31-.6-1.9,2-6,2.8-7.85a75,75,0,0,1,4.21-7.73,80.74,80.74,0,0,1,11-13.83A85.44,85.44,0,0,1,128.52,29Z"/><path class="cls-1" d="M122.35,61.45c-3.75-3-7.45-5.63-12.26-7-.42-.12-.85-.23-1.28-.33C98.05,51.6,87.38,55.78,79.29,62.9A39.11,39.11,0,0,1,70,69.36c.39-.17,2.53,1.65,2.89,1.93,1,.71,1.87,1.47,2.78,2.24a47.69,47.69,0,0,0,5.66,4.34A35.86,35.86,0,0,0,95.25,82.6c7.87,1,16.5.38,23.79-2.91,6.14-2.76,9.38-7.31,14.63-10.33-.3.17-2.72-1.62-3-1.79a70.19,70.19,0,0,1-6.63-4.75Z"/><circle class="cls-5" cx="102.01" cy="67.57" r="11.42" transform="translate(-17.9 91.92) rotate(-45)"/><path class="cls-8" d="M170.42,41.56l-9.79,1.75-1.75,9.79a.31.31,0,0,1-.6,0l-1.75-9.79-9.79-1.75a.31.31,0,0,1,0-.6l9.79-1.75,1.75-9.79a.31.31,0,0,1,.6,0l1.75,9.79L170.42,41A.31.31,0,0,1,170.42,41.56Z"/><path class="cls-8" d="M116.68,18.35l-5.83,1-1,5.83a.18.18,0,0,1-.36,0l-1-5.83-5.83-1a.18.18,0,0,1,0-.36l5.83-1,1-5.83a.18.18,0,0,1,.36,0l1,5.83,5.83,1A.18.18,0,0,1,116.68,18.35Z"/><path class="cls-8" d="M181.12,129.33l-8.35,1.49-1.49,8.35a.26.26,0,0,1-.51,0l-1.49-8.35-8.35-1.49a.26.26,0,0,1,0-.51l8.35-1.49,1.49-8.35a.26.26,0,0,1,.51,0l1.49,8.35,8.35,1.49A.26.26,0,0,1,181.12,129.33Z"/><path class="cls-8" d="M42.78,70.71,33,72.46l-1.75,9.79a.3.3,0,0,1-.59,0L28.9,72.46l-9.79-1.75a.3.3,0,0,1,0-.6l9.79-1.75,1.75-9.79a.3.3,0,0,1,.59,0L33,68.36l9.79,1.75A.3.3,0,0,1,42.78,70.71Z"/><circle class="cls-8" cx="62.59" cy="26.32" r="2.84"/><path class="cls-8" d="M38.32,46.15a2,2,0,1,1-2-2A1.95,1.95,0,0,1,38.32,46.15Z"/><path class="cls-8" d="M22.46,91.08a2,2,0,1,1-2-2A2,2,0,0,1,22.46,91.08Z"/><path class="cls-8" d="M26.68,115a2,2,0,1,1-2-2A2,2,0,0,1,26.68,115Z"/><path class="cls-8" d="M186.94,115a2,2,0,1,1-2-2A2,2,0,0,1,186.94,115Z"/><path class="cls-8" d="M155.92,146.05a2,2,0,1,1-2-2A2,2,0,0,1,155.92,146.05Z"/><path class="cls-8" d="M174,164.09a2,2,0,1,1-2-2A2,2,0,0,1,174,164.09Z"/><path class="cls-8" d="M174,60.63a2,2,0,1,1-2-2A2,2,0,0,1,174,60.63Z"/><path class="cls-8" d="M41.79,150.85a2,2,0,1,1-2-1.95A2,2,0,0,1,41.79,150.85Z"/><path class="cls-8" d="M148.54,23.39a2,2,0,1,1-2-1.95A2,2,0,0,1,148.54,23.39Z"/><path class="cls-8" d="M110.85,35.92a2,2,0,1,1-1.95-2A2,2,0,0,1,110.85,35.92Z"/><path class="cls-8" d="M41.17,102.05a2.85,2.85,0,1,1-2.85-2.84A2.86,2.86,0,0,1,41.17,102.05Z"/></g></g></svg>